<svg class="img-fluid" id="outputsvg" xmlns="http://www.w3.org/2000/svg" style="transform: matrix(1, 0, 0, 1, 115.789, 12.6316); transform-origin: 50% 50%; cursor: move; max-height: none;" width="260" height="260" viewBox="0 0 2600 2600"><g id="lPXI0aBV3cKV0a66jbCxym" fill="rgb(250,180,21)" style="transform: none;"><g><path id="p9XB2sPPw" d="M1180 2591 c-8 -4 -46 -11 -85 -14 -216 -18 -504 -161 -699 -346 -90 -86 -200 -240 -261 -364 -212 -438 -163 -958 129 -1344 121 -161 270 -287 442 -375 143 -73 325 -128 423 -128 20 0 42 -5 48 -11 13 -13 197 -7 313 9 427 61 798 338 986 737 128 272 154 608 69 908 -55 194 -197 431 -341 568 -198 188 -464 319 -714 351 -115 15 -292 20 -310 9z m174 -318 c4 -4 37 -13 74 -20 122 -21 205 -42 211 -51 3 -5 21 -13 39 -17 17 -3 32 -11 32 -16 0 -5 8 -9 18 -9 10 0 25 -9 35 -20 9 -11 24 -20 32 -20 8 0 15 -4 15 -10 0 -5 7 -10 15 -10 8 0 15 -4 15 -10 0 -5 7 -10 15 -10 7 0 18 -6 22 -13 4 -7 20 -18 36 -25 15 -6 31 -22 36 -35 9 -24 65 -77 82 -77 5 0 11 -11 15 -25 3 -14 12 -25 20 -25 8 0 14 -9 14 -20 0 -11 5 -20 10 -20 6 0 10 -7 10 -15 0 -8 4 -15 9 -15 5 0 12 -11 15 -25 4 -14 11 -25 16 -25 6 0 10 -7 10 -15 0 -8 4 -15 9 -15 9 0 26 -38 36 -85 4 -16 10 -32 14 -35 8 -6 51 -187 51 -217 0 -12 5 -25 10 -28 12 -7 13 -137 2 -150 -5 -6 -15 -48 -22 -95 -7 -47 -16 -89 -20 -95 -4 -5 -10 -27 -14 -47 -4 -21 -11 -38 -15 -38 -5 0 -12 -16 -15 -35 -4 -19 -10 -35 -15 -35 -4 0 -13 -16 -21 -35 -8 -19 -17 -35 -22 -35 -4 0 -8 -6 -8 -12 0 -7 -10 -25 -23 -40 -12 -15 -33 -41 -46 -58 -43 -56 -151 -154 -225 -205 -64 -44 -102 -64 -211 -111 -105 -45 -388 -70 -500 -45 -119 27 -295 100 -295 123 0 4 -9 8 -20 8 -10 0 -24 9 -30 20 -6 11 -17 20 -26 20 -23 0 -204 187 -256 265 -106 160 -168 358 -168 534 0 92 30 240 66 324 14 34 33 81 41 105 9 23 19 42 24 42 5 0 9 7 9 15 0 8 3 15 8 15 4 0 13 13 20 30 23 51 180 208 266 265 144 95 219 124 466 174 57 11 124 13 134 4z"></path><path id="pMnMzRLLt" d="M1124 1945 c-34 -7 -70 -18 -80 -23 -11 -5 -44 -22 -74 -37 -69 -35 -150 -96 -181 -137 -13 -17 -30 -37 -36 -44 -7 -7 -13 -15 -13 -18 0 -3 -13 -28 -30 -56 -16 -28 -30 -60 -30 -70 0 -11 -4 -20 -10 -20 -5 0 -10 -13 -10 -28 0 -15 -5 -33 -12 -40 -17 -17 -16 -322 2 -389 7 -29 17 -53 22 -53 4 0 8 -11 8 -24 0 -14 6 -31 13 -38 8 -7 17 -26 21 -41 3 -15 11 -27 16 -27 6 0 10 -7 10 -15 0 -8 5 -15 10 -15 6 0 14 -8 17 -17 9 -24 78 -93 92 -93 6 0 14 -7 17 -15 4 -8 12 -15 20 -15 8 0 14 -4 14 -8 0 -5 18 -14 40 -21 21 -6 46 -18 54 -27 9 -8 52 -24 97 -36 71 -17 104 -20 238 -16 157 5 162 6 286 56 86 35 178 108 241 193 26 35 34 57 34 88 0 29 -4 41 -15 41 -8 0 -22 8 -32 19 -10 10 -30 21 -46 25 -15 4 -36 15 -46 25 -10 10 -35 24 -55 31 -20 6 -40 18 -44 27 -5 9 -29 17 -56 20 -47 6 -49 5 -104 -50 -60 -58 -138 -97 -198 -97 -42 0 -96 19 -114 40 -8 10 -24 20 -34 22 -27 4 -96 136 -103 198 -6 53 21 180 38 180 5 0 9 6 9 14 0 19 52 62 114 93 44 22 59 25 118 20 42 -4 74 -12 84 -21 8 -9 22 -16 30 -16 8 0 14 -4 14 -10 0 -5 6 -10 13 -10 16 0 57 -41 57 -57 0 -6 10 -13 23 -17 56 -15 79 -6 196 75 132 93 141 102 141 142 0 47 -96 167 -134 167 -6 0 -18 9 -26 20 -8 11 -20 20 -28 20 -7 0 -34 11 -60 24 -26 13 -65 29 -87 36 -22 7 -42 16 -45 20 -10 15 -323 19 -386 5z"></path></g></g><g id="l3xI5YTUBNOPvYC5GgOVZIl" fill="rgb(254,213,40)" style="transform: none;"><g><path id="pXrdORWmu" d="M1229 2305 c-3 -2 -25 -7 -50 -10 -63 -7 -90 -12 -127 -24 -18 -5 -33 -10 -35 -9 -1 0 -20 -5 -42 -11 -61 -16 -160 -66 -251 -127 -86 -56 -243 -213 -266 -264 -7 -17 -16 -30 -20 -30 -5 0 -8 -5 -8 -11 0 -6 -7 -17 -15 -25 -8 -9 -15 -24 -15 -35 0 -10 -5 -19 -11 -19 -5 0 -7 -4 -4 -10 3 -5 1 -10 -5 -10 -6 0 -8 -4 -5 -10 3 -5 1 -10 -6 -10 -7 0 -9 -3 -6 -6 3 -4 1 -16 -5 -28 -7 -11 -13 -24 -14 -28 -1 -5 -3 -10 -4 -13 -3 -7 -4 -9 -19 -80 -7 -33 -16 -64 -19 -69 -15 -25 -16 -268 -2 -341 6 -27 8 -55 6 -62 -3 -6 -2 -13 2 -15 9 -4 57 -149 56 -165 -1 -7 2 -13 8 -13 9 0 34 -59 30 -72 -1 -5 3 -8 9 -8 5 0 7 -4 4 -10 -3 -5 -2 -10 4 -10 11 0 48 -49 53 -69 2 -7 43 -54 92 -104 50 -51 89 -95 88 -100 -1 -4 5 -7 13 -7 7 0 18 -6 22 -14 4 -8 17 -16 28 -18 11 -2 19 -10 17 -16 -1 -7 12 -15 28 -19 17 -3 28 -8 25 -11 -7 -8 100 -61 179 -88 110 -38 208 -52 341 -48 118 3 145 6 195 19 14 3 36 8 50 11 41 8 94 26 108 37 6 5 12 7 12 3 0 -11 132 60 197 106 65 46 174 146 214 198 13 17 34 43 46 58 13 15 23 33 23 40 0 6 4 12 8 12 5 0 14 16 22 35 8 19 17 35 21 35 7 0 24 49 21 63 -1 4 2 7 7 7 5 0 13 15 17 33 10 41 9 39 17 57 4 8 8 24 10 35 2 11 7 27 10 35 6 16 8 38 8 82 0 15 4 30 9 33 14 8 13 202 -1 210 -6 4 -7 19 -4 35 3 15 2 31 -3 34 -6 3 -8 15 -5 26 3 11 1 20 -5 20 -6 0 -8 9 -5 20 3 11 1 20 -5 20 -6 0 -8 9 -5 20 3 11 0 20 -6 20 -5 0 -8 6 -5 14 3 7 -1 20 -9 27 -7 8 -12 20 -9 27 2 6 -1 12 -8 12 -6 0 -9 4 -5 9 7 12 -25 81 -37 81 -5 0 -6 5 -3 10 3 6 -1 13 -9 16 -9 3 -13 10 -10 15 3 5 0 9 -6 9 -6 0 -8 5 -5 10 3 6 -1 13 -9 16 -9 3 -14 10 -11 14 3 5 -3 13 -12 19 -10 5 -17 12 -15 15 6 15 1 26 -14 26 -8 0 -13 4 -10 9 6 9 -9 25 -62 68 -19 14 -38 37 -43 50 -5 13 -22 30 -39 37 -17 7 -27 15 -24 19 4 3 -5 9 -20 13 -14 3 -23 10 -20 15 3 5 -4 9 -16 9 -12 0 -18 5 -15 10 3 6 -3 10 -15 10 -11 0 -28 9 -37 20 -10 11 -25 20 -35 20 -10 0 -18 4 -18 9 0 5 -14 13 -32 16 -17 4 -38 14 -46 21 -7 8 -27 14 -43 14 -16 0 -29 3 -29 8 0 4 -17 8 -37 9 -21 1 -39 6 -41 11 -1 5 -14 7 -27 4 -14 -2 -25 0 -25 5 0 5 -15 7 -34 5 -18 -2 -37 1 -40 7 -7 11 -147 16 -157 6z m163 -387 c49 -2 88 -6 88 -9 0 -3 19 -12 43 -19 23 -7 63 -23 89 -36 26 -13 55 -24 63 -24 9 0 13 -4 10 -10 -3 -5 1 -10 9 -10 9 0 16 -4 16 -9 0 -5 11 -12 24 -15 24 -6 111 -95 101 -104 -2 -3 2 -10 10 -16 23 -16 8 -31 -127 -125 -100 -70 -119 -80 -140 -72 -12 5 -19 10 -14 10 15 1 -46 61 -61 61 -8 0 -11 5 -8 10 3 6 -3 10 -14 10 -11 0 -26 7 -35 15 -8 8 -24 15 -35 15 -12 0 -21 4 -21 9 0 4 -35 7 -77 6 -61 -2 -89 -8 -129 -28 -62 -31 -114 -74 -114 -93 0 -8 -4 -14 -9 -14 -9 0 -20 -27 -28 -70 -2 -14 -7 -28 -11 -32 -4 -4 -5 -48 -1 -97 5 -75 11 -99 38 -145 17 -31 28 -56 25 -56 -16 0 30 -39 50 -42 11 -2 20 -9 19 -15 -4 -21 92 -45 165 -40 37 2 74 6 82 9 53 17 81 35 130 83 43 43 60 53 77 49 13 -4 21 -10 18 -14 -3 -5 18 -18 47 -29 29 -11 49 -20 43 -21 -15 -1 57 -39 75 -40 9 0 23 -9 33 -20 9 -11 24 -20 32 -20 23 0 18 -18 -19 -69 -78 -105 -173 -173 -306 -218 -58 -20 -73 -22 -217 -28 -87 -4 -123 -2 -123 6 0 6 -7 8 -17 5 -20 -8 -121 20 -140 39 -8 8 -32 20 -53 26 -22 7 -37 16 -34 20 3 5 -4 9 -16 9 -12 0 -19 4 -15 9 3 5 -5 13 -17 17 -24 7 -93 72 -93 87 0 5 -8 14 -17 21 -10 7 -15 16 -11 19 3 4 -2 9 -11 13 -9 3 -13 10 -10 15 3 5 0 9 -6 9 -6 0 -9 4 -5 9 3 5 -1 16 -9 24 -8 8 -12 17 -9 21 4 3 1 6 -5 6 -6 0 -9 6 -6 14 3 8 -1 20 -9 27 -8 7 -12 21 -9 31 2 10 -1 18 -7 18 -5 0 -8 7 -5 15 4 8 1 15 -5 15 -6 0 -8 11 -4 30 3 17 2 30 -3 30 -5 0 -8 44 -6 97 4 122 7 141 21 176 6 16 9 32 6 37 -3 5 -1 10 5 12 5 1 11 12 12 23 2 11 16 42 31 69 15 27 27 51 27 53 0 2 6 10 13 17 6 7 23 27 36 44 46 61 189 154 274 177 4 2 10 4 15 5 4 1 11 2 16 1 4 -1 14 3 22 10 7 6 17 9 21 6 4 -2 17 -1 28 4 11 4 40 6 65 4 25 -3 84 -6 132 -7z"></path></g></g></svg>