<?xml version="1.0" encoding="UTF-8"?>
<svg xmlns="http://www.w3.org/2000/svg" xmlns:xlink="http://www.w3.org/1999/xlink" width="64px" height="64px" viewBox="0 0 64 64" version="1.1">
<g id="surface1">
<path style=" stroke:none;fill-rule:nonzero;fill:rgb(98.039216%,70.588235%,8.235294%);fill-opacity:1;" d="M 29.046875 63.777344 C 28.847656 63.679688 27.914062 63.507812 26.953125 63.433594 C 21.636719 62.992188 14.546875 59.472656 9.746094 54.917969 C 7.53125 52.800781 4.824219 49.007812 3.324219 45.957031 C -1.894531 35.175781 -0.6875 22.375 6.5 12.875 C 9.476562 8.910156 13.144531 5.808594 17.378906 3.644531 C 20.898438 1.847656 25.378906 0.492188 27.789062 0.492188 C 28.28125 0.492188 28.824219 0.371094 28.972656 0.222656 C 29.292969 -0.0976562 33.820312 0.0507812 36.675781 0.441406 C 47.1875 1.945312 56.320312 8.761719 60.949219 18.585938 C 64.097656 25.28125 64.738281 33.550781 62.644531 40.933594 C 61.292969 45.710938 57.796875 51.542969 54.253906 54.917969 C 49.378906 59.542969 42.832031 62.769531 36.675781 63.558594 C 33.847656 63.925781 29.488281 64.050781 29.046875 63.777344 Z M 33.328125 55.949219 C 33.425781 55.851562 34.238281 55.628906 35.152344 55.457031 C 38.152344 54.941406 40.195312 54.425781 40.34375 54.203125 C 40.417969 54.078125 40.863281 53.882812 41.304688 53.785156 C 41.722656 53.710938 42.09375 53.515625 42.09375 53.390625 C 42.09375 53.269531 42.289062 53.167969 42.535156 53.167969 C 42.78125 53.167969 43.152344 52.949219 43.398438 52.675781 C 43.617188 52.40625 43.988281 52.183594 44.183594 52.183594 C 44.382812 52.183594 44.554688 52.085938 44.554688 51.9375 C 44.554688 51.816406 44.726562 51.691406 44.921875 51.691406 C 45.121094 51.691406 45.292969 51.59375 45.292969 51.445312 C 45.292969 51.324219 45.464844 51.199219 45.660156 51.199219 C 45.832031 51.199219 46.105469 51.050781 46.203125 50.878906 C 46.300781 50.707031 46.695312 50.4375 47.089844 50.265625 C 47.457031 50.117188 47.851562 49.722656 47.976562 49.402344 C 48.195312 48.8125 49.574219 47.507812 49.992188 47.507812 C 50.117188 47.507812 50.265625 47.238281 50.363281 46.890625 C 50.4375 46.546875 50.660156 46.277344 50.855469 46.277344 C 51.050781 46.277344 51.199219 46.054688 51.199219 45.785156 C 51.199219 45.515625 51.324219 45.292969 51.445312 45.292969 C 51.59375 45.292969 51.691406 45.121094 51.691406 44.921875 C 51.691406 44.726562 51.789062 44.554688 51.914062 44.554688 C 52.035156 44.554688 52.210938 44.28125 52.28125 43.9375 C 52.382812 43.59375 52.554688 43.324219 52.675781 43.324219 C 52.824219 43.324219 52.921875 43.152344 52.921875 42.953125 C 52.921875 42.757812 53.023438 42.585938 53.144531 42.585938 C 53.367188 42.585938 53.785156 41.648438 54.03125 40.492188 C 54.128906 40.097656 54.277344 39.703125 54.375 39.628906 C 54.574219 39.484375 55.628906 35.027344 55.628906 34.289062 C 55.628906 33.992188 55.753906 33.675781 55.875 33.601562 C 56.171875 33.425781 56.195312 30.226562 55.925781 29.90625 C 55.804688 29.761719 55.558594 28.726562 55.382812 27.570312 C 55.210938 26.414062 54.992188 25.378906 54.890625 25.230469 C 54.792969 25.109375 54.644531 24.566406 54.546875 24.074219 C 54.449219 23.558594 54.277344 23.136719 54.179688 23.136719 C 54.054688 23.136719 53.882812 22.746094 53.808594 22.277344 C 53.710938 21.808594 53.5625 21.414062 53.441406 21.414062 C 53.339844 21.414062 53.121094 21.023438 52.921875 20.554688 C 52.726562 20.085938 52.503906 19.691406 52.382812 19.691406 C 52.28125 19.691406 52.183594 19.542969 52.183594 19.398438 C 52.183594 19.226562 51.9375 18.78125 51.617188 18.414062 C 51.324219 18.042969 50.804688 17.402344 50.484375 16.984375 C 49.425781 15.605469 46.769531 13.195312 44.949219 11.9375 C 43.371094 10.855469 42.4375 10.363281 39.753906 9.207031 C 37.167969 8.097656 30.203125 7.484375 27.445312 8.097656 C 24.515625 8.761719 20.183594 10.558594 20.183594 11.125 C 20.183594 11.226562 19.964844 11.324219 19.691406 11.324219 C 19.445312 11.324219 19.101562 11.542969 18.953125 11.816406 C 18.804688 12.085938 18.535156 12.308594 18.3125 12.308594 C 17.746094 12.308594 13.292969 16.910156 12.011719 18.832031 C 9.402344 22.769531 7.875 27.644531 7.875 31.976562 C 7.875 34.238281 8.617188 37.882812 9.5 39.949219 C 9.847656 40.789062 10.3125 41.945312 10.511719 42.535156 C 10.730469 43.101562 10.976562 43.570312 11.101562 43.570312 C 11.226562 43.570312 11.324219 43.742188 11.324219 43.9375 C 11.324219 44.136719 11.398438 44.308594 11.519531 44.308594 C 11.617188 44.308594 11.839844 44.628906 12.011719 45.046875 C 12.578125 46.300781 16.441406 50.167969 18.558594 51.570312 C 22.105469 53.90625 23.949219 54.621094 30.03125 55.851562 C 31.433594 56.125 33.082031 56.171875 33.328125 55.949219 Z M 33.328125 55.949219 "/>
<path style=" stroke:none;fill-rule:nonzero;fill:rgb(98.039216%,70.588235%,8.235294%);fill-opacity:1;" d="M 27.667969 47.875 C 26.832031 47.703125 25.945312 47.433594 25.699219 47.3125 C 25.425781 47.1875 24.617188 46.769531 23.875 46.398438 C 22.179688 45.539062 20.183594 44.035156 19.421875 43.027344 C 19.101562 42.609375 18.683594 42.117188 18.535156 41.945312 C 18.363281 41.773438 18.214844 41.574219 18.214844 41.5 C 18.214844 41.425781 17.894531 40.8125 17.476562 40.125 C 17.082031 39.433594 16.738281 38.644531 16.738281 38.398438 C 16.738281 38.128906 16.640625 37.90625 16.492188 37.90625 C 16.371094 37.90625 16.246094 37.585938 16.246094 37.21875 C 16.246094 36.847656 16.125 36.40625 15.949219 36.234375 C 15.53125 35.816406 15.558594 28.308594 16 26.660156 C 16.171875 25.945312 16.417969 25.355469 16.542969 25.355469 C 16.640625 25.355469 16.738281 25.082031 16.738281 24.761719 C 16.738281 24.417969 16.886719 24 17.058594 23.828125 C 17.253906 23.65625 17.476562 23.1875 17.574219 22.820312 C 17.648438 22.449219 17.847656 22.152344 17.96875 22.152344 C 18.117188 22.152344 18.214844 21.980469 18.214844 21.785156 C 18.214844 21.585938 18.339844 21.414062 18.460938 21.414062 C 18.609375 21.414062 18.804688 21.21875 18.878906 20.996094 C 19.101562 20.40625 20.800781 18.707031 21.144531 18.707031 C 21.292969 18.707031 21.488281 18.535156 21.5625 18.339844 C 21.660156 18.140625 21.859375 17.96875 22.054688 17.96875 C 22.253906 17.96875 22.398438 17.871094 22.398438 17.773438 C 22.398438 17.648438 22.84375 17.425781 23.382812 17.253906 C 23.902344 17.109375 24.515625 16.8125 24.714844 16.589844 C 24.933594 16.394531 25.992188 16 27.101562 15.703125 C 28.847656 15.285156 29.660156 15.210938 32.960938 15.3125 C 36.824219 15.433594 36.949219 15.457031 40 16.6875 C 42.117188 17.550781 44.382812 19.347656 45.933594 21.441406 C 46.574219 22.300781 46.769531 22.84375 46.769531 23.605469 C 46.769531 24.320312 46.671875 24.617188 46.398438 24.617188 C 46.203125 24.617188 45.859375 24.8125 45.613281 25.082031 C 45.367188 25.328125 44.875 25.601562 44.480469 25.699219 C 44.109375 25.796875 43.59375 26.066406 43.347656 26.3125 C 43.101562 26.558594 42.484375 26.90625 41.992188 27.078125 C 41.5 27.226562 41.007812 27.519531 40.910156 27.742188 C 40.789062 27.964844 40.195312 28.160156 39.53125 28.234375 C 38.375 28.382812 38.324219 28.355469 36.972656 27.003906 C 35.496094 25.574219 33.574219 24.617188 32.097656 24.617188 C 31.066406 24.617188 29.734375 25.082031 29.292969 25.601562 C 29.09375 25.847656 28.703125 26.09375 28.457031 26.140625 C 27.789062 26.238281 26.09375 29.488281 25.921875 31.015625 C 25.773438 32.320312 26.4375 35.445312 26.855469 35.445312 C 26.976562 35.445312 27.078125 35.59375 27.078125 35.789062 C 27.078125 36.257812 28.355469 37.316406 29.882812 38.078125 C 30.964844 38.621094 31.335938 38.695312 32.789062 38.574219 C 33.820312 38.472656 34.609375 38.277344 34.855469 38.054688 C 35.050781 37.832031 35.398438 37.660156 35.59375 37.660156 C 35.789062 37.660156 35.9375 37.5625 35.9375 37.414062 C 35.9375 37.292969 36.085938 37.167969 36.257812 37.167969 C 36.652344 37.167969 37.660156 36.160156 37.660156 35.765625 C 37.660156 35.617188 37.90625 35.445312 38.226562 35.347656 C 39.605469 34.976562 40.171875 35.199219 43.050781 37.195312 C 46.300781 39.484375 46.523438 39.703125 46.523438 40.6875 C 46.523438 41.847656 44.160156 44.800781 43.226562 44.800781 C 43.078125 44.800781 42.78125 45.023438 42.585938 45.292969 C 42.386719 45.5625 42.09375 45.785156 41.894531 45.785156 C 41.722656 45.785156 41.058594 46.054688 40.417969 46.375 C 39.777344 46.695312 38.820312 47.089844 38.277344 47.261719 C 37.734375 47.433594 37.242188 47.65625 37.167969 47.753906 C 36.921875 48.125 29.21875 48.222656 27.667969 47.875 Z M 27.667969 47.875 "/>
<path style=" stroke:none;fill-rule:nonzero;fill:rgb(99.607843%,83.529412%,15.686275%);fill-opacity:1;" d="M 30.253906 56.738281 C 30.179688 56.6875 29.636719 56.566406 29.023438 56.492188 C 27.472656 56.320312 26.804688 56.195312 25.894531 55.902344 C 25.453125 55.777344 25.082031 55.65625 25.035156 55.679688 C 25.007812 55.679688 24.542969 55.558594 24 55.410156 C 22.5 55.015625 20.0625 53.785156 17.820312 52.28125 C 15.703125 50.90625 11.839844 47.039062 11.273438 45.785156 C 11.101562 45.367188 10.878906 45.046875 10.78125 45.046875 C 10.660156 45.046875 10.585938 44.921875 10.585938 44.773438 C 10.585938 44.628906 10.414062 44.355469 10.214844 44.160156 C 10.019531 43.9375 9.847656 43.570312 9.847656 43.296875 C 9.847656 43.050781 9.722656 42.832031 9.574219 42.832031 C 9.453125 42.832031 9.402344 42.730469 9.476562 42.585938 C 9.550781 42.460938 9.5 42.339844 9.355469 42.339844 C 9.207031 42.339844 9.15625 42.238281 9.230469 42.09375 C 9.304688 41.96875 9.253906 41.847656 9.082031 41.847656 C 8.910156 41.847656 8.863281 41.773438 8.933594 41.699219 C 9.007812 41.601562 8.960938 41.304688 8.8125 41.007812 C 8.640625 40.738281 8.492188 40.417969 8.46875 40.320312 C 8.441406 40.195312 8.394531 40.074219 8.371094 40 C 8.296875 39.828125 8.269531 39.777344 7.902344 38.03125 C 7.730469 37.21875 7.507812 36.457031 7.433594 36.332031 C 7.066406 35.71875 7.039062 29.734375 7.382812 27.9375 C 7.53125 27.273438 7.582031 26.585938 7.53125 26.414062 C 7.457031 26.265625 7.484375 26.09375 7.582031 26.042969 C 7.804688 25.945312 8.984375 22.375 8.960938 21.980469 C 8.933594 21.808594 9.007812 21.660156 9.15625 21.660156 C 9.378906 21.660156 9.992188 20.210938 9.894531 19.890625 C 9.871094 19.765625 9.96875 19.691406 10.117188 19.691406 C 10.238281 19.691406 10.289062 19.59375 10.214844 19.445312 C 10.140625 19.324219 10.167969 19.199219 10.3125 19.199219 C 10.585938 19.199219 11.496094 17.992188 11.617188 17.5 C 11.667969 17.328125 12.675781 16.171875 13.882812 14.941406 C 15.113281 13.6875 16.074219 12.601562 16.050781 12.480469 C 16.023438 12.382812 16.171875 12.308594 16.371094 12.308594 C 16.542969 12.308594 16.8125 12.160156 16.910156 11.964844 C 17.007812 11.765625 17.328125 11.570312 17.601562 11.519531 C 17.871094 11.472656 18.066406 11.273438 18.019531 11.125 C 17.992188 10.953125 18.3125 10.757812 18.707031 10.660156 C 19.125 10.585938 19.398438 10.460938 19.324219 10.386719 C 19.152344 10.191406 21.785156 8.886719 23.730469 8.222656 C 26.4375 7.285156 28.847656 6.941406 32.125 7.039062 C 35.027344 7.113281 35.691406 7.1875 36.921875 7.507812 C 37.269531 7.582031 37.808594 7.703125 38.152344 7.777344 C 39.164062 7.976562 40.46875 8.417969 40.8125 8.6875 C 40.960938 8.8125 41.109375 8.863281 41.109375 8.761719 C 41.109375 8.492188 44.355469 10.238281 45.957031 11.371094 C 47.558594 12.503906 50.238281 14.964844 51.226562 16.246094 C 51.542969 16.664062 52.0625 17.304688 52.355469 17.675781 C 52.675781 18.042969 52.921875 18.484375 52.921875 18.660156 C 52.921875 18.804688 53.023438 18.953125 53.121094 18.953125 C 53.242188 18.953125 53.464844 19.347656 53.660156 19.816406 C 53.859375 20.28125 54.078125 20.675781 54.179688 20.675781 C 54.351562 20.675781 54.769531 21.882812 54.695312 22.226562 C 54.671875 22.324219 54.746094 22.398438 54.867188 22.398438 C 54.992188 22.398438 55.1875 22.769531 55.285156 23.210938 C 55.53125 24.222656 55.507812 24.171875 55.703125 24.617188 C 55.804688 24.8125 55.902344 25.207031 55.949219 25.476562 C 56 25.746094 56.125 26.140625 56.195312 26.339844 C 56.34375 26.730469 56.394531 27.273438 56.394531 28.355469 C 56.394531 28.726562 56.492188 29.09375 56.617188 29.167969 C 56.960938 29.367188 56.933594 34.140625 56.589844 34.339844 C 56.441406 34.4375 56.417969 34.804688 56.492188 35.199219 C 56.566406 35.570312 56.542969 35.964844 56.417969 36.035156 C 56.269531 36.109375 56.222656 36.40625 56.296875 36.675781 C 56.371094 36.949219 56.320312 37.167969 56.171875 37.167969 C 56.023438 37.167969 55.976562 37.390625 56.050781 37.660156 C 56.125 37.933594 56.074219 38.152344 55.925781 38.152344 C 55.777344 38.152344 55.730469 38.375 55.804688 38.644531 C 55.875 38.917969 55.804688 39.136719 55.65625 39.136719 C 55.53125 39.136719 55.457031 39.285156 55.53125 39.484375 C 55.605469 39.65625 55.507812 39.976562 55.3125 40.148438 C 55.136719 40.34375 55.015625 40.640625 55.089844 40.8125 C 55.136719 40.960938 55.066406 41.109375 54.890625 41.109375 C 54.746094 41.109375 54.671875 41.207031 54.769531 41.328125 C 54.941406 41.625 54.152344 43.324219 53.859375 43.324219 C 53.734375 43.324219 53.710938 43.445312 53.785156 43.570312 C 53.859375 43.71875 53.761719 43.890625 53.5625 43.964844 C 53.339844 44.035156 53.242188 44.210938 53.316406 44.332031 C 53.390625 44.457031 53.316406 44.554688 53.167969 44.554688 C 53.023438 44.554688 52.972656 44.675781 53.046875 44.800781 C 53.121094 44.949219 53.023438 45.121094 52.824219 45.195312 C 52.601562 45.269531 52.480469 45.441406 52.554688 45.539062 C 52.628906 45.660156 52.480469 45.859375 52.257812 46.007812 C 52.011719 46.128906 51.839844 46.300781 51.890625 46.375 C 52.035156 46.746094 51.914062 47.015625 51.542969 47.015625 C 51.347656 47.015625 51.226562 47.113281 51.296875 47.238281 C 51.445312 47.457031 51.078125 47.851562 49.773438 48.910156 C 49.304688 49.253906 48.835938 49.820312 48.714844 50.140625 C 48.589844 50.460938 48.171875 50.878906 47.753906 51.050781 C 47.335938 51.226562 47.089844 51.421875 47.164062 51.519531 C 47.261719 51.59375 47.039062 51.742188 46.671875 51.839844 C 46.324219 51.914062 46.105469 52.085938 46.179688 52.210938 C 46.253906 52.332031 46.078125 52.429688 45.785156 52.429688 C 45.488281 52.429688 45.339844 52.554688 45.414062 52.675781 C 45.488281 52.824219 45.339844 52.921875 45.046875 52.921875 C 44.773438 52.921875 44.355469 53.144531 44.136719 53.414062 C 43.890625 53.6875 43.519531 53.90625 43.273438 53.90625 C 43.027344 53.90625 42.832031 54.007812 42.832031 54.128906 C 42.832031 54.253906 42.484375 54.449219 42.042969 54.523438 C 41.625 54.621094 41.109375 54.867188 40.910156 55.039062 C 40.738281 55.238281 40.246094 55.382812 39.851562 55.382812 C 39.457031 55.382812 39.136719 55.457031 39.136719 55.582031 C 39.136719 55.679688 38.71875 55.777344 38.226562 55.804688 C 37.710938 55.828125 37.269531 55.949219 37.21875 56.074219 C 37.195312 56.195312 36.875 56.246094 36.554688 56.171875 C 36.210938 56.125 35.9375 56.171875 35.9375 56.296875 C 35.9375 56.417969 35.570312 56.46875 35.101562 56.417969 C 34.660156 56.371094 34.191406 56.441406 34.117188 56.589844 C 33.945312 56.863281 30.5 56.984375 30.253906 56.738281 Z M 34.265625 47.210938 C 35.472656 47.164062 36.429688 47.066406 36.429688 46.992188 C 36.429688 46.917969 36.898438 46.695312 37.488281 46.523438 C 38.054688 46.351562 39.039062 45.957031 39.679688 45.636719 C 40.320312 45.316406 41.035156 45.046875 41.230469 45.046875 C 41.453125 45.046875 41.550781 44.949219 41.476562 44.800781 C 41.402344 44.675781 41.5 44.554688 41.699219 44.554688 C 41.921875 44.554688 42.09375 44.457031 42.09375 44.332031 C 42.09375 44.210938 42.363281 44.035156 42.683594 43.964844 C 43.273438 43.816406 45.414062 41.625 45.167969 41.402344 C 45.121094 41.328125 45.21875 41.15625 45.414062 41.007812 C 45.980469 40.617188 45.613281 40.246094 42.289062 37.933594 C 39.828125 36.210938 39.359375 35.964844 38.84375 36.160156 C 38.546875 36.28125 38.375 36.40625 38.5 36.40625 C 38.867188 36.429688 37.367188 37.90625 36.996094 37.90625 C 36.800781 37.90625 36.726562 38.03125 36.800781 38.152344 C 36.875 38.300781 36.726562 38.398438 36.457031 38.398438 C 36.183594 38.398438 35.816406 38.574219 35.59375 38.769531 C 35.398438 38.964844 35.003906 39.136719 34.730469 39.136719 C 34.4375 39.136719 34.214844 39.238281 34.214844 39.359375 C 34.214844 39.457031 33.355469 39.53125 32.320312 39.507812 C 30.820312 39.457031 30.128906 39.3125 29.144531 38.820312 C 27.617188 38.054688 26.339844 36.996094 26.339844 36.527344 C 26.339844 36.332031 26.238281 36.183594 26.117188 36.183594 C 25.894531 36.183594 25.625 35.519531 25.425781 34.460938 C 25.378906 34.117188 25.253906 33.773438 25.15625 33.675781 C 25.058594 33.574219 25.035156 32.492188 25.132812 31.285156 C 25.253906 29.441406 25.402344 28.847656 26.066406 27.71875 C 26.484375 26.953125 26.757812 26.339844 26.683594 26.339844 C 26.289062 26.339844 27.421875 25.378906 27.914062 25.304688 C 28.183594 25.253906 28.40625 25.082031 28.382812 24.933594 C 28.28125 24.417969 30.644531 23.828125 32.441406 23.949219 C 33.355469 24 34.265625 24.097656 34.460938 24.171875 C 35.765625 24.589844 36.457031 25.035156 37.660156 26.214844 C 38.71875 27.273438 39.136719 27.519531 39.558594 27.421875 C 39.875 27.324219 40.074219 27.175781 40 27.078125 C 39.925781 26.953125 40.441406 26.632812 41.15625 26.363281 C 41.871094 26.09375 42.363281 25.871094 42.214844 25.847656 C 41.847656 25.820312 43.617188 24.886719 44.0625 24.863281 C 44.28125 24.863281 44.628906 24.640625 44.875 24.371094 C 45.09375 24.097656 45.464844 23.875 45.660156 23.875 C 46.226562 23.875 46.105469 23.433594 45.195312 22.179688 C 43.273438 19.59375 40.933594 17.921875 37.660156 16.8125 C 36.234375 16.320312 35.863281 16.269531 32.320312 16.125 C 30.179688 16.023438 29.292969 16.074219 29.292969 16.269531 C 29.292969 16.417969 29.121094 16.46875 28.875 16.394531 C 28.382812 16.195312 25.894531 16.886719 25.425781 17.355469 C 25.230469 17.550781 24.640625 17.847656 24.125 17.992188 C 23.582031 18.167969 23.210938 18.386719 23.285156 18.484375 C 23.359375 18.609375 23.1875 18.707031 22.890625 18.707031 C 22.597656 18.707031 22.425781 18.804688 22.523438 18.929688 C 22.597656 19.050781 22.398438 19.25 22.105469 19.347656 C 21.515625 19.519531 19.816406 21.121094 19.816406 21.488281 C 19.816406 21.613281 19.617188 21.832031 19.398438 22.007812 C 19.152344 22.179688 19.027344 22.398438 19.125 22.472656 C 19.199219 22.574219 19.078125 22.695312 18.855469 22.792969 C 18.632812 22.867188 18.535156 23.039062 18.609375 23.164062 C 18.683594 23.285156 18.609375 23.382812 18.460938 23.382812 C 18.3125 23.382812 18.238281 23.484375 18.339844 23.605469 C 18.414062 23.730469 18.3125 24 18.117188 24.195312 C 17.921875 24.394531 17.820312 24.617188 17.894531 24.714844 C 17.992188 24.789062 17.921875 24.863281 17.773438 24.863281 C 17.625 24.863281 17.550781 25.007812 17.625 25.207031 C 17.699219 25.402344 17.601562 25.699219 17.402344 25.871094 C 17.207031 26.042969 17.109375 26.386719 17.179688 26.632812 C 17.230469 26.878906 17.15625 27.078125 17.007812 27.078125 C 16.886719 27.078125 16.8125 27.25 16.886719 27.445312 C 16.984375 27.644531 16.910156 27.816406 16.761719 27.816406 C 16.617188 27.816406 16.566406 28.085938 16.664062 28.554688 C 16.738281 28.972656 16.714844 29.292969 16.589844 29.292969 C 16.46875 29.292969 16.394531 30.375 16.441406 31.679688 C 16.542969 34.683594 16.617188 35.152344 16.960938 36.011719 C 17.109375 36.40625 17.179688 36.800781 17.109375 36.921875 C 17.035156 37.046875 17.082031 37.167969 17.230469 37.21875 C 17.355469 37.242188 17.5 37.515625 17.527344 37.785156 C 17.574219 38.054688 17.921875 38.820312 18.289062 39.484375 C 18.660156 40.148438 18.953125 40.738281 18.953125 40.789062 C 18.953125 40.835938 19.101562 41.035156 19.273438 41.207031 C 19.421875 41.378906 19.839844 41.871094 20.160156 42.289062 C 21.292969 43.789062 24.8125 46.078125 26.90625 46.644531 C 27.003906 46.695312 27.152344 46.746094 27.273438 46.769531 C 27.371094 46.792969 27.542969 46.820312 27.667969 46.792969 C 27.765625 46.769531 28.011719 46.867188 28.210938 47.039062 C 28.382812 47.1875 28.628906 47.261719 28.726562 47.1875 C 28.824219 47.136719 29.144531 47.164062 29.414062 47.285156 C 29.6875 47.382812 30.398438 47.433594 31.015625 47.382812 C 31.628906 47.3125 33.082031 47.238281 34.265625 47.210938 Z M 34.265625 47.210938 "/>
</g>
</svg>
