<?xml version="1.0" standalone="no"?>
<!DOCTYPE svg PUBLIC "-//W3C//DTD SVG 20010904//EN"
 "http://www.w3.org/TR/2001/REC-SVG-20010904/DTD/svg10.dtd">
<svg version="1.0" xmlns="http://www.w3.org/2000/svg"
 width="500.000000pt" height="500.000000pt" viewBox="0 0 500.000000 500.000000"
 preserveAspectRatio="xMidYMid meet">
<metadata>
Created by potrace 1.14, written by Peter Selinger 2001-2017
</metadata>
<g transform="translate(0.000000,500.000000) scale(0.100000,-0.100000)"
fill="var(--SuMDBlack)" stroke="none">
<path d="M1356 4763 c-4 -4 -34 -8 -69 -10 -34 -2 -71 -7 -82 -13 -11 -5 -38
-14 -60 -20 -55 -14 -171 -80 -227 -129 -25 -23 -50 -41 -56 -41 -9 0 -81 -80
-111 -123 -8 -12 -21 -28 -28 -35 -7 -8 -11 -18 -8 -23 4 -5 3 -9 -2 -9 -17 0
-85 -155 -99 -225 -2 -11 -7 -31 -10 -45 -6 -27 -16 -169 -16 -235 0 -34 8
-100 12 -100 2 0 7 -20 15 -59 3 -17 12 -41 20 -55 8 -14 19 -46 25 -69 8 -30
16 -42 25 -39 9 4 30 -28 64 -97 53 -107 115 -187 165 -213 30 -15 43 -25 75
-54 10 -9 25 -19 32 -21 19 -7 -43 -65 -136 -128 -82 -54 -183 -134 -202 -157
-6 -8 -13 -13 -15 -12 -7 5 -110 -56 -142 -83 -11 -10 -23 -18 -27 -18 -8 0
-139 -79 -149 -90 -5 -5 -37 -24 -84 -49 -40 -21 -57 -38 -89 -89 -27 -42 -71
-142 -62 -142 2 0 1 -10 -4 -23 -20 -53 -35 -211 -46 -477 -3 -74 -7 -151 -8
-170 -1 -19 -1 -39 2 -44 5 -11 10 -64 14 -155 3 -59 0 -88 -20 -201 -3 -19
-7 -96 -9 -170 -2 -145 -9 -204 -29 -262 -8 -24 -10 -52 -5 -79 8 -44 8 -53
-4 -81 -8 -16 -2 -348 6 -378 16 -58 60 -117 131 -176 17 -14 98 -25 222 -31
130 -6 135 -6 135 -13 0 -4 21 -7 48 -9 26 -1 70 -4 97 -7 28 -2 62 -5 77 -6
30 -2 39 -16 33 -48 -2 -11 0 -20 5 -20 5 0 7 -7 4 -15 -5 -13 137 -15 1247
-15 l1254 0 -50 27 c-28 14 -67 37 -88 50 -21 13 -48 28 -60 34 -12 5 -53 27
-92 50 -38 22 -82 45 -97 52 -16 6 -28 14 -28 18 0 4 -12 10 -26 13 -14 4 -31
11 -37 16 -7 5 -27 21 -44 36 -18 14 -33 32 -33 39 0 7 -15 26 -32 42 -18 16
-34 38 -35 48 -2 11 -4 30 -5 43 -1 12 -9 22 -18 22 -8 0 -33 7 -55 16 -22 8
-48 17 -58 21 -10 3 -16 11 -13 18 2 7 -1 18 -7 24 -6 6 -7 11 -3 11 5 0 4 6
-1 13 -14 17 -26 70 -14 63 5 -3 12 0 14 6 7 18 29 -12 22 -30 -2 -7 2 -30 11
-52 15 -37 43 -57 72 -52 6 2 12 -1 12 -6 0 -5 21 -8 48 -8 38 1 56 -5 97 -33
104 -72 141 -76 370 -45 11 1 23 3 28 3 27 3 93 102 112 169 3 12 10 22 13 22
4 0 9 10 10 23 4 38 8 56 14 62 10 11 -2 99 -22 155 -20 58 -33 127 -22 115 4
-4 7 -10 8 -13 0 -4 4 -14 7 -22 3 -8 14 -39 23 -67 9 -29 19 -53 23 -54 8 -1
241 -1 267 0 16 1 26 13 40 48 10 27 19 50 19 53 7 28 19 67 24 75 3 6 6 15 7
20 5 27 81 240 95 267 7 13 6 18 -3 18 -11 0 -11 2 0 8 7 5 14 17 17 28 2 10
20 66 41 124 20 58 37 110 38 115 1 6 4 15 7 20 6 9 48 136 54 160 3 13 13 42
31 85 8 19 16 44 18 56 2 11 11 37 20 57 8 20 12 37 9 37 -3 0 0 6 6 13 6 8 8
17 4 20 -3 4 -1 7 5 7 7 0 11 3 10 8 -5 15 34 122 42 117 5 -3 7 -43 4 -88 -3
-45 -7 -116 -9 -157 -2 -41 -7 -120 -10 -175 -3 -55 -6 -106 -5 -112 1 -29 0
-42 -5 -128 -3 -49 -7 -222 -9 -382 -2 -261 -1 -293 13 -294 20 -1 401 -1 419
0 10 1 12 193 10 944 l-3 942 -285 1 c-160 1 -290 -3 -297 -8 -6 -5 -15 -24
-19 -41 -3 -18 -11 -38 -16 -44 -6 -7 -8 -13 -5 -13 3 0 -7 -35 -23 -77 -15
-43 -28 -82 -29 -88 -1 -5 -9 -32 -18 -60 -10 -27 -18 -53 -19 -57 -1 -5 -3
-10 -4 -13 -1 -3 -4 -9 -5 -15 -1 -5 -4 -12 -5 -15 -1 -3 -3 -8 -4 -12 -2 -5
-11 -35 -21 -68 -11 -33 -19 -62 -20 -65 0 -3 -3 -10 -7 -16 -4 -6 -9 -21 -12
-35 -2 -13 -9 -37 -16 -54 -6 -16 -13 -37 -15 -46 -2 -9 -20 -66 -40 -125 -20
-60 -38 -116 -40 -124 -2 -8 -28 -88 -57 -178 -58 -174 -57 -173 -86 -87 -6
17 -13 39 -18 50 -4 11 -8 25 -9 30 -1 6 -3 13 -5 18 -1 4 -4 12 -5 17 -1 6
-4 12 -5 15 -1 3 -3 8 -4 13 -6 20 -29 99 -34 112 -3 8 -6 17 -6 20 -3 11 -97
296 -103 310 -3 8 -8 23 -9 32 -2 9 -15 52 -30 95 -32 96 -35 107 -35 110 0 2
-7 22 -15 45 -9 24 -17 50 -19 58 -4 16 -33 106 -42 130 -3 8 -7 20 -8 25 -8
35 -51 151 -58 156 -5 4 -80 6 -168 5 -87 0 -159 1 -159 4 0 3 -17 23 -37 44
-34 35 -118 82 -180 101 -13 3 -23 11 -23 16 0 5 -8 9 -18 9 -10 0 -38 10 -63
22 -24 11 -50 21 -56 21 -7 0 -13 3 -13 7 0 3 -17 12 -37 19 -20 8 -58 26 -85
42 -27 16 -53 29 -58 29 -6 0 -10 4 -10 8 0 4 -26 23 -57 42 -32 19 -59 35
-61 36 -2 1 3 29 11 62 11 49 23 69 63 110 27 28 50 61 51 73 1 13 7 25 13 27
5 2 10 10 10 18 0 9 4 12 10 9 5 -3 18 8 28 24 10 17 21 28 25 25 10 -10 57
97 59 138 2 21 6 38 11 38 4 0 7 9 7 19 0 11 9 40 20 65 10 25 17 46 15 46 -3
0 2 16 10 36 8 20 13 39 10 43 -4 7 -11 62 -20 161 -4 46 -31 137 -48 164 -8
12 -20 42 -28 69 -7 26 -18 47 -23 47 -5 0 -7 3 -3 6 3 3 -3 15 -13 26 -10 12
-22 34 -25 49 -4 16 -11 29 -16 29 -5 0 -9 4 -9 9 0 9 -24 37 -118 139 -45 48
-160 126 -202 136 -3 1 -14 7 -25 12 -11 6 -33 15 -50 19 -30 8 -44 12 -67 18
-7 2 -20 7 -28 10 -32 13 -294 30 -304 20z m-531 -1386 c2 -9 7 -22 10 -27 3
-6 -1 -7 -9 -4 -9 3 -16 12 -16 20 0 8 -4 14 -8 14 -9 0 -31 77 -24 84 5 6 42
-60 47 -87z m2031 -1225 c0 -4 3 -14 7 -22 6 -16 186 -548 191 -565 2 -5 6
-17 9 -25 3 -8 15 -46 28 -85 12 -38 29 -85 37 -103 7 -18 16 -45 18 -59 3
-14 9 -33 13 -42 9 -16 37 -94 51 -143 6 -18 5 -30 -2 -34 -7 -5 -8 -2 -4 5 5
8 0 14 -13 18 -12 3 -21 13 -20 22 4 46 -5 70 -41 111 -22 25 -44 50 -49 57
-6 6 -13 23 -17 37 -3 15 -10 29 -15 32 -5 3 -7 10 -3 15 3 5 1 15 -4 22 -6 7
-12 21 -14 32 -1 11 -5 22 -8 25 -3 3 -16 32 -28 65 -13 33 -28 67 -33 75 -5
8 -15 26 -21 40 -7 14 -17 28 -23 32 -5 4 -6 8 -1 8 5 0 3 7 -4 15 -7 9 -14
56 -17 112 -2 53 -8 102 -13 108 -16 19 -36 89 -35 123 0 17 -3 32 -7 32 -4 0
-4 10 1 23 5 13 6 30 2 38 -7 12 -7 21 -2 46 1 7 16 -5 17 -15z"/>
<path d="M2850 4493 c-30 -7 -71 -15 -90 -19 -19 -3 -41 -11 -47 -16 -7 -6
-13 -7 -13 -3 0 3 -15 -3 -33 -14 -19 -11 -36 -18 -39 -16 -3 3 -11 -1 -18
-10 -7 -8 -19 -15 -26 -15 -8 0 -14 -4 -14 -9 0 -5 -8 -12 -17 -15 -33 -11
-120 -107 -129 -143 -4 -13 -11 -23 -17 -23 -6 0 -8 -3 -4 -6 3 -3 1 -18 -4
-33 -6 -14 -12 -52 -15 -84 -2 -32 -6 -62 -9 -68 -4 -5 -3 -9 2 -9 4 0 9 -19
10 -42 3 -51 51 -150 94 -196 61 -65 243 -182 284 -182 7 0 15 -3 17 -8 3 -6
44 -22 188 -73 19 -7 59 -23 88 -36 29 -12 55 -23 59 -23 3 0 25 -16 49 -35
30 -25 47 -49 58 -83 15 -46 18 -112 5 -112 -4 0 -10 -11 -13 -24 -7 -30 -64
-73 -107 -82 -19 -4 -70 -7 -114 -7 -152 1 -255 71 -269 185 -3 18 -5 35 -7
38 -1 3 -1 9 0 14 4 18 -21 21 -201 20 l-183 0 2 -55 c2 -74 9 -104 42 -175
25 -54 93 -134 157 -184 28 -23 142 -77 189 -90 22 -6 47 -14 55 -18 8 -3 22
-7 30 -8 8 -1 42 -6 75 -12 61 -10 260 -8 305 3 14 4 32 8 40 9 40 6 111 29
116 37 3 5 13 9 23 9 10 0 24 7 31 15 7 8 16 13 20 10 7 -4 101 72 108 88 2 4
10 14 18 22 23 23 63 109 70 151 8 51 8 180 -1 223 -20 100 -98 203 -210 277
-59 39 -181 103 -207 108 -7 2 -24 8 -38 13 -14 6 -70 26 -125 44 -55 19 -102
37 -105 41 -3 4 -21 14 -40 22 -40 17 -93 62 -108 91 -20 40 -17 84 9 140 13
27 76 71 119 82 51 14 175 7 215 -11 36 -17 101 -87 102 -108 1 -23 12 -70 18
-76 8 -9 375 -8 376 1 5 29 4 57 -4 86 -5 18 -10 41 -12 51 -13 67 -86 171
-158 225 -50 38 -154 90 -197 99 -14 3 -45 11 -70 17 -65 16 -265 18 -330 2z"/>
<path d="M4460 3724 c0 -5 -53 -9 -117 -9 l-118 0 -2 -309 -2 -309 -27 -28
c-31 -32 -101 -51 -145 -39 -16 5 -29 6 -29 2 0 -4 -12 7 -27 23 l-28 30 -1
315 -1 315 -137 1 -136 1 3 -336 c3 -296 6 -342 22 -389 30 -86 115 -155 205
-165 19 -3 40 -6 45 -7 6 -1 12 -1 15 0 3 1 26 3 52 5 59 4 135 40 168 79 20
23 40 14 33 -13 -3 -10 0 -28 5 -38 10 -17 22 -19 129 -19 l118 1 1 438 c1
353 -2 439 -13 448 -7 6 -13 8 -13 3z"/>
</g>
</svg>
