<svg class="img-fluid" id="outputsvg" xmlns="http://www.w3.org/2000/svg" style="transform: none; transform-origin: 50% 50%; cursor: move; max-height: none;" width="793" height="793" viewBox="0 0 7930 7930"><g id="lZIEQTe77qA40FnGwcBDHI" fill="rgb(46,40,39)" style="transform: none;"><g><path id="pVRe0CcJB" d="M2003 4397 c-40 -21 -42 -24 -43 -67 0 -53 -32 -125 -84 -193 -52 -68 -106 -171 -106 -202 0 -15 -15 -45 -34 -68 -54 -68 -86 -131 -86 -170 0 -20 12 -71 26 -112 25 -73 25 -77 9 -95 -21 -23 -134 -80 -158 -80 -9 0 -19 -4 -22 -10 -3 -5 -17 -10 -30 -10 -28 0 -45 -26 -45 -69 0 -36 -47 -188 -60 -196 -15 -10 -12 -95 3 -95 7 0 29 -16 47 -35 29 -30 41 -35 70 -33 29 3 40 11 70 55 19 29 38 52 42 53 4 0 21 -44 38 -97 40 -122 68 -163 114 -163 29 0 34 4 40 31 3 17 6 42 6 56 0 47 120 133 186 133 42 0 45 2 93 70 27 39 52 66 56 60 3 -5 37 -10 74 -10 52 0 71 4 83 18 27 30 48 80 48 112 0 35 -37 113 -76 159 -27 33 -43 83 -44 139 0 18 -6 43 -12 55 -20 35 -37 108 -38 158 0 27 -6 51 -14 58 -20 17 -39 133 -37 221 2 41 -1 137 -4 213 l-8 137 -31 -1 c-17 0 -50 -10 -73 -22z"></path><path id="pMZ5dxLmO" d="M5531 3454 c-11 -14 -23 -35 -27 -47 -3 -12 -23 -45 -44 -72 -38 -52 -62 -127 -76 -235 -4 -30 -13 -63 -19 -73 -12 -17 -14 -15 -25 17 -6 20 -15 36 -20 36 -5 0 -23 20 -41 45 -30 41 -36 45 -74 45 -36 0 -49 -6 -81 -38 -22 -21 -48 -54 -59 -74 -18 -34 -18 -43 -7 -108 7 -39 12 -86 12 -105 0 -31 -3 -35 -25 -35 -18 0 -36 -14 -65 -51 l-40 -50 5 -107 c3 -59 4 -142 4 -185 0 -42 5 -93 11 -112 11 -34 13 -35 60 -35 44 0 52 4 73 33 42 57 86 143 107 208 12 35 35 101 52 147 36 95 37 94 64 -40 22 -107 19 -144 -12 -213 -16 -35 -29 -83 -32 -122 l-5 -66 59 5 c37 3 70 0 91 -8 44 -19 108 -18 127 2 33 32 65 102 85 181 12 46 37 118 57 160 20 43 40 89 46 103 l10 25 10 -25 c5 -14 14 -47 20 -75 15 -70 33 -102 64 -109 l26 -7 -7 -102 c-6 -95 -5 -104 14 -129 12 -15 30 -29 40 -33 20 -6 86 -95 120 -163 19 -37 25 -42 57 -42 25 0 42 7 60 27 52 56 89 248 65 335 -11 38 -9 56 15 153 45 187 43 275 -7 339 -16 21 -29 26 -64 26 -24 0 -47 -5 -51 -12 -5 -8 -13 5 -21 32 -6 25 -19 70 -28 100 -8 30 -15 92 -15 137 l0 83 -60 85 -61 85 -53 0 c-44 0 -60 -5 -96 -32 -24 -18 -49 -37 -56 -43 -20 -14 -33 4 -51 71 -22 87 -28 94 -73 94 -30 0 -43 -6 -59 -26z"></path><path id="p12QGNrEo5" d="M2394 3298 c-12 -58 -26 -151 -31 -218 -4 -56 -1 -69 17 -93 18 -22 29 -27 68 -27 28 0 61 8 82 19 19 11 45 24 58 30 18 9 22 18 22 60 0 45 -8 72 -44 150 -6 12 -29 43 -51 67 -34 36 -48 44 -77 44 -33 0 -37 -3 -44 -32z"></path></g></g><g id="l27jKnqoBojzwIzERyHUzqn" fill="rgb(54,48,47)" style="transform: none;"><g><path id="pIYdX6Ezk" d="M2167 4087 c-63 -99 -76 -137 -65 -198 5 -30 16 -61 23 -69 7 -8 16 -44 19 -80 4 -36 7 -74 9 -86 1 -11 8 -28 16 -38 7 -9 15 -35 18 -59 2 -23 5 -53 7 -67 3 -14 5 -28 5 -31 1 -3 15 -24 32 -45 17 -22 42 -60 55 -87 23 -45 24 -48 8 -80 -9 -17 -23 -40 -32 -49 -19 -22 -79 -23 -106 -3 -35 26 -51 17 -104 -61 -41 -59 -57 -74 -71 -69 -28 9 -90 -16 -149 -60 -56 -42 -57 -44 -67 -120 l-7 -50 -27 32 c-17 20 -44 84 -71 164 l-43 131 -24 -25 c-25 -24 -25 -25 -7 -58 12 -24 21 -80 30 -190 14 -180 25 -226 60 -269 23 -26 32 -30 79 -30 33 0 57 5 64 14 7 8 26 18 42 21 40 9 57 38 65 110 4 33 12 63 18 67 5 4 27 -9 48 -28 31 -28 46 -34 81 -34 24 0 47 3 51 7 4 4 26 6 50 4 24 -1 47 2 50 7 3 6 17 54 31 107 35 135 62 182 88 156 6 -6 22 -11 35 -11 23 0 24 -2 17 -47 -11 -86 -17 -217 -10 -261 4 -30 18 -56 43 -84 36 -40 37 -40 93 -34 74 7 125 32 139 67 12 27 9 121 -5 186 -6 27 -3 36 21 57 16 14 32 26 36 26 17 0 89 -74 95 -99 8 -31 26 -51 48 -51 34 0 81 -29 105 -63 22 -32 30 -37 65 -37 22 0 46 4 52 8 15 10 63 138 63 168 0 23 -44 93 -103 166 -37 46 -77 119 -77 141 0 22 -48 57 -78 57 -15 1 -42 14 -62 30 -38 33 -72 37 -133 16 -36 -13 -39 -13 -46 7 -5 12 -12 51 -16 86 -10 84 -26 120 -70 154 -20 16 -57 60 -82 98 -34 51 -52 69 -68 69 -19 0 -28 15 -58 88 -38 92 -57 190 -57 294 0 73 -10 88 -57 88 -28 0 -37 -7 -66 -53z m341 -860 c38 -53 60 -100 69 -149 4 -22 0 -30 -18 -39 -13 -5 -40 -19 -59 -30 -47 -26 -65 -24 -90 8 -16 21 -20 36 -16 63 3 19 9 62 14 95 18 117 21 126 43 115 10 -6 36 -34 57 -63z"></path><path id="pWOf821uq" d="M5941 3999 c-13 -17 -34 -56 -47 -87 -20 -50 -27 -57 -53 -60 -35 -4 -38 -9 -52 -120 l-11 -88 34 -74 35 -74 -71 -70 c-40 -39 -85 -81 -101 -92 -30 -22 -30 -22 -12 -52 9 -16 17 -38 17 -48 0 -13 11 -7 41 25 56 58 117 101 145 101 17 0 38 -20 84 -85 33 -47 60 -90 60 -95 0 -6 7 -10 15 -10 8 0 15 5 15 11 0 6 21 45 47 86 58 94 67 153 34 243 -20 55 -21 61 -6 96 36 86 -3 339 -63 407 -25 29 -82 22 -111 -14z"></path><path id="p11rapeIBn" d="M1743 3938 c-38 -42 -110 -196 -124 -264 -18 -90 -39 -109 -121 -109 -62 0 -62 0 -85 -40 -12 -22 -23 -52 -23 -66 0 -26 -55 -119 -71 -119 -22 0 -43 -73 -55 -190 -17 -156 -17 -224 -2 -289 11 -50 12 -51 49 -51 21 0 40 4 44 10 3 5 9 39 14 76 7 59 12 71 43 100 34 31 35 34 19 48 -10 9 -23 16 -29 16 -14 0 -16 26 -2 35 13 8 60 160 60 196 0 43 17 69 45 69 13 0 27 5 30 10 3 6 14 10 23 10 9 0 43 13 74 29 114 56 120 72 77 197 l-31 93 32 55 c17 31 47 72 65 92 28 29 34 43 32 75 -1 33 -5 39 -22 39 -12 0 -31 -10 -42 -22z"></path><path id="pb2ugaND1" d="M5213 3427 c-24 -35 -55 -69 -70 -76 -16 -7 -39 -18 -53 -25 -14 -6 -36 -29 -50 -50 l-25 -39 -3 29 c-7 86 -11 94 -44 94 -30 0 -57 -20 -192 -142 -11 -10 -30 -18 -42 -18 -16 0 -45 -26 -98 -86 -98 -112 -99 -131 -10 -257 l34 -47 -45 -68 c-36 -54 -45 -75 -45 -110 0 -52 22 -93 62 -117 50 -29 66 -67 60 -141 l-5 -64 35 0 c26 0 42 8 68 35 37 38 50 43 50 20 0 -29 42 -100 79 -132 51 -46 103 -46 131 0 11 17 20 47 20 66 0 32 -1 33 -18 18 -48 -44 -67 -12 -68 118 -1 50 -3 126 -5 169 l-5 80 38 48 c21 26 41 48 44 48 22 0 75 -34 97 -61 17 -21 27 -28 28 -19 0 8 2 27 3 42 1 24 -3 29 -31 34 -43 8 -48 17 -49 89 -1 33 -6 78 -12 100 -10 37 -9 44 18 85 28 43 79 90 98 90 5 0 23 -20 41 -45 18 -25 36 -45 41 -45 5 0 12 -11 16 -26 9 -36 37 -27 45 16 4 19 16 60 27 90 42 114 38 175 -20 298 -28 60 -30 62 -66 62 -34 0 -40 -5 -79 -63z"></path><path id="pgSs8qiJN" d="M5747 2703 c-4 -3 -7 -18 -7 -33 0 -14 -18 -81 -40 -148 -29 -87 -40 -138 -40 -181 0 -41 -8 -82 -26 -128 -15 -37 -29 -87 -31 -110 l-5 -43 34 0 c38 0 68 27 128 113 18 26 35 47 37 47 2 0 8 -11 13 -25 9 -23 14 -25 77 -24 38 0 76 4 86 8 20 7 21 6 -62 81 -28 26 -32 35 -27 62 3 17 6 56 6 88 0 48 3 59 18 62 11 3 31 21 46 41 21 27 25 40 18 53 -9 15 -11 15 -22 -7 -7 -13 -21 -34 -32 -46 -17 -18 -24 -20 -47 -10 -35 15 -50 34 -61 82 -27 107 -33 125 -45 125 -6 0 -15 -3 -18 -7z"></path><path id="pGo81GACW" d="M5307 2449 c-10 -23 -40 -63 -67 -89 -95 -93 -124 -163 -147 -362 l-5 -48 36 0 c22 0 36 -5 36 -12 0 -17 -46 -237 -59 -285 -6 -21 -11 -53 -11 -70 0 -30 3 -33 29 -33 22 0 44 14 89 59 33 32 65 68 71 79 6 11 11 53 11 92 0 42 6 82 14 98 22 42 86 99 137 121 35 16 50 29 62 58 19 46 37 131 37 180 l0 37 -20 -22 c-26 -27 -33 -27 -87 -1 -42 20 -56 21 -112 3 -23 -7 -24 -6 -17 32 4 21 17 59 28 84 11 25 24 62 28 83 7 33 5 37 -14 37 -15 0 -26 -11 -39 -41z"></path><path id="p1HDxnnXT5" d="M2096 1654 c-25 -66 43 -210 154 -325 58 -60 71 -69 121 -79 31 -7 69 -10 83 -6 44 11 36 68 -24 176 -28 50 -60 116 -73 148 -18 45 -28 58 -48 60 -13 2 -50 12 -81 23 -71 24 -124 25 -132 3z"></path></g></g><g id="l1ljzl9xiF7Xn1Z7MwDJTYC" fill="rgb(63,56,55)" style="transform: none;"><g><path id="pWPM6A0Ee" d="M2115 5871 c-13 -27 -30 -51 -37 -53 -19 -7 -22 -133 -4 -218 18 -83 56 -168 92 -201 13 -13 24 -27 24 -34 0 -11 96 -108 144 -143 31 -24 85 -29 104 -10 21 21 13 74 -25 153 l-37 78 1 138 c0 105 -3 139 -12 139 -29 0 -155 146 -155 179 0 17 -6 21 -35 21 -31 0 -37 -4 -60 -49z"></path><path id="p11eQWWwYB" d="M5282 5778 c-11 -29 -34 -82 -51 -118 -51 -108 -35 -207 49 -303 28 -33 37 -37 80 -37 l47 0 32 60 c54 101 71 164 78 292 l6 118 -52 0 c-38 0 -60 6 -78 20 -14 11 -41 20 -59 20 -30 0 -34 -4 -52 -52z"></path><path id="p8oW7NUiU" d="M2222 4709 c-50 -32 -73 -56 -109 -112 -73 -115 -88 -127 -149 -127 -49 0 -55 -3 -83 -37 -35 -42 -51 -88 -51 -145 0 -21 -8 -52 -18 -70 -10 -18 -26 -55 -35 -81 -9 -26 -30 -65 -47 -87 -54 -68 -80 -141 -80 -226 0 -66 2 -75 18 -72 9 2 33 33 52 70 20 37 47 80 62 95 14 15 40 53 56 85 17 31 48 78 68 105 50 65 88 150 89 198 0 37 3 42 43 62 l43 23 0 -53 c3 -270 6 -385 13 -404 10 -31 31 -19 50 27 8 21 31 64 51 95 35 55 37 56 56 39 16 -14 24 -15 44 -6 21 10 25 19 25 51 0 30 -5 41 -19 46 -39 12 -42 26 -31 154 5 67 17 138 25 158 21 49 55 189 55 224 0 26 -3 29 -32 29 -21 0 -56 -15 -96 -41z"></path><path id="psBC9SnZ" d="M5980 4008 c0 -24 3 -29 9 -19 27 43 83 -76 100 -211 12 -91 11 -101 -9 -155 l-21 -58 26 -70 c32 -85 29 -105 -31 -202 l-46 -74 4 -117 c3 -84 10 -135 25 -182 12 -36 24 -77 28 -92 7 -35 21 -35 57 -1 35 34 54 26 83 -35 28 -57 45 -54 45 8 0 63 -31 130 -60 130 -13 0 -26 12 -37 35 -15 32 -15 39 1 97 9 35 26 87 38 116 19 50 20 60 10 145 -7 51 -23 133 -38 182 -32 109 -29 171 9 245 18 34 27 68 27 97 0 40 -4 50 -36 77 -20 17 -55 50 -78 74 -32 32 -49 42 -74 42 -29 0 -32 -3 -32 -32z"></path><path id="p5agVqxeX" d="M5756 3947 c-16 -12 -18 -22 -12 -75 8 -71 -6 -108 -54 -142 -27 -19 -39 -21 -98 -16 -37 4 -122 9 -188 12 l-122 5 -20 -78 c-23 -85 -40 -253 -26 -253 5 0 18 14 29 30 11 16 23 30 27 30 11 0 66 -121 74 -165 10 -49 8 -65 -18 -135 -30 -82 -39 -139 -29 -175 10 -36 3 -58 -69 -230 -23 -55 -55 -140 -72 -190 -29 -89 -62 -154 -125 -250 -65 -99 -54 -93 -101 -54 -37 31 -55 60 -94 157 -7 17 -17 32 -22 32 -5 0 -33 -26 -62 -57 l-53 -58 6 61 c7 71 -9 110 -59 145 -82 57 -84 81 -14 183 31 46 56 87 56 91 0 4 -15 24 -33 46 -19 21 -46 61 -60 88 l-27 48 76 87 c51 58 82 86 97 86 12 0 36 12 53 28 18 15 59 51 92 79 57 50 60 52 66 30 6 -22 6 -22 22 -2 13 16 15 38 9 120 -9 157 -9 155 -61 155 -27 0 -47 -5 -49 -13 -4 -8 -20 -11 -49 -9 l-44 4 -57 -86 c-31 -47 -60 -86 -65 -86 -4 0 -11 -11 -14 -25 -4 -14 -13 -25 -20 -25 -32 0 -43 -29 -50 -126 -6 -75 -13 -108 -31 -138 -12 -23 -30 -65 -40 -93 -9 -29 -21 -55 -26 -59 -5 -3 -21 -28 -35 -56 -19 -38 -25 -64 -24 -102 4 -80 2 -84 -19 -58 -15 17 -30 22 -68 22 l-50 0 -49 -102 -49 -103 3 -135 c2 -90 7 -137 15 -142 20 -13 71 -8 91 7 11 8 31 15 44 15 15 0 36 14 58 38 l34 39 36 -33 35 -34 -44 -72 c-37 -61 -50 -74 -84 -85 -38 -13 -41 -17 -52 -70 -6 -31 -11 -74 -11 -95 0 -38 0 -38 39 -38 22 0 43 5 47 11 5 8 10 6 16 -5 13 -23 86 -56 124 -56 26 0 44 13 113 85 45 47 89 100 96 118 8 18 14 30 15 27 0 -3 9 -35 19 -72 19 -66 19 -66 -1 -99 -11 -19 -51 -68 -87 -109 -37 -41 -78 -90 -90 -108 -25 -36 -51 -148 -51 -219 0 -42 0 -43 35 -43 24 0 53 12 93 39 31 21 81 51 111 67 30 16 67 45 82 64 16 20 55 48 90 65 72 34 139 109 164 184 9 27 23 55 31 61 7 7 14 28 14 46 l0 35 -31 -16 c-17 -9 -33 -14 -36 -11 -3 3 1 22 9 43 8 21 16 60 17 88 3 63 44 138 117 210 44 45 85 112 106 175 3 8 1 29 -4 45 -4 17 -20 86 -34 153 l-25 124 49 101 c27 56 52 124 56 152 15 107 39 180 76 230 20 27 42 64 49 82 17 42 48 70 62 56 6 -6 20 -42 30 -79 10 -37 23 -72 28 -77 12 -12 69 30 154 115 79 81 81 92 33 191 -30 64 -32 72 -24 130 11 81 18 103 28 87 14 -22 44 -6 58 32 13 34 13 41 -5 75 -19 36 -23 38 -74 41 -34 2 -61 -2 -73 -11z"></path><path id="p1ADDE3BZs" d="M2440 3734 c-25 -15 -53 -34 -62 -42 -24 -20 -23 -52 1 -52 11 0 35 -25 64 -69 25 -38 64 -83 85 -101 43 -34 60 -74 66 -155 4 -59 30 -125 48 -125 8 0 24 7 36 16 49 34 77 34 116 2 l36 -29 0 71 c0 63 -4 76 -30 116 l-31 44 25 72 c31 91 42 178 27 207 -15 28 -80 29 -104 3 -10 -10 -17 -22 -17 -27 0 -4 -10 -23 -21 -42 -27 -43 -34 -34 -52 64 l-12 68 -65 3 c-55 2 -72 -2 -110 -24z"></path><path id="pNvFeNF0m" d="M3279 3498 c-7 -18 -42 -71 -77 -116 -37 -49 -66 -98 -69 -117 l-5 -32 -37 38 c-30 33 -42 39 -76 39 -24 0 -50 -8 -65 -20 -14 -11 -30 -20 -37 -20 -6 0 -21 -13 -32 -29 -23 -32 -28 -75 -9 -69 15 5 58 -31 58 -49 0 -22 40 -95 77 -141 19 -23 49 -64 67 -90 l32 -48 -23 -64 c-33 -91 -54 -101 -93 -43 -24 34 -71 63 -105 63 -22 0 -45 24 -45 46 0 19 -104 124 -122 124 -6 0 -33 -17 -60 -37 l-50 -38 7 -49 c3 -27 10 -57 16 -67 12 -24 11 -73 -2 -102 -18 -40 -120 -77 -147 -55 -11 10 -13 5 -10 -23 2 -27 10 -37 37 -51 70 -35 84 -58 89 -147 l5 -81 36 -6 c55 -9 71 -15 71 -25 0 -5 15 -9 33 -9 29 0 39 8 73 53 l39 52 55 -3 c58 -3 80 11 80 51 0 31 25 47 77 47 26 0 68 9 92 20 24 11 52 20 62 20 11 0 37 11 59 25 39 25 40 26 40 84 l0 59 100 -1 100 -2 42 42 42 43 4 97 c3 94 2 100 -28 155 -20 37 -41 61 -60 70 -34 15 -35 17 -15 44 9 13 14 44 15 94 l0 76 -55 54 c-40 39 -56 64 -61 90 -11 70 -19 80 -68 80 -40 0 -45 -3 -57 -32z"></path><path id="pCeh76XXl" d="M1547 3071 c-25 -38 -49 -71 -54 -74 -6 -4 -23 7 -38 23 -16 17 -34 30 -41 30 -6 0 -26 -16 -43 -35 -24 -27 -31 -46 -32 -78 -2 -100 -30 -124 -48 -42 -8 35 -18 55 -27 55 -11 0 -14 -20 -14 -97 0 -134 3 -143 50 -143 36 0 39 3 60 52 l22 52 14 -27 c12 -22 21 -27 54 -27 32 0 43 6 63 33 14 17 35 56 47 85 20 47 40 68 40 42 0 -5 10 -10 23 -10 22 0 23 3 19 68 -3 65 -25 146 -42 157 -5 3 -29 -26 -53 -64z"></path><path id="p1GAa79Zmg" d="M3934 2789 c-46 -23 -54 -56 -53 -220 1 -85 5 -166 10 -181 4 -17 2 -45 -7 -74 -8 -26 -14 -87 -14 -136 l0 -88 34 0 c48 0 65 31 73 131 6 74 9 85 43 128 55 70 60 83 60 168 -1 74 -14 146 -41 223 -6 19 -13 41 -15 48 -4 14 -60 15 -90 1z"></path><path id="pxll4LF5V" d="M6203 2573 c-44 -158 -47 -178 -30 -222 10 -23 17 -54 17 -69 0 -40 -38 -172 -61 -209 -31 -49 -46 -49 -73 5 -13 26 -37 65 -53 87 -29 39 -31 40 -93 40 l-64 0 -14 49 -14 48 -29 -28 c-19 -18 -26 -31 -19 -39 5 -6 14 -35 21 -64 10 -47 15 -55 67 -89 54 -36 58 -40 74 -103 30 -122 56 -149 131 -135 64 12 140 125 172 256 7 30 27 108 44 173 39 147 40 215 6 285 -20 41 -30 52 -48 52 -19 0 -26 -8 -34 -37z"></path><path id="pmqarh19k" d="M5464 2065 c-4 -8 -27 -24 -53 -35 -50 -23 -115 -80 -137 -122 -8 -16 -14 -56 -14 -98 0 -39 -5 -81 -11 -92 -16 -30 -131 -140 -125 -120 20 72 20 70 -14 32 -47 -49 -80 -117 -80 -161 0 -37 1 -39 33 -39 39 0 52 9 182 118 110 94 170 154 190 192 7 14 29 50 49 80 40 60 46 106 21 154 -8 15 -15 46 -15 67 0 39 -15 53 -26 24z"></path><path id="pvjlwpw80" d="M1646 2025 c-9 -21 -16 -58 -16 -84 0 -50 -13 -71 -42 -71 -15 0 -18 -9 -18 -64 0 -35 7 -80 15 -100 14 -32 19 -36 53 -36 43 0 162 -53 162 -72 0 -6 -5 -26 -11 -43 -9 -24 -8 -52 5 -128 21 -124 29 -141 79 -163 22 -10 58 -33 80 -51 27 -23 49 -33 73 -33 l34 0 0 49 c0 38 6 56 25 79 29 34 34 96 11 140 -7 15 -16 43 -20 62 -5 31 -2 28 33 -31 49 -81 186 -239 208 -239 8 0 31 -10 51 -22 44 -27 179 -39 193 -17 15 24 10 95 -11 140 -11 24 -20 60 -20 80 0 20 -14 67 -31 104 -28 62 -30 72 -20 111 17 65 14 118 -7 137 -26 24 -74 22 -90 -3 -17 -27 -53 -25 -85 4 -62 58 -96 77 -143 82 -56 6 -60 4 -97 -53 -22 -35 -27 -54 -27 -103 0 -33 7 -77 16 -98 16 -39 12 -37 -25 13 -12 17 -56 65 -97 107 l-74 77 0 104 c0 135 -6 143 -112 152 l-77 7 -15 -37z m573 -411 c18 -8 45 -14 58 -14 20 0 28 -8 41 -42 16 -42 58 -126 111 -221 21 -39 24 -49 12 -56 -25 -16 -101 15 -148 61 -79 77 -179 243 -168 279 7 21 28 19 94 -7z"></path></g></g><g id="l6zlcPivhaEYYc5bSyJzL1E" fill="rgb(69,62,61)" style="transform: none;"><g><path id="p6ADZZw7k" d="M2430 6579 c-32 -20 -39 -21 -85 -10 -81 20 -154 25 -171 10 -22 -18 -73 -134 -89 -204 -21 -90 -39 -259 -39 -360 2 -153 15 -285 30 -285 7 0 15 14 19 30 4 17 11 30 16 30 5 0 21 24 36 53 24 46 28 49 31 27 6 -40 129 -180 158 -180 8 0 14 -7 14 -15 0 -8 6 -15 13 -15 10 0 19 32 31 103 10 56 22 116 27 132 6 17 12 83 14 148 5 137 28 246 79 367 26 61 36 99 36 137 l0 53 -42 0 c-26 0 -57 -8 -78 -21z"></path><path id="pzSMxt8T2" d="M5566 4318 c10 -80 9 -551 -1 -608 l-7 -35 64 0 c110 0 162 57 156 172 -2 48 1 66 12 73 43 28 82 -3 98 -77 l8 -38 14 40 c19 58 45 106 75 138 26 27 28 27 46 11 18 -16 19 -16 19 14 0 51 -9 62 -50 62 -24 0 -43 -7 -55 -20 -18 -19 -18 -19 -47 5 -39 33 -84 33 -119 -1 l-27 -26 -25 54 c-27 56 -72 207 -82 271 -6 36 -7 37 -47 37 l-41 0 9 -72z"></path><path id="pvEhcrxI7" d="M2275 4154 c20 -15 20 -15 1 -30 -11 -8 -24 -14 -30 -14 -6 0 -5 -5 2 -12 7 -7 12 -39 12 -76 0 -104 19 -202 57 -294 37 -90 55 -106 83 -73 7 8 36 28 65 45 57 33 112 39 121 15 4 -8 12 -15 20 -15 21 0 17 59 -7 118 l-21 50 -84 7 -84 7 0 75 c0 82 -11 113 -39 113 -22 0 -31 19 -31 66 0 33 -1 34 -42 34 -41 -1 -42 -1 -23 -16z"></path><path id="pFadYSgbT" d="M1627 3846 c-10 -24 -31 -64 -47 -90 -27 -41 -33 -46 -67 -46 -33 0 -47 -9 -99 -59 -57 -55 -62 -63 -68 -115 -4 -31 -16 -86 -27 -124 -18 -64 -26 -142 -13 -142 10 0 62 56 88 95 14 21 26 50 26 64 0 40 42 107 66 103 10 -1 35 -5 54 -8 53 -9 92 34 109 120 7 36 21 82 31 101 10 19 13 35 8 35 -6 0 -8 23 -6 55 3 50 1 55 -17 55 -14 0 -25 -13 -38 -44z"></path><path id="pDYA9g8Cr" d="M3217 3727 c-18 -18 -51 -59 -75 -91 l-43 -57 -22 33 c-22 32 -25 33 -95 34 -64 0 -76 3 -116 32 -53 39 -116 45 -116 12 0 -12 5 -17 14 -14 37 14 37 -57 1 -163 -33 -94 -32 -125 5 -178 22 -32 30 -55 30 -88 0 -33 6 -49 25 -67 23 -22 25 -22 49 -6 14 9 30 25 36 35 5 11 22 26 37 33 16 8 38 20 49 28 20 12 25 10 58 -20 20 -19 41 -49 46 -66 12 -35 46 -71 58 -60 4 4 7 38 7 74 l0 67 65 85 c36 47 72 100 79 118 24 56 52 36 65 -48 5 -26 21 -51 61 -90 51 -50 55 -58 55 -100 0 -39 -6 -53 -36 -88 -19 -23 -41 -42 -48 -42 -7 0 -30 -11 -50 -25 -27 -18 -44 -23 -66 -18 -22 4 -30 2 -30 -9 0 -19 20 -37 35 -32 6 3 18 -2 25 -11 13 -16 40 -21 40 -6 0 4 16 29 36 55 32 42 38 46 52 34 10 -8 29 -20 45 -28 16 -8 41 -37 58 -69 28 -51 30 -62 26 -124 -4 -63 -7 -72 -43 -108 -28 -29 -45 -38 -60 -35 -12 3 -24 3 -28 -1 -10 -10 -86 -4 -119 9 -39 15 -48 -1 -40 -73 l6 -57 -39 -25 c-22 -13 -52 -27 -69 -30 -16 -3 -51 -13 -77 -23 -47 -18 -47 -18 -76 3 l-30 22 -12 -29 c-7 -17 -16 -30 -21 -30 -5 0 -9 -10 -9 -23 0 -37 -23 -61 -53 -55 -24 5 -27 2 -27 -23 0 -26 3 -28 55 -34 31 -4 59 -5 62 -1 4 3 22 -21 41 -55 36 -65 58 -79 122 -79 30 0 40 5 45 20 3 11 9 20 13 19 4 0 25 -26 47 -57 38 -53 40 -59 30 -93 -5 -19 -24 -52 -41 -72 -31 -38 -31 -38 -37 -194 -6 -149 -5 -158 15 -187 29 -41 37 -46 78 -46 29 0 44 8 83 48 54 55 60 86 26 141 l-21 35 51 49 c44 41 51 54 51 86 0 20 -7 46 -15 57 -22 29 -18 34 24 34 23 0 48 8 62 19 23 19 24 19 52 -5 18 -15 41 -24 62 -24 32 0 35 3 45 43 6 23 30 86 53 140 37 89 42 97 54 81 8 -10 16 -35 20 -56 4 -27 11 -38 23 -38 24 0 55 116 46 173 -4 23 -9 100 -12 170 -5 141 4 174 54 196 20 10 24 9 29 -9 9 -34 23 -11 23 38 0 31 -7 55 -20 72 -30 38 -25 67 18 106 110 101 108 99 116 207 l7 87 -44 0 c-41 0 -48 4 -100 59 -54 56 -57 62 -57 110 0 49 -1 51 -27 51 -28 0 -126 26 -155 41 -10 5 -32 9 -50 9 -17 0 -52 10 -76 21 -37 18 -55 21 -110 16 -55 -6 -70 -3 -99 14 -25 16 -33 28 -33 50 0 43 -37 116 -63 123 -50 13 -79 6 -110 -27z"></path><path id="pEbHvXSeg" d="M4494 3616 c-90 -22 -214 -149 -214 -218 0 -14 18 -62 40 -107 45 -91 47 -101 23 -138 -11 -16 -21 -57 -25 -103 -7 -81 -23 -174 -33 -190 -3 -5 -30 -10 -60 -10 -90 0 -101 -8 -109 -82 -20 -190 -20 -186 7 -251 13 -34 30 -82 38 -107 7 -25 19 -52 26 -61 15 -18 18 -76 3 -81 -14 -4 -24 -89 -16 -132 6 -31 11 -36 36 -36 16 0 45 10 65 21 20 12 39 19 42 15 3 -3 1 -23 -5 -45 -7 -21 -12 -54 -12 -74 0 -23 -11 -51 -33 -83 -64 -92 -66 -100 -73 -273 l-7 -161 40 0 c31 0 45 6 69 33 17 17 36 44 42 60 6 15 19 27 28 27 21 0 157 141 190 196 26 45 34 115 11 95 -16 -13 -94 21 -104 44 -6 18 -64 20 -81 3 -20 -20 -24 -2 -11 61 11 58 13 61 52 74 35 11 47 24 89 92 54 90 54 110 4 160 -18 16 -38 41 -46 53 l-15 24 -45 -56 c-27 -34 -55 -59 -70 -62 -14 -3 -37 -11 -51 -18 -15 -8 -31 -11 -37 -7 -6 3 -12 52 -14 111 l-3 105 49 103 c59 121 73 128 123 56 l32 -46 25 49 c22 43 23 55 14 90 -8 35 -7 47 16 91 14 28 30 53 35 56 5 4 17 30 26 59 10 28 28 70 40 93 18 30 25 63 31 138 7 97 18 126 49 126 8 0 17 10 21 22 4 13 14 28 22 34 12 9 12 16 -6 50 -11 22 -27 73 -35 112 -9 40 -21 79 -27 87 -15 18 -84 18 -156 1z"></path><path id="psrXIjm2E" d="M2293 3058 c-31 -34 -40 -57 -68 -164 -14 -54 -29 -102 -34 -107 -5 -5 -18 -3 -30 5 -18 11 -26 10 -55 -6 -38 -20 -55 -15 -95 28 -24 26 -72 35 -97 18 -7 -4 -15 -34 -18 -67 -9 -72 -26 -101 -65 -110 -16 -3 -35 -13 -42 -21 -19 -23 -55 -16 -82 16 -14 17 -29 30 -32 30 -4 0 -6 -46 -3 -102 3 -96 6 -108 39 -168 34 -63 37 -65 74 -65 34 0 43 6 80 50 37 46 43 61 59 150 25 142 25 145 35 145 11 0 121 -132 121 -145 0 -25 48 -56 96 -61 l49 -6 2 -105 c2 -96 4 -110 34 -166 44 -87 75 -125 104 -129 24 -3 24 -3 7 -38 -9 -19 -48 -65 -87 -102 l-69 -66 -24 24 c-19 19 -35 24 -73 24 -46 0 -50 -2 -79 -44 -31 -46 -39 -100 -24 -175 9 -43 44 -44 44 -1 0 27 41 105 64 121 21 16 75 -14 153 -86 39 -36 57 -42 68 -25 3 6 17 10 31 10 13 0 29 9 36 20 11 18 14 18 30 3 10 -9 18 -22 18 -30 0 -27 39 -13 56 20 20 39 73 97 90 97 19 0 25 37 31 183 l6 137 -29 0 c-33 0 -54 33 -54 85 0 45 -15 60 -110 104 -90 42 -122 68 -139 114 -7 17 -18 27 -31 27 -25 0 -25 10 -1 81 30 88 38 97 99 105 44 5 52 9 46 23 -15 36 -16 167 -2 210 20 58 11 94 -36 142 -45 45 -64 48 -93 17z"></path><path id="p19TtBtqee" d="M5727 2198 c-76 -102 -124 -142 -82 -68 26 45 16 42 -51 -15 -60 -50 -69 -55 -100 -49 l-34 6 0 -49 c0 -28 7 -64 16 -81 17 -35 23 -18 -65 -162 -36 -59 -75 -99 -196 -202 -110 -93 -155 -125 -155 -111 0 6 15 39 34 74 37 71 36 69 77 264 34 162 37 210 13 201 -9 -3 -18 -6 -20 -6 -2 0 -4 -6 -4 -14 0 -7 -7 -19 -14 -26 -8 -6 -22 -34 -31 -61 -25 -75 -92 -150 -164 -184 -35 -17 -74 -45 -90 -65 -15 -19 -52 -48 -82 -64 -30 -16 -80 -46 -111 -67 -32 -22 -60 -39 -63 -39 -3 0 -5 9 -5 19 0 32 -37 14 -44 -21 -3 -16 -15 -42 -26 -58 -15 -21 -20 -44 -20 -90 l0 -63 43 5 c60 7 146 73 286 219 62 66 115 118 117 116 9 -8 -27 -118 -55 -167 -24 -44 -31 -67 -31 -112 l0 -58 48 0 c66 0 113 32 247 171 61 63 128 128 150 146 l40 32 26 -25 c20 -19 35 -25 60 -22 28 3 44 17 106 93 49 60 81 112 99 157 14 37 43 86 64 110 l38 43 25 -23 c20 -19 35 -23 78 -22 30 1 73 -2 97 -6 39 -6 42 -5 35 12 -4 11 -14 46 -23 79 -14 55 -19 62 -70 96 -51 33 -56 41 -70 94 -8 32 -20 60 -27 62 -7 3 -36 -29 -66 -69z"></path><path id="pTVTsLCF0" d="M1566 1768 c-3 -13 -9 -62 -12 -110 l-7 -86 50 -54 c27 -29 60 -69 73 -88 33 -50 91 -109 122 -126 15 -8 44 -14 64 -14 l38 0 -21 20 c-26 23 -30 35 -47 133 -7 42 -9 82 -5 89 5 7 9 34 9 61 l0 47 -62 30 c-35 16 -81 31 -102 32 -36 3 -40 6 -55 46 -17 46 -35 54 -45 20z"></path></g></g><g id="l1TaZwHgkqpqKOoTbpEZYuY" fill="rgb(75,68,66)" style="transform: none;"><g><path id="pGJ5Cm1oj" d="M5381 3897 c-27 -80 -43 -103 -79 -110 -31 -6 -62 -55 -62 -97 0 -32 -49 -219 -66 -253 -11 -20 -19 -26 -26 -19 -14 14 -58 226 -58 279 0 83 -29 122 -92 123 l-38 0 0 -57 c0 -38 -9 -79 -25 -118 -25 -60 -36 -150 -14 -112 16 27 38 20 44 -15 6 -34 11 -149 14 -318 1 -76 4 -91 13 -75 6 11 31 50 55 87 46 71 76 98 104 98 21 0 74 51 95 92 8 16 19 62 23 101 5 40 16 100 26 135 17 60 19 62 51 62 18 0 40 -8 49 -17 14 -13 20 -14 34 -5 32 23 43 25 77 8 43 -20 58 -20 78 0 20 19 21 34 2 34 -20 0 -40 35 -66 115 -36 112 -45 125 -84 125 -33 0 -35 -2 -55 -63z"></path><path id="pjUHkC7uY" d="M2743 3828 c-29 -32 -44 -62 -61 -120 -15 -51 -30 -83 -46 -95 -18 -15 -23 -26 -19 -47 3 -15 12 -30 20 -33 18 -7 55 28 79 75 25 49 44 72 61 72 8 0 41 -19 73 -42 58 -40 60 -41 98 -29 56 19 73 12 107 -41 17 -26 33 -48 37 -48 4 0 14 7 23 17 19 18 14 67 -11 116 -8 15 -18 51 -21 80 -6 47 -37 106 -68 129 -5 4 -60 8 -121 8 l-111 0 -40 -42z"></path><path id="pUMjnkB3H" d="M3476 3765 c-26 -30 -51 -68 -57 -83 -8 -24 -14 -28 -38 -24 -31 4 -30 7 -22 -75 1 -6 17 -21 37 -34 31 -19 45 -21 104 -16 56 5 75 2 107 -14 21 -11 54 -21 73 -21 19 -1 40 -5 45 -9 6 -4 25 -10 42 -14 18 -3 44 -10 58 -15 15 -6 40 -10 56 -10 32 0 33 -2 20 -47 -9 -31 -6 -36 62 -109 67 -72 73 -76 107 -71 l35 4 -5 -61 c-6 -67 -34 -113 -91 -148 -36 -22 -58 -57 -66 -102 -4 -28 0 -44 19 -74 14 -21 29 -58 33 -82 4 -25 12 -54 17 -64 17 -32 37 -128 38 -179 0 -54 -7 -72 -60 -138 -34 -43 -37 -54 -43 -129 -4 -45 -12 -89 -18 -96 -9 -11 -6 -14 18 -14 22 0 52 18 111 65 78 63 87 76 95 135 2 14 9 -9 16 -52 9 -53 18 -78 27 -78 8 0 14 7 14 15 0 8 6 15 13 15 17 0 11 118 -7 140 -7 8 -18 35 -25 60 -8 25 -25 73 -39 108 -25 61 -25 65 -12 130 8 37 14 80 15 96 1 36 30 49 100 44 46 -3 51 -1 63 24 7 16 15 43 17 60 3 18 9 56 14 83 5 28 7 60 4 72 -3 14 8 46 31 87 23 41 32 67 25 71 -6 4 -28 44 -51 88 -29 59 -42 99 -45 142 -3 33 -8 63 -11 66 -14 12 -91 29 -131 29 -23 0 -58 7 -78 15 -53 22 -144 19 -187 -6 -42 -24 -50 -21 -77 34 -22 43 -72 105 -151 190 -43 45 -47 47 -100 47 -53 0 -55 -1 -102 -55z"></path><path id="pNSk1r0Mx" d="M6163 3213 c-33 -86 -53 -163 -55 -208 -1 -50 26 -105 52 -105 47 0 80 -144 59 -253 -10 -48 -10 -62 0 -65 13 -4 61 -98 61 -119 0 -7 8 -13 18 -13 13 0 23 15 35 53 21 65 21 104 3 148 -11 26 -13 79 -11 229 2 107 6 224 10 259 l8 63 -41 -3 c-37 -4 -42 -2 -63 33 -33 53 -50 49 -76 -19z"></path><path id="pq8uWDp3Z" d="M5733 2751 c-34 -54 -116 -253 -134 -324 -11 -46 -35 -107 -54 -138 -19 -31 -39 -81 -45 -110 -6 -30 -19 -71 -28 -93 -15 -37 -15 -39 3 -53 38 -28 109 3 152 66 32 48 62 148 64 216 1 38 14 99 36 165 47 145 57 210 39 255 -8 19 -16 35 -18 35 -2 0 -9 -9 -15 -19z"></path><path id="pGgYvpe53" d="M2350 2706 c0 -8 4 -26 9 -39 6 -14 15 -62 21 -108 11 -82 27 -122 75 -188 14 -19 25 -46 25 -61 0 -17 8 -33 22 -42 16 -11 22 -26 24 -56 1 -23 7 -49 15 -58 10 -13 10 -17 -2 -25 -19 -12 -76 -11 -99 1 -13 7 -21 6 -30 -5 -19 -23 -37 -18 -63 18 -49 65 -85 150 -91 217 -6 68 8 118 20 73 4 -13 13 -23 22 -23 13 0 14 13 8 93 -3 50 -9 102 -12 115 -11 40 -30 23 -50 -44 l-18 -65 -36 6 c-19 4 -47 18 -62 33 l-28 26 0 -41 c0 -23 9 -72 21 -109 21 -68 21 -84 1 -181 -9 -42 -27 -73 -42 -73 -5 0 -20 24 -35 54 -14 29 -34 62 -44 73 -25 27 -41 58 -41 81 0 11 -9 39 -20 63 -11 24 -20 61 -20 82 0 26 -4 37 -15 37 -9 0 -17 -14 -21 -37 -7 -41 -40 -96 -79 -133 -22 -20 -25 -21 -31 -6 -3 9 -10 16 -14 16 -14 0 -33 -101 -26 -146 7 -51 1 -57 -69 -64 l-50 -5 -2 -93 c0 -51 -3 -99 -6 -107 -4 -8 -23 -15 -49 -17 l-43 -3 -1 -145 c-2 -174 7 -234 47 -293 16 -25 38 -75 48 -111 24 -86 44 -116 79 -117 21 0 36 -12 68 -57 23 -31 51 -75 62 -97 24 -48 94 -116 137 -132 17 -7 56 -19 88 -28 51 -15 64 -24 109 -78 29 -36 62 -65 77 -68 57 -14 103 -9 147 17 42 25 44 28 44 73 0 40 -7 57 -46 112 -25 35 -54 80 -64 99 -10 19 -39 57 -64 85 -25 27 -46 55 -46 62 0 13 154 -102 206 -154 18 -18 40 -33 48 -33 9 0 33 -15 53 -34 59 -52 94 -66 170 -66 115 0 113 -2 113 100 0 95 9 76 -95 210 -28 37 -35 54 -35 93 0 26 4 47 8 47 4 0 28 -21 52 -46 25 -25 56 -51 70 -58 14 -7 79 -16 145 -20 148 -8 165 0 165 71 0 45 -7 73 -36 156 -8 20 -14 73 -14 117 0 74 -3 85 -45 166 -25 48 -47 104 -51 123 -3 20 -10 57 -16 82 -6 26 -8 69 -3 104 l7 58 44 -79 c40 -74 43 -84 44 -155 0 -42 7 -96 16 -122 15 -44 18 -47 50 -47 24 0 34 5 34 15 0 35 19 11 30 -37 7 -29 19 -69 28 -88 8 -19 15 -68 16 -109 2 -85 10 -96 102 -130 76 -29 129 -28 149 2 8 13 39 41 69 61 30 20 57 47 60 59 10 38 7 84 -7 95 -7 6 -19 27 -26 46 -12 28 -20 35 -50 40 -20 3 -53 8 -74 12 -36 6 -38 5 -29 -13 9 -17 4 -27 -37 -67 -53 -52 -65 -52 -96 -3 -19 29 -20 44 -17 159 4 126 4 127 37 165 18 21 36 53 40 71 4 18 13 36 21 39 23 9 17 26 -32 89 -25 32 -55 76 -66 97 -22 44 -32 41 -64 -18 -10 -19 -22 -35 -26 -35 -31 0 -61 27 -93 84 -20 36 -41 68 -46 71 -5 3 -19 0 -31 -7 -32 -17 -66 -11 -97 18 -14 13 -31 24 -37 24 -7 0 -33 -29 -59 -65 -41 -56 -49 -62 -62 -50 -8 8 -24 15 -36 15 -60 1 -64 6 -69 91 -4 71 -8 83 -33 109 -16 17 -35 30 -42 30 -18 0 -109 85 -131 122 -12 20 -24 28 -44 28 -18 0 -28 -5 -28 -14z m257 -693 c-7 -119 -13 -153 -31 -153 -16 0 -68 -56 -93 -100 -11 -20 -28 -67 -37 -106 l-17 -70 35 -78 c20 -43 36 -95 36 -115 0 -20 10 -56 21 -81 12 -27 18 -54 14 -69 -6 -22 -9 -23 -56 -18 -28 4 -65 15 -83 27 -19 11 -41 20 -49 20 -24 0 -167 169 -217 257 -48 84 -77 160 -86 227 -6 38 -2 50 25 90 36 53 58 57 92 21 49 -53 54 -52 132 21 82 77 106 109 131 177 10 26 21 47 24 47 4 0 24 -4 45 -9 27 -7 50 -5 75 4 21 8 39 14 41 14 2 1 1 -47 -2 -106z m-804 -16 c15 -17 18 -37 17 -112 -1 -49 -1 -96 -1 -103 1 -7 36 -49 78 -92 96 -100 139 -160 151 -213 6 -23 16 -56 23 -74 12 -30 11 -34 -11 -58 -18 -20 -26 -41 -30 -83 l-5 -56 -35 31 c-19 17 -71 49 -115 71 -79 40 -130 84 -175 152 -13 19 -46 59 -73 88 -47 51 -49 56 -43 95 3 23 9 77 12 120 6 62 10 77 23 77 28 0 41 22 41 71 0 26 7 62 15 82 14 34 15 35 62 30 32 -3 54 -12 66 -26z"></path><path id="p5pPxZCag" d="M3725 2198 c-8 -18 -19 -52 -25 -76 -12 -47 -23 -47 -69 2 -31 33 -36 33 -78 -5 -31 -26 -40 -30 -73 -24 -35 6 -38 4 -47 -22 -9 -23 -6 -34 13 -63 28 -40 30 -56 8 -64 -32 -12 5 -36 57 -36 29 0 53 -6 63 -15 27 -27 88 -19 138 19 25 19 48 42 52 51 3 9 6 58 6 110 0 149 -15 189 -45 123z"></path><path id="pDgKTJA56" d="M4259 2160 c-47 -28 -47 -29 -53 -7 -5 20 -8 19 -45 -18 -21 -22 -62 -62 -90 -90 -47 -46 -51 -54 -51 -96 0 -38 6 -52 35 -87 31 -36 42 -41 83 -44 40 -3 47 -6 50 -25 4 -31 38 -30 46 0 3 13 26 54 51 92 32 49 45 79 45 105 0 19 7 56 15 82 16 55 13 88 -12 106 -22 16 -21 16 -74 -18z"></path><path id="pzMPgjfH9" d="M4772 2178 c-6 -8 -20 -34 -30 -58 -11 -25 -39 -67 -62 -93 -42 -48 -42 -48 -35 -105 3 -31 10 -93 13 -136 l7 -79 71 79 c83 92 114 139 114 174 0 26 -46 194 -59 218 -6 11 -9 11 -19 0z"></path></g></g><g id="l5rFyXLSd8zXZ4uDKdSIUfH" fill="rgb(82,73,71)" style="transform: none;"><g><path id="p19oSXI7Ex" d="M2377 6765 c-121 -35 -187 -102 -187 -187 0 -35 2 -37 19 -26 15 9 30 8 71 -5 71 -23 141 -22 182 3 49 30 61 26 56 -15 -3 -30 -1 -35 18 -35 33 0 85 123 92 218 l5 72 -89 -1 c-61 -1 -114 -8 -167 -24z"></path><path id="p5u1lit9O" d="M5532 6357 c-31 -37 -53 -126 -62 -246 -13 -180 -21 -239 -35 -258 -13 -17 -14 -17 -34 1 -11 10 -23 27 -26 37 -7 22 -67 27 -82 7 -6 -7 -24 -52 -41 -99 -17 -48 -43 -115 -57 -150 -22 -50 -26 -75 -23 -120 4 -50 11 -66 69 -147 l64 -91 48 -1 47 0 0 48 c-1 41 -2 45 -14 30 -7 -10 -20 -18 -29 -18 -34 0 -127 142 -127 194 0 11 18 60 41 110 22 50 46 104 53 120 l12 28 32 -27 c29 -24 38 -26 77 -20 37 5 45 3 45 -9 0 -9 6 -16 13 -16 17 0 62 116 91 239 14 58 30 107 35 110 26 17 19 219 -10 274 -11 20 -71 24 -87 4z"></path><path id="pSnUUQYnj" d="M2310 4813 c-8 -3 -47 -27 -86 -54 -75 -50 -107 -83 -158 -164 -27 -43 -36 -50 -66 -53 -66 -5 -80 -12 -119 -65 -40 -53 -116 -182 -159 -272 -13 -27 -41 -68 -62 -90 -31 -33 -39 -50 -43 -92 -3 -29 -15 -74 -27 -99 -15 -36 -20 -68 -20 -140 0 -53 4 -94 10 -94 13 0 53 71 104 188 25 57 59 121 76 142 17 21 38 61 47 87 9 26 25 63 35 81 10 17 20 59 22 92 7 101 55 161 128 158 58 -3 73 10 144 119 40 62 66 90 106 115 86 55 81 53 73 27 -5 -13 -11 -39 -15 -56 -7 -29 -6 -33 14 -33 30 0 87 109 86 168 l0 42 -37 -1 c-21 0 -45 -3 -53 -6z"></path><path id="ppXAS8vcU" d="M2526 4242 c-2 -4 -7 -23 -11 -42 -3 -19 -24 -55 -45 -80 l-39 -45 -30 29 c-25 24 -31 38 -31 73 l0 43 -44 0 c-25 0 -48 5 -51 10 -3 6 -15 10 -26 10 -17 0 -20 -6 -17 -32 2 -26 11 -37 40 -53 32 -17 38 -25 38 -52 0 -44 9 -63 31 -63 29 0 39 -32 39 -125 0 -85 0 -86 23 -79 23 8 37 9 103 6 40 -2 42 -4 63 -53 11 -28 18 -55 15 -60 -3 -5 3 -9 14 -9 17 0 20 10 25 98 10 148 8 206 -8 252 -8 23 -15 73 -15 111 l0 69 -34 0 c-19 0 -37 -3 -40 -8z"></path><path id="p1A8Tfm8DM" d="M3619 4027 c-46 -58 -62 -97 -56 -144 5 -43 9 -49 107 -165 8 -10 22 -18 32 -18 11 0 18 -7 18 -18 0 -9 13 -33 29 -52 15 -19 38 -54 50 -78 12 -23 33 -48 47 -54 22 -10 33 -8 78 15 59 31 88 33 139 12 20 -8 55 -15 78 -15 41 0 117 -17 131 -30 4 -3 8 -34 9 -68 1 -34 3 -62 5 -62 1 0 17 27 35 60 21 39 53 78 94 114 53 45 73 55 126 65 63 13 64 13 84 -13 11 -14 24 -26 28 -26 13 0 6 85 -11 135 -22 65 -65 90 -177 99 -77 7 -137 26 -150 46 -13 21 -90 11 -126 -15 -31 -24 -40 -25 -109 -20 -70 5 -77 4 -103 -19 -15 -14 -41 -58 -57 -97 -32 -80 -35 -84 -49 -75 -18 12 -27 67 -20 125 12 95 10 274 -4 291 -19 23 -78 40 -143 40 -55 0 -61 -2 -85 -33z"></path><path id="p11a8svq70" d="M4822 3892 c-11 -26 -30 -56 -42 -67 -17 -15 -20 -30 -19 -79 0 -34 -6 -94 -15 -134 -17 -79 -22 -212 -7 -212 5 0 27 30 50 66 33 52 45 64 59 58 49 -21 65 -12 101 59 28 54 36 84 39 138 3 38 8 69 12 69 4 0 18 -11 31 -25 13 -13 28 -25 33 -25 13 0 0 94 -19 129 -13 26 -21 31 -54 31 -23 0 -48 8 -64 20 -14 11 -39 20 -55 20 -26 0 -32 -6 -50 -48z"></path><path id="pbJEuhSLX" d="M1535 2916 c-37 -77 -70 -126 -86 -126 -12 0 -49 75 -49 100 0 40 -18 19 -55 -65 -21 -47 -41 -85 -45 -85 -5 0 -11 11 -14 25 -4 14 -13 25 -20 25 -16 0 -32 -148 -21 -193 6 -23 12 -27 45 -27 35 0 38 2 55 48 23 60 23 60 41 34 12 -17 25 -22 58 -22 48 0 59 10 118 101 33 50 39 55 66 51 l29 -4 -5 73 c-3 51 -11 83 -26 106 -33 51 -50 43 -91 -41z"></path><path id="pIlfPkkax" d="M1925 2721 c-8 -16 -17 -47 -20 -69 -4 -34 -1 -41 15 -45 13 -3 20 -14 20 -29 0 -13 16 -56 35 -96 20 -39 39 -93 44 -119 l9 -48 -29 35 c-15 19 -29 38 -29 43 0 4 -11 7 -25 7 -22 0 -25 -4 -20 -25 3 -14 7 -35 10 -48 2 -13 16 -36 30 -53 14 -16 36 -52 50 -80 34 -70 47 -79 82 -62 43 20 73 106 73 209 0 50 -28 163 -57 227 -19 43 -140 182 -158 182 -8 0 -21 -13 -30 -29z"></path><path id="pf1YPJumz" d="M2346 2705 c-3 -8 -16 -15 -29 -15 -17 0 -29 -10 -41 -32 -16 -30 -16 -42 -3 -146 16 -135 24 -146 146 -203 88 -41 101 -40 101 6 0 25 -34 100 -49 109 -24 15 -50 86 -61 165 -6 46 -15 94 -20 107 -11 27 -35 32 -44 9z"></path><path id="p85rM61In" d="M1680 2425 l0 -95 -39 0 c-30 0 -44 -6 -55 -22 -21 -29 -20 -112 1 -199 14 -58 20 -69 37 -69 19 0 21 6 21 57 0 56 1 58 25 56 36 -2 85 15 104 36 16 17 16 22 2 56 -13 30 -14 46 -5 78 10 37 8 46 -28 118 -21 43 -44 78 -50 78 -10 1 -13 -24 -13 -94z"></path><path id="pgWjVtbeu" d="M4143 2442 c-6 -4 -14 -29 -18 -57 -11 -79 -13 -82 -88 -142 -40 -31 -86 -71 -103 -89 l-31 -33 -5 83 c-6 84 -30 159 -61 184 -19 16 -32 -1 -76 -103 -28 -67 -29 -75 -24 -178 l6 -107 -43 -40 c-54 -50 -74 -56 -101 -32 -16 15 -30 19 -60 15 -23 -4 -45 -1 -53 7 -12 10 -24 3 -66 -36 -74 -69 -76 -76 -43 -129 28 -44 89 -82 115 -72 9 3 19 -7 27 -27 8 -17 20 -38 27 -46 21 -25 6 -55 -44 -90 -26 -18 -59 -46 -73 -63 l-26 -30 -49 17 c-103 34 -132 67 -110 128 8 21 4 41 -17 95 -15 37 -36 106 -48 153 -21 83 -37 120 -51 120 -5 0 -8 -9 -8 -20 0 -10 -5 -43 -12 -72 l-11 -53 -13 30 c-7 17 -13 23 -14 13 0 -9 -12 -40 -27 -70 -35 -69 -39 -173 -11 -268 31 -105 38 -115 83 -118 53 -5 65 -17 65 -66 0 -51 31 -86 75 -86 16 0 38 -9 49 -19 27 -25 146 -41 146 -20 1 29 59 78 112 95 67 21 106 50 160 119 l42 55 26 -25 c39 -37 94 -34 137 7 26 25 33 28 33 14 0 -10 18 -48 40 -86 22 -38 40 -73 40 -79 0 -7 22 -11 54 -11 47 0 59 4 84 30 22 22 40 30 66 30 21 0 50 10 72 25 20 14 43 25 50 25 7 0 26 12 43 26 43 36 41 12 -9 -88 -44 -90 -55 -170 -24 -182 29 -11 106 -6 137 9 39 19 87 84 87 119 0 24 -1 24 -27 10 -27 -14 -28 -13 -31 16 -2 19 5 41 18 61 14 18 31 73 45 144 18 87 31 125 55 159 27 40 31 54 31 114 0 37 -4 80 -10 95 -6 16 -11 47 -11 70 l0 41 -55 -54 c-31 -30 -69 -77 -84 -105 -35 -61 -172 -205 -195 -205 -9 0 -22 -12 -28 -27 -13 -31 -67 -93 -80 -93 -5 0 -7 64 -6 143 2 148 -3 205 -18 198 -34 -14 -57 -21 -69 -21 -17 0 -85 79 -85 99 0 16 68 89 124 135 28 22 30 28 33 106 3 87 -20 226 -40 247 -7 7 -17 9 -24 5z"></path><path id="p1CM5yEGxr" d="M5486 1657 l-49 -58 -32 31 c-17 16 -38 30 -47 30 -24 0 -107 -66 -173 -137 l-57 -63 61 0 c60 0 61 0 61 -28 0 -15 -9 -53 -20 -85 -12 -34 -20 -82 -20 -122 l0 -65 38 0 c20 0 55 9 77 20 22 10 51 22 65 24 38 8 126 99 159 163 16 32 55 94 85 137 41 58 56 89 56 113 0 31 -2 33 -37 33 -31 0 -45 -8 -85 -47 -49 -48 -58 -45 -37 15 6 17 9 45 7 63 l-3 33 -49 -57z"></path><path id="p1208Wjqug" d="M1562 1533 c12 -136 55 -230 144 -318 54 -53 76 -83 92 -126 30 -80 47 -105 153 -224 l94 -105 75 6 c66 5 79 9 108 37 29 28 32 29 32 10 0 -18 102 -143 134 -165 6 -4 37 -8 68 -8 l57 0 -6 -50 -6 -50 34 0 c53 0 163 -26 193 -45 19 -13 39 -16 71 -13 l45 6 0 -46 c0 -24 4 -61 10 -81 5 -20 12 -48 15 -63 8 -43 53 -60 171 -66 97 -5 106 -3 161 23 53 25 62 26 98 16 148 -44 202 -50 280 -29 42 11 45 15 45 45 0 17 -7 58 -15 90 -8 31 -15 72 -15 90 0 18 -11 48 -24 68 -13 19 -30 58 -37 85 l-13 50 -43 0 c-29 0 -43 -4 -43 -13 0 -7 -17 -29 -37 -48 -68 -63 -68 -63 -100 -33 -37 35 -69 46 -123 43 -25 -1 -77 1 -117 6 l-72 7 -7 41 c-4 26 -3 42 4 45 25 8 61 44 76 76 18 38 21 137 6 201 -15 64 -47 85 -133 85 -51 0 -80 -5 -96 -16 -17 -12 -26 -13 -34 -5 -16 16 -47 14 -47 -4 0 -8 -3 -15 -7 -15 -5 -1 -31 -3 -60 -6 -59 -6 -95 9 -156 62 -20 19 -46 34 -57 34 -11 0 -23 7 -26 15 -4 9 -47 47 -98 85 -50 38 -109 87 -131 109 -62 64 -73 54 -59 -52 5 -35 17 -56 51 -94 25 -26 53 -64 63 -83 10 -19 39 -64 64 -99 25 -36 46 -73 46 -82 0 -10 -19 -28 -44 -43 -65 -38 -99 -28 -164 51 -45 54 -58 63 -109 78 -32 9 -71 21 -88 28 -43 16 -113 84 -137 132 -20 39 -94 144 -112 156 -4 4 -16 4 -26 2 -25 -7 -48 32 -71 114 -18 64 -55 133 -72 133 -5 0 -7 -21 -5 -47z"></path></g></g><g id="l1eEqMkMLdU27MuBipfhADE" fill="rgb(90,79,79)" style="transform: none;"><g><path id="p16rCJ4hZL" d="M2404 6993 c-24 -36 -29 -43 -98 -159 -33 -55 -70 -114 -84 -131 -47 -63 -101 -225 -74 -222 11 1 69 83 77 110 11 36 51 85 87 107 38 23 174 62 217 62 30 0 51 30 51 74 0 12 7 31 15 42 8 10 15 34 15 52 0 32 0 32 -50 32 -27 0 -50 5 -50 10 0 19 -40 50 -64 50 -15 0 -31 -10 -42 -27z"></path><path id="pIUKeE1Qb" d="M2392 5928 c-33 -126 -46 -230 -46 -369 l0 -146 37 -78 c29 -59 35 -81 26 -91 -15 -18 -28 -10 -114 66 -65 58 -70 60 -74 38 -2 -18 16 -42 93 -115 53 -50 96 -99 96 -108 0 -13 8 -16 43 -13 l42 3 3 72 c2 53 -7 118 -34 250 -36 171 -37 185 -35 356 2 147 0 177 -12 177 -9 0 -19 -18 -25 -42z"></path><path id="pApgqyKwE" d="M5784 4303 c-15 -32 -19 -69 -23 -195 -1 -32 -19 -19 -38 27 -15 38 -22 45 -45 45 -16 0 -28 -2 -28 -4 0 -20 56 -148 71 -165 27 -29 47 -26 84 9 l32 31 38 -31 c46 -37 55 -37 95 -4 17 15 32 25 33 23 45 -68 68 -95 108 -124 52 -37 68 -70 49 -104 -10 -19 -8 -21 17 -21 15 0 39 9 52 19 21 16 23 24 19 77 -6 82 -77 228 -117 242 -16 6 -47 33 -71 61 -40 47 -47 51 -86 51 -41 0 -44 2 -71 50 -26 46 -31 50 -65 50 -34 0 -39 -4 -54 -37z"></path><path id="pMuRsPwyZ" d="M1543 4226 c-96 -70 -303 -371 -264 -384 26 -9 41 -62 41 -147 0 -79 -24 -277 -36 -296 -11 -18 -34 -228 -34 -311 0 -69 3 -88 14 -88 17 0 23 22 32 135 3 50 11 101 16 115 16 42 56 202 63 255 9 62 7 59 78 124 55 52 58 54 83 40 24 -12 27 -11 45 11 19 26 22 42 23 143 l1 59 -48 -4 c-26 -2 -47 -2 -47 -1 0 5 53 207 66 250 8 28 14 69 12 90 l-3 40 -42 -31z"></path><path id="ptsarQpqJ" d="M3598 4164 c-31 -30 -54 -65 -68 -102 -12 -30 -34 -71 -51 -89 -30 -35 -39 -86 -20 -121 6 -11 4 -31 -5 -57 -7 -22 -14 -53 -15 -70 -1 -23 -7 -12 -26 45 -19 58 -22 80 -14 98 30 64 -7 122 -76 122 -38 0 -73 -31 -101 -89 -9 -20 -42 -61 -73 -91 -46 -47 -58 -54 -68 -42 -10 10 -11 29 -6 70 19 143 9 183 -64 260 -23 24 -41 48 -41 53 0 5 -20 9 -44 9 -43 0 -45 -1 -85 -64 -22 -35 -45 -66 -51 -68 -30 -10 -101 -288 -74 -288 3 0 26 23 52 51 l45 50 89 -4 c49 -2 90 -6 91 -8 2 -2 15 -21 30 -41 16 -22 27 -50 27 -70 1 -18 8 -51 16 -73 9 -22 20 -57 26 -77 6 -21 13 -38 17 -38 3 0 29 30 56 67 109 146 136 158 174 77 22 -46 62 -80 85 -71 8 3 17 19 21 36 4 17 29 58 57 91 76 89 83 87 221 -70 l49 -55 -8 35 c-4 19 -8 49 -8 65 -1 24 -6 30 -23 30 -34 1 -112 86 -136 148 -8 20 12 65 52 114 28 36 72 44 113 22 19 -10 20 -9 15 23 -23 138 -40 168 -96 168 -29 0 -45 -9 -83 -46z"></path><path id="p1EIcLTv0Q" d="M4113 4166 c-20 -9 -40 -30 -53 -56 -46 -91 -100 -291 -100 -372 l0 -40 37 36 c31 30 43 35 66 30 63 -13 118 -6 157 21 41 28 43 28 98 -5 l32 -20 0 25 c0 23 -11 61 -85 290 l-33 100 -43 2 c-24 2 -58 -4 -76 -11z"></path><path id="pAuCTKpQx" d="M4451 4106 c-7 -8 -17 -56 -22 -108 -9 -82 -16 -129 -35 -218 -5 -24 -4 -25 53 -27 77 -4 140 -34 158 -76 7 -18 22 -80 34 -140 22 -111 47 -177 66 -177 26 0 53 57 57 118 3 58 2 62 -19 62 -24 0 -25 4 -44 103 -10 52 -10 70 -1 79 7 7 12 33 12 59 0 43 -5 53 -50 102 -39 43 -56 72 -76 133 -14 43 -30 84 -36 91 -14 17 -83 16 -97 -1z"></path><path id="p162eymP3D" d="M6296 2868 c-12 -47 -6 -208 9 -245 14 -33 14 -42 -4 -102 -11 -36 -29 -109 -40 -161 -11 -52 -29 -126 -39 -165 -36 -131 -35 -127 -12 -123 16 2 27 19 44 68 12 36 36 92 53 125 17 33 36 85 42 115 6 30 28 96 48 145 39 97 49 163 38 250 l-6 55 -39 0 c-22 0 -40 -5 -43 -12 -2 -7 -7 6 -11 30 -8 46 -30 56 -40 20z"></path><path id="p8URFX7I8" d="M4873 1584 c-172 -173 -177 -179 -148 -182 16 -2 33 -9 37 -15 14 -23 8 -96 -12 -143 -13 -29 -20 -64 -18 -88 3 -40 4 -41 41 -44 31 -3 50 5 105 41 99 66 144 86 208 93 l57 7 -7 -34 c-4 -19 -9 -60 -13 -91 l-5 -58 32 0 c18 0 53 11 79 24 25 13 66 32 90 42 69 29 91 50 91 90 0 34 0 34 -25 18 -14 -9 -32 -13 -42 -10 -9 4 -19 3 -22 -1 -9 -13 -59 -43 -71 -43 -16 0 -12 65 9 127 11 32 23 84 27 116 l6 57 -69 0 -69 0 -64 -66 c-70 -71 -143 -124 -172 -124 -29 0 -22 46 16 115 19 35 41 96 50 138 8 42 29 104 46 138 17 33 29 63 26 66 -3 3 -85 -75 -183 -173z"></path><path id="psfVpPGOM" d="M4563 1652 c-29 -31 -53 -64 -53 -73 0 -15 -69 -69 -88 -69 -5 0 -17 -10 -28 -21 -10 -12 -42 -32 -70 -44 -28 -13 -55 -28 -58 -34 -4 -6 -25 -11 -47 -11 -32 0 -47 -7 -71 -30 -29 -29 -78 -41 -78 -19 0 6 -18 41 -40 79 l-40 68 18 44 c46 107 39 109 -55 16 -49 -49 -94 -88 -100 -88 -6 0 -31 22 -55 49 l-44 48 -19 -40 c-11 -22 -47 -67 -80 -101 -48 -50 -71 -65 -118 -79 -54 -16 -116 -65 -117 -92 0 -18 -67 -5 -86 16 -10 11 -30 19 -49 19 -45 0 -75 35 -75 87 0 27 -6 46 -20 58 -11 10 -20 24 -20 32 0 19 -14 16 -35 -7 l-18 -20 -35 20 -35 21 8 -23 c19 -61 18 -76 -8 -93 -21 -13 -32 -14 -71 -4 -26 6 -49 9 -53 6 -3 -4 -14 -2 -24 4 -12 6 -25 6 -37 0 -24 -13 -43 -1 -130 81 -39 37 -76 68 -81 68 -12 0 -24 -73 -23 -138 1 -55 11 -73 97 -180 31 -38 35 -50 35 -101 0 -31 5 -62 12 -69 17 -17 79 -15 102 3 11 8 40 15 64 15 63 0 98 -37 107 -113 11 -90 -14 -151 -77 -183 -28 -15 -30 -18 -24 -57 4 -23 9 -52 12 -64 9 -36 -51 -92 -116 -109 -52 -14 -55 -13 -92 11 -20 14 -48 25 -60 24 -13 0 -51 3 -85 7 l-62 7 16 38 c23 59 15 68 -55 62 -33 -3 -66 -2 -74 3 -34 21 -139 148 -133 162 3 9 0 19 -7 24 -26 16 -55 7 -89 -28 -30 -31 -38 -35 -71 -30 -24 4 -38 2 -42 -7 -3 -8 -10 -6 -21 8 -16 19 -16 18 -13 -19 3 -37 9 -44 73 -89 39 -27 93 -59 120 -72 28 -13 61 -35 75 -50 14 -15 52 -41 85 -57 33 -17 87 -54 120 -83 89 -77 136 -105 206 -121 35 -8 81 -21 102 -29 20 -8 53 -15 72 -15 28 0 35 -4 35 -19 0 -23 81 -58 155 -67 28 -3 82 -12 120 -20 98 -20 515 -24 608 -5 l67 13 0 40 c0 21 10 58 21 81 19 36 21 52 16 130 -5 77 -3 92 15 122 11 19 24 35 29 35 5 0 9 4 9 10 0 5 16 31 36 56 46 62 74 117 74 149 0 14 -15 49 -33 78 -18 29 -38 65 -45 80 -12 27 -15 29 -65 25 l-52 -3 0 52 c1 32 7 59 16 70 9 10 22 34 29 53 7 19 17 39 21 44 10 12 54 0 74 -20 10 -11 41 -18 95 -21 l80 -6 6 -36 c4 -20 11 -44 16 -53 15 -29 83 -58 135 -58 41 1 56 7 103 43 59 46 68 68 69 171 l1 49 -26 -26 c-43 -43 -124 -48 -124 -8 0 10 18 54 40 99 22 44 40 89 40 99 0 22 31 74 80 133 37 45 80 120 80 140 0 20 -16 9 -67 -48z m-1054 -1062 c7 -27 24 -66 37 -85 13 -20 24 -50 24 -68 0 -18 7 -59 15 -91 9 -33 14 -60 13 -61 -2 -1 -23 -7 -47 -14 -51 -15 -97 -9 -199 26 -80 28 -93 27 -178 -14 -50 -23 -63 -25 -130 -20 -90 8 -132 27 -139 65 -3 15 -10 43 -15 63 -13 47 -13 86 0 94 6 4 22 24 35 46 43 67 61 73 160 56 47 -7 88 -11 90 -6 3 4 13 6 23 4 9 -2 22 -4 27 -4 6 -1 25 -14 43 -31 63 -57 67 -57 130 -3 32 28 61 59 67 71 16 35 30 26 44 -28z"></path></g></g><g id="l7OlqMU8j1oST6JjEMCqY2m" fill="rgb(96,88,87)" style="transform: none;"><g><path id="pJqXwAUUU" d="M3035 7315 c-128 -38 -131 -40 -259 -164 -66 -65 -143 -133 -171 -151 -74 -50 -98 -86 -48 -74 26 7 26 7 10 -17 -10 -13 -17 -35 -17 -49 -1 -14 -7 -36 -15 -50 -23 -41 -19 -50 26 -50 l42 0 -7 -46 c-3 -25 -24 -85 -47 -132 -114 -240 -138 -327 -144 -527 -3 -77 -7 -199 -10 -271 -6 -138 -1 -184 20 -184 16 0 19 14 39 155 23 156 35 226 62 342 13 57 24 135 24 175 1 134 16 204 68 300 93 176 318 435 423 489 78 39 157 160 158 242 1 36 0 37 -36 36 -21 0 -74 -11 -118 -24z"></path><path id="p13XGQfNrj" d="M5010 7315 c-41 -7 -102 -14 -135 -14 -98 -2 -105 -6 -105 -59 0 -42 4 -49 63 -106 129 -127 155 -146 197 -146 31 0 44 6 70 36 17 20 39 53 48 73 9 20 31 53 49 74 43 49 46 108 7 133 -34 23 -103 26 -194 9z"></path><path id="p18TC60CiB" d="M6220 3871 c0 -11 -13 -28 -30 -38 -78 -45 -102 -199 -56 -358 14 -49 30 -121 35 -158 10 -67 19 -89 68 -155 l25 -33 25 23 25 23 -7 -35 -7 -35 21 20 c35 34 73 264 51 305 -10 19 -18 21 -65 18 -60 -3 -65 2 -65 75 0 25 7 44 23 60 20 20 22 32 22 122 0 119 -16 185 -45 185 -13 0 -20 -7 -20 -19z"></path><path id="pOXpNczNX" d="M1254 3332 c-6 -4 -16 -75 -23 -162 -7 -85 -22 -218 -33 -295 -31 -216 -18 -403 38 -517 16 -34 22 -38 56 -38 34 0 39 4 53 37 9 21 23 65 31 98 l15 60 45 -4 c30 -2 51 2 62 12 9 8 31 22 48 30 l31 16 24 -67 c13 -36 26 -70 27 -74 2 -4 -10 -8 -27 -8 -46 0 -58 -28 -65 -155 -7 -143 -11 -155 -47 -155 -22 0 -32 -6 -39 -26 -13 -33 -13 -185 0 -255 5 -30 14 -96 19 -148 8 -86 14 -104 62 -198 44 -85 57 -103 76 -103 20 0 22 4 17 33 -8 44 -39 144 -59 190 -12 28 -16 76 -18 185 l-2 147 40 0 c32 0 42 5 52 25 18 34 16 65 -7 134 -32 94 -36 156 -13 185 19 23 20 23 51 7 17 -9 34 -16 38 -16 4 0 4 85 1 189 -4 142 -9 196 -21 219 -8 16 -19 49 -22 73 -6 33 -36 94 -58 116 -1 2 -30 -39 -64 -91 -34 -51 -69 -99 -78 -106 -23 -20 -46 -2 -65 51 -9 24 -21 44 -25 44 -5 0 -25 -37 -44 -82 -19 -46 -38 -83 -41 -83 -10 0 -22 58 -14 70 3 5 6 115 6 242 0 133 5 275 12 331 13 95 12 97 -8 97 -11 0 -25 -4 -31 -8z"></path><path id="pQqYC5MwP" d="M1906 2631 c-4 -5 -9 -46 -13 -90 -5 -73 -4 -85 20 -133 30 -60 112 -158 132 -158 18 0 41 70 26 79 -6 4 -15 31 -21 61 -6 30 -24 80 -40 112 -17 32 -34 75 -38 95 -6 31 -13 39 -34 41 -14 2 -29 -1 -32 -7z"></path><path id="p168GOsr4N" d="M2888 2293 c-2 -10 1 -38 7 -63 5 -25 8 -76 5 -113 -3 -38 -1 -78 3 -90 5 -12 13 -47 18 -77 5 -31 29 -94 54 -143 25 -48 45 -95 45 -104 0 -20 28 15 58 74 21 41 21 41 1 92 -13 34 -19 76 -19 127 0 71 -3 82 -42 153 -62 113 -122 180 -130 144z"></path><path id="pab24Usxq" d="M6208 2098 c-9 -7 -23 -36 -32 -65 -18 -54 -85 -139 -120 -153 -28 -10 -51 3 -66 39 -15 37 -65 56 -122 47 -33 -5 -44 -2 -70 19 -16 14 -39 25 -50 25 -34 0 -102 -80 -130 -152 -14 -36 -43 -89 -65 -119 -42 -56 -63 -105 -63 -146 0 -13 -29 -80 -65 -150 -36 -70 -64 -131 -63 -135 2 -5 35 31 73 79 84 105 212 240 219 232 3 -3 -19 -41 -50 -85 -30 -43 -68 -104 -84 -134 -38 -74 -172 -210 -230 -233 -25 -10 -66 -30 -92 -43 -56 -30 -56 -31 -24 89 22 78 22 88 8 81 -9 -4 -54 -11 -99 -15 -89 -9 -126 -24 -236 -96 -84 -56 -101 -49 -69 28 22 51 30 155 16 205 -9 34 -58 18 -143 -46 -100 -75 -132 -118 -146 -194 -10 -57 -14 -63 -65 -103 -63 -48 -76 -51 -130 -23 -46 23 -48 27 -63 87 l-12 46 -76 2 c-54 1 -81 6 -92 16 -27 28 -72 41 -107 32 -26 -7 -36 -17 -49 -49 -9 -23 -21 -48 -28 -56 -18 -22 -35 -108 -27 -142 4 -17 6 -44 5 -60 -1 -27 0 -29 16 -15 10 9 35 20 56 26 36 11 39 10 50 -15 6 -15 26 -50 44 -78 l32 -52 -35 -58 c-20 -33 -44 -68 -55 -80 -10 -11 -19 -26 -19 -32 0 -7 -4 -12 -9 -12 -5 0 -21 -20 -36 -45 -26 -45 -26 -47 -14 -121 13 -74 13 -75 -16 -132 -31 -59 -32 -65 -20 -94 6 -14 2 -18 -15 -18 -18 0 -20 -3 -11 -14 16 -20 83 -30 187 -30 73 1 102 5 138 22 41 20 46 26 46 55 0 30 4 34 68 64 66 31 68 33 110 115 23 46 42 88 42 94 0 5 15 24 33 41 25 25 44 33 89 38 63 8 55 15 79 -82 11 -44 16 -53 35 -53 28 0 204 40 226 51 24 13 55 87 62 149 5 53 27 96 57 111 16 8 42 19 117 50 28 12 52 25 52 30 0 4 20 11 45 15 32 4 57 17 90 46 62 55 75 83 75 169 l0 72 44 41 c24 22 77 62 119 89 64 40 88 64 166 166 83 110 181 211 202 211 6 0 39 14 74 30 35 17 67 30 70 30 20 0 145 182 145 211 0 15 -5 19 -15 15 -20 -7 -20 -11 20 77 44 96 45 118 3 85z"></path></g></g><g id="l2RiRQumHL0NOLxrdbk5fFR" fill="rgb(108,89,87)" style="transform: none;"><g><path id="pV6WyIk24" d="M4430 6291 l-105 -6 -3 -45 c-2 -43 0 -46 45 -78 27 -18 75 -56 108 -84 33 -28 97 -75 142 -104 74 -49 86 -54 137 -54 l56 0 0 56 c0 49 -5 64 -40 116 -22 33 -40 66 -40 74 0 7 -20 36 -45 64 -25 28 -45 55 -45 60 0 10 -26 10 -210 1z"></path><path id="p9EPhbb92" d="M2335 4857 c-26 -26 -35 -44 -35 -67 0 -25 3 -30 13 -22 6 5 22 13 35 16 31 10 29 -12 -9 -79 -59 -105 -89 -208 -100 -353 -11 -133 -11 -134 12 -158 23 -24 32 -25 72 -9 15 6 17 1 17 -38 0 -39 5 -49 40 -81 22 -20 45 -36 52 -36 6 0 33 23 59 51 33 36 50 64 54 90 10 60 30 63 21 3 -4 -36 -1 -67 15 -119 19 -64 20 -83 12 -200 -9 -140 4 -257 32 -284 13 -13 18 -12 40 9 23 22 63 132 79 218 5 29 3 32 -18 32 -17 0 -27 -10 -41 -40 -10 -22 -21 -40 -25 -40 -12 0 -18 82 -11 145 10 78 1 455 -11 478 -6 12 -21 17 -49 17 -36 0 -43 -4 -72 -46 l-32 -46 -3 66 -3 66 -41 0 c-35 0 -46 -6 -80 -42 l-38 -41 0 30 c0 54 37 176 84 278 43 91 47 105 44 165 l-3 65 -38 3 c-32 3 -43 -2 -72 -31z"></path><path id="pTnAdMNEZ" d="M5527 4483 c-12 -11 -8 -178 7 -290 21 -159 28 -276 17 -269 -5 4 -19 32 -31 64 -29 76 -44 92 -92 92 -35 0 -41 -4 -52 -32 -8 -18 -16 -53 -20 -78 -8 -52 -39 -110 -60 -110 -8 0 -29 -24 -48 -52 -32 -51 -33 -57 -33 -153 0 -84 3 -100 16 -103 17 -3 28 30 44 129 6 41 37 79 65 79 25 0 45 31 71 109 20 58 23 63 35 46 7 -10 25 -54 40 -99 34 -101 50 -126 80 -126 32 0 46 30 44 98 -1 31 -1 147 -1 257 1 110 -3 224 -9 254 -12 65 -12 61 0 61 5 0 12 -17 15 -37 13 -79 39 -165 52 -170 7 -3 13 -11 13 -19 0 -8 5 -14 10 -14 15 0 12 67 -6 172 -26 152 -53 198 -114 198 -20 0 -40 -3 -43 -7z"></path><path id="p16ohhXvyW" d="M4583 4458 c-19 -9 -23 -19 -23 -55 0 -42 2 -45 43 -63 26 -11 110 -28 208 -40 90 -12 221 -35 290 -51 94 -22 144 -29 200 -27 l74 3 3 33 c2 22 -3 41 -15 54 -23 26 -134 78 -255 120 -91 31 -98 32 -298 35 -140 2 -212 -1 -227 -9z"></path><path id="p42dYxzeM" d="M1960 879 c0 -20 -7 -42 -15 -49 -8 -7 -15 -16 -15 -20 0 -4 53 -60 118 -126 99 -100 133 -128 220 -177 l103 -59 50 13 c44 11 49 16 49 41 0 22 -8 32 -42 49 -24 12 -62 39 -85 60 -24 22 -49 39 -57 39 -31 0 -175 107 -248 184 l-77 81 -1 -36z"></path></g></g><g id="l7dEJ5fG7Youk2bIl9UawFW" fill="rgb(106,94,97)" style="transform: none;"><g><path id="psRNFEASV" d="M1662 4310 c-7 -11 -18 -20 -25 -20 -29 -1 -72 -50 -83 -97 -6 -26 -26 -102 -43 -168 -17 -66 -31 -144 -31 -173 l0 -53 29 22 c17 12 43 22 58 23 23 1 32 9 51 47 12 25 25 70 29 100 4 44 12 61 43 94 21 22 49 64 63 94 l25 53 -44 -5 -44 -5 0 54 c0 57 -7 66 -28 34z"></path><path id="p13jWUF92X" d="M1246 3803 c-20 -47 -39 -97 -43 -112 -3 -14 -9 -30 -13 -36 -11 -16 -21 -198 -14 -259 6 -53 8 -56 35 -56 26 0 29 -3 29 -35 0 -24 5 -35 15 -35 8 0 15 6 15 14 0 8 6 16 14 19 29 11 63 204 68 382 3 120 -7 163 -47 189 -23 15 -24 15 -59 -71z"></path><path id="p16BczFtLU" d="M6250 3641 c0 -6 -9 -20 -20 -31 -25 -25 -28 -131 -4 -211 17 -57 34 -85 34 -56 0 10 7 31 15 47 32 61 87 21 67 -49 -6 -20 -16 -70 -22 -111 -6 -41 -18 -101 -26 -132 -13 -50 -12 -74 1 -189 9 -72 20 -141 27 -152 10 -20 11 -20 40 12 l30 33 25 -23 25 -24 -7 25 c-8 32 -11 324 -5 455 3 78 0 116 -15 173 -17 67 -23 76 -55 92 -37 19 -66 68 -72 120 -3 24 -38 43 -38 21z"></path><path id="pfixa1clK" d="M4582 630 c-12 -5 -45 -11 -73 -13 -40 -3 -56 -10 -84 -37 -19 -19 -35 -39 -35 -44 0 -6 -19 -48 -42 -94 -42 -81 -45 -84 -108 -114 -36 -17 -73 -38 -83 -46 -16 -14 -16 -17 -1 -33 16 -18 14 -20 -35 -41 -172 -76 162 -78 369 -2 52 20 127 47 165 61 112 40 177 72 172 86 -6 18 -65 20 -111 4 -31 -12 -63 -14 -135 -9 l-95 7 60 29 c140 67 144 69 144 89 0 12 -5 17 -13 14 -14 -5 -34 55 -41 119 -3 32 -18 38 -54 24z"></path><path id="p0I112jgd" d="M2440 522 c0 -14 -14 -22 -56 -33 l-57 -14 64 -40 c114 -69 172 -94 289 -125 63 -16 168 -52 233 -80 93 -39 129 -50 173 -50 41 0 54 4 54 15 0 9 -14 17 -37 21 -21 3 -78 26 -128 49 -98 47 -159 69 -220 80 -53 10 -110 43 -192 114 -62 53 -103 81 -117 81 -3 0 -6 -8 -6 -18z"></path></g></g><g id="l1Pjl6yv9YTC6Q9RcyieSyU" fill="rgb(125,98,96)" style="transform: none;"><g><path id="p10HJg3m0F" d="M3935 6491 c-18 -17 -223 -139 -303 -181 -44 -22 -111 -70 -151 -105 -39 -36 -95 -77 -123 -91 -54 -27 -165 -116 -210 -167 -20 -22 -28 -42 -28 -69 l0 -38 51 0 c39 0 60 6 92 28 100 69 323 194 399 226 46 19 124 53 174 75 90 41 245 81 314 83 20 0 65 -11 101 -26 36 -14 81 -26 100 -26 32 1 33 2 15 15 -10 8 -16 20 -13 28 4 11 34 16 129 19 104 4 125 2 135 -11 10 -13 12 -10 13 22 0 46 -20 88 -54 110 -41 27 -161 56 -363 87 -202 31 -263 36 -278 21z"></path><path id="pKvwwyYkz" d="M2945 4660 c-95 -15 -219 -57 -249 -85 -22 -20 -27 -32 -24 -63 l3 -37 173 3 c178 3 326 -7 516 -34 138 -20 246 -16 275 10 21 19 28 71 13 91 -21 29 -120 61 -332 105 -73 16 -300 21 -375 10z"></path></g></g><g id="lyrLjP8u2LD2zx6DJKMRoS" fill="rgb(106,90,126)" style="transform: none;"><g><path id="pWJPdrMie" d="M3026 7620 c-86 -61 -193 -149 -199 -164 -3 -8 -32 -31 -64 -52 -92 -61 -235 -205 -268 -270 -16 -32 -48 -84 -72 -116 -50 -67 -53 -77 -17 -49 28 22 49 19 65 -10 13 -26 24 -24 37 6 22 47 87 127 118 143 42 23 133 127 168 193 41 77 61 96 151 141 44 22 110 66 147 96 59 49 68 60 68 89 0 32 -2 33 -38 33 -29 0 -53 -10 -96 -40z"></path><path id="pzxhcv04K" d="M2207 6678 c-14 -24 -37 -72 -50 -108 -13 -36 -39 -94 -57 -130 -18 -35 -39 -82 -46 -103 -34 -96 -45 -271 -24 -387 5 -30 14 -107 20 -170 19 -204 56 -324 116 -381 13 -13 24 -28 24 -35 0 -6 50 -59 110 -117 61 -58 110 -110 110 -116 0 -6 9 -11 20 -11 11 0 20 2 20 5 0 3 -42 49 -94 103 -232 240 -263 304 -265 542 -1 63 -6 141 -12 172 -7 32 -9 79 -5 105 3 27 12 102 20 168 8 66 24 149 35 185 26 86 75 225 95 274 24 53 13 56 -17 4z"></path><path id="p0DbhwCa0" d="M5516 6611 c-16 -17 -17 -31 -12 -93 4 -40 9 -108 12 -150 4 -43 10 -78 14 -78 4 0 15 12 25 26 24 36 36 20 51 -68 12 -72 9 -128 -8 -139 -5 -3 -20 -52 -33 -110 -14 -57 -36 -131 -49 -164 -17 -41 -26 -90 -31 -158 -7 -112 -17 -148 -77 -269 -44 -88 -60 -102 -84 -70 -12 15 -13 12 -14 -26 0 -48 33 -92 69 -92 22 0 54 60 90 170 163 501 160 489 171 647 24 360 25 372 0 453 -12 41 -25 89 -29 105 -6 25 -12 30 -42 33 -25 2 -40 -3 -53 -17z"></path><path id="pgevL5yik" d="M1116 3507 c-72 -138 -79 -157 -80 -212 -1 -47 4 -67 22 -92 13 -19 19 -38 16 -48 -6 -15 -1 -17 47 -10 67 8 100 40 123 118 16 55 22 137 10 137 -4 0 -13 -8 -20 -17 -7 -10 -15 -15 -18 -12 -7 7 -11 105 -7 197 2 40 0 77 -5 82 -6 6 -42 -53 -88 -143z"></path><path id="p13z5mMSDN" d="M2938 220 c75 -34 132 -50 173 -50 48 0 105 -13 214 -48 78 -25 87 -26 385 -28 262 -1 316 1 380 17 179 42 208 48 260 55 30 4 73 15 95 25 l40 18 -36 0 c-19 1 -82 -5 -140 -13 -107 -15 -328 -14 -404 1 -27 6 -57 4 -95 -6 -77 -21 -472 -18 -565 4 -37 8 -99 15 -138 15 -40 0 -99 7 -132 15 -79 19 -89 18 -37 -5z"></path></g></g><g id="l3Xy11SZl37YSkoEaaJdXJX" fill="rgb(119,108,105)" style="transform: none;"><g><path id="p1Clb3iRQm" d="M3420 7590 c-19 -4 -61 -13 -93 -19 -61 -11 -145 -62 -287 -176 -36 -29 -77 -56 -90 -60 -14 -4 -37 -16 -52 -26 -14 -11 -28 -19 -30 -19 -2 0 -48 -29 -103 -65 -73 -48 -101 -62 -107 -53 -6 10 -11 9 -18 -3 -5 -9 -23 -22 -39 -29 -30 -12 -100 -95 -122 -144 -9 -19 -9 -32 1 -56 14 -35 14 -35 69 -15 66 23 128 70 257 196 67 65 135 124 150 130 50 19 197 59 201 55 6 -6 -28 -89 -45 -108 -14 -17 -12 -18 23 -18 35 0 47 9 165 125 70 69 134 125 141 125 8 0 27 -16 43 -36 27 -34 30 -36 80 -31 28 2 89 15 136 29 l85 24 3 46 c3 41 0 48 -26 67 -76 53 -243 83 -342 61z"></path><path id="pv6lc04sp" d="M5498 6393 c-9 -21 -23 -47 -31 -57 -14 -19 -15 -19 -26 2 -9 16 -21 22 -46 22 -54 0 -71 -51 -99 -303 -3 -26 -15 -66 -27 -90 -43 -83 -140 -343 -146 -390 -5 -40 -1 -57 26 -110 30 -59 105 -168 172 -249 20 -25 38 -38 54 -38 17 0 23 4 19 14 -3 8 -1 23 5 34 8 16 6 21 -14 30 -13 6 -32 26 -41 44 -9 18 -43 69 -75 114 -74 101 -78 122 -44 203 14 35 40 102 57 150 28 79 58 133 58 103 0 -19 61 -82 80 -82 30 0 57 45 64 107 4 32 11 115 16 184 6 85 16 143 30 178 27 68 28 171 2 171 -10 0 -24 -15 -34 -37z"></path><path id="pr0WKXOX9" d="M2362 4918 c-16 -13 -56 -43 -89 -66 -104 -78 -195 -132 -222 -132 -15 0 -37 -7 -49 -16 -27 -18 -158 -212 -227 -334 -26 -47 -59 -99 -72 -116 -12 -17 -23 -41 -23 -53 0 -18 4 -20 28 -15 48 12 61 23 98 92 54 100 124 202 151 219 19 12 29 13 48 5 31 -14 63 10 100 75 37 65 69 98 140 146 33 22 81 63 107 91 55 57 73 54 66 -13 -3 -37 -1 -41 18 -41 17 0 24 9 33 44 14 56 14 92 1 117 -15 27 -69 25 -108 -3z"></path><path id="p197q8hxhl" d="M5642 4628 c3 -29 19 -85 36 -125 18 -39 32 -76 32 -83 0 -6 -25 14 -56 45 -51 52 -58 56 -97 53 l-42 -3 -3 -82 c-3 -78 -2 -83 18 -83 17 0 20 6 20 49 0 54 12 70 37 49 27 -22 51 -88 68 -193 41 -242 135 -309 141 -100 2 74 24 155 42 155 4 0 24 -30 45 -65 21 -36 43 -65 49 -65 6 0 20 8 30 17 18 17 21 15 68 -37 l49 -55 1 38 c0 76 -52 157 -102 157 -31 0 -48 22 -68 83 -20 62 -154 231 -211 267 -27 16 -52 30 -55 30 -4 0 -4 -24 -2 -52z"></path><path id="p4uet8T6t" d="M4117 4259 c-75 -46 -109 -134 -91 -228 10 -46 26 -37 56 30 22 48 34 63 64 75 20 8 40 14 46 12 10 -4 52 -123 98 -277 25 -86 52 -121 90 -121 45 0 60 33 71 152 10 118 17 158 31 176 8 9 3 12 -18 12 -42 0 -51 -10 -65 -64 l-12 -49 -17 54 c-24 75 -76 186 -106 226 -33 44 -80 45 -147 2z"></path><path id="pXsbm9Hs8" d="M2906 4237 c-41 -41 -116 -191 -116 -232 l0 -37 28 28 c16 16 43 53 61 82 29 46 61 69 61 43 0 -5 18 -29 41 -53 70 -75 74 -88 63 -210 -7 -78 -2 -105 27 -142 l21 -27 72 74 c40 41 80 89 89 109 9 19 28 47 42 62 25 27 27 27 50 12 l25 -16 0 75 c0 97 -9 115 -58 115 -44 -1 -63 -14 -87 -60 -25 -50 -45 -70 -70 -70 -32 0 -52 27 -75 103 -11 36 -25 69 -31 73 -6 4 -20 26 -31 50 -17 40 -22 44 -54 44 -23 0 -43 -8 -58 -23z"></path><path id="pcfO1jHhc" d="M4829 4043 c-10 -11 -14 -44 -14 -106 0 -101 14 -122 41 -64 l17 35 34 -24 c24 -16 43 -22 63 -18 22 5 31 1 39 -15 22 -40 51 -146 51 -186 1 -73 46 -266 68 -288 38 -37 73 0 104 111 30 107 6 192 -38 135 -13 -17 -13 -17 -14 2 -5 115 -6 120 -42 170 -20 28 -46 74 -58 104 -31 80 -56 111 -89 111 -16 0 -37 10 -51 25 -28 30 -90 35 -111 8z"></path><path id="pombrydON" d="M1575 2620 c-4 -6 -27 -22 -53 -35 -26 -14 -55 -31 -64 -37 -14 -10 -22 -8 -48 17 -16 15 -32 26 -35 23 -3 -3 -14 -41 -25 -84 -21 -87 -46 -154 -58 -154 -4 0 -18 20 -30 45 -12 25 -26 45 -32 45 -23 0 -1 -163 31 -234 10 -21 19 -26 50 -26 41 0 49 7 59 54 l6 31 19 -29 c11 -17 22 -58 27 -98 7 -70 20 -98 43 -98 7 0 15 9 18 20 4 14 14 20 35 20 37 0 41 11 48 155 8 143 33 186 79 135 19 -22 35 -18 35 8 0 23 -83 252 -92 252 -4 0 -10 -5 -13 -10z"></path><path id="p1AjIpa1CA" d="M1436 1858 c-26 -150 -11 -234 69 -392 30 -59 55 -115 55 -123 0 -22 34 -82 103 -184 73 -107 97 -150 97 -176 1 -10 44 -61 96 -113 l95 -95 25 29 c33 38 26 65 -34 134 -64 74 -89 112 -113 179 -17 44 -37 73 -88 123 -98 95 -241 359 -241 443 0 17 -5 70 -11 119 -10 73 -15 88 -29 88 -12 0 -20 -10 -24 -32z"></path><path id="p6hBfE0oD" d="M5603 1371 c-7 -10 -47 -41 -90 -69 -152 -99 -182 -140 -167 -230 8 -50 -11 -87 -71 -140 -33 -29 -58 -42 -90 -46 -25 -4 -45 -11 -45 -15 0 -10 -121 -64 -147 -66 -38 -2 -99 -117 -92 -173 3 -25 -28 -90 -48 -101 -10 -5 -54 -16 -98 -26 -78 -17 -102 -26 -272 -107 -138 -65 -128 -75 73 -83 123 -4 157 -3 188 10 20 9 41 13 46 10 11 -7 97 18 158 46 36 16 42 23 42 49 0 29 -2 30 -42 30 l-43 1 30 25 c17 14 46 34 66 44 20 11 90 75 155 144 66 68 173 170 238 227 145 125 271 272 280 327 8 52 8 140 -1 145 -29 16 -60 15 -70 -2z"></path></g></g><g id="l447uA7MMgFcEM0aX1rmwEz" fill="rgb(121,116,123)" style="transform: none;"><g><path id="pSmWixaRK" d="M3803 7873 l-83 -4 0 -38 c0 -47 -2 -46 165 -61 66 -6 151 -18 188 -26 38 -8 94 -14 125 -14 31 0 82 -7 112 -15 78 -22 217 -45 273 -45 l47 0 0 39 c0 21 -6 43 -12 48 -27 20 -136 53 -210 63 -43 5 -106 21 -140 35 -58 23 -71 25 -222 23 -89 -1 -198 -4 -243 -5z"></path><path id="p177YWbeK8" d="M3144 7217 c-17 -12 -49 -41 -70 -65 -21 -24 -54 -52 -74 -62 -104 -53 -329 -313 -422 -488 -52 -97 -67 -166 -68 -302 0 -41 -4 -91 -9 -110 -23 -90 -23 -90 2 -90 30 0 44 29 58 123 7 45 27 109 56 172 25 55 53 125 62 155 25 79 191 293 398 514 88 94 103 115 103 143 0 18 -1 33 -2 32 -2 0 -17 -10 -34 -22z"></path></g></g><g id="lSwanKxcqKEod5X86WnIgc" fill="rgb(131,117,114)" style="transform: none;"><g><path id="phRQYsQls" d="M3850 6550 c0 -52 -47 -100 -126 -130 -63 -23 -268 -144 -324 -191 -19 -16 -67 -53 -105 -83 -79 -61 -161 -144 -223 -227 -35 -47 -42 -63 -42 -102 l0 -47 40 0 c66 0 140 45 140 85 0 18 -5 21 -30 17 -16 -2 -30 0 -30 5 0 28 160 167 238 207 28 14 84 55 123 91 40 35 107 83 151 105 43 23 127 71 186 107 59 37 117 71 129 77 30 14 29 30 -2 50 -13 9 -32 30 -40 46 -13 25 -22 30 -50 30 -34 0 -35 -1 -35 -40z"></path><path id="pqCVaAuAC" d="M2437 5858 c-3 -13 -13 -76 -23 -141 l-18 -118 38 -188 c20 -103 36 -205 34 -227 -3 -36 -5 -39 -30 -36 -21 2 -28 -2 -28 -15 0 -26 -47 -123 -60 -123 -5 0 -10 -4 -10 -10 0 -5 6 -10 14 -10 24 0 29 -19 12 -45 -9 -13 -16 -38 -16 -54 l0 -30 37 25 c35 24 38 24 50 7 8 -9 11 -23 9 -30 -3 -8 2 -13 13 -13 14 0 20 10 25 43 4 24 20 58 38 80 63 79 74 215 28 332 -17 42 -35 108 -40 148 -6 40 -17 107 -25 151 -8 43 -15 123 -15 177 0 78 -3 99 -14 99 -8 0 -16 -10 -19 -22z"></path><path id="pjcUHlpNr" d="M3635 4240 c-16 -12 -45 -27 -63 -35 -26 -11 -39 -28 -64 -82 -53 -119 -77 -131 -104 -50 -32 98 -39 107 -89 107 -39 0 -46 -4 -60 -30 -15 -30 -21 -110 -7 -110 4 0 18 12 31 25 13 14 27 25 32 25 16 0 29 -39 29 -88 0 -36 5 -54 20 -67 15 -13 17 -22 10 -36 -6 -10 -10 -33 -10 -52 0 -38 36 -164 52 -184 15 -19 46 2 54 35 4 15 13 48 21 74 15 46 14 84 -1 119 -5 11 3 28 23 51 16 19 39 59 51 89 22 59 29 68 83 118 36 34 37 34 57 16 11 -10 22 -34 26 -54 10 -65 25 -92 54 -98 47 -9 54 -37 45 -175 -13 -186 -11 -225 12 -256 41 -55 71 -37 114 68 18 41 42 118 55 170 12 52 30 120 40 151 20 68 13 129 -15 129 -19 0 -35 -30 -46 -85 -11 -54 -67 -205 -76 -205 -5 0 -9 28 -9 63 -1 76 -17 247 -26 271 -5 14 -16 17 -52 15 l-46 -3 -15 49 c-15 48 -17 50 -56 53 -27 2 -49 -4 -70 -18z"></path><path id="pHYY9kKiN" d="M4446 4171 c-34 -38 -50 -151 -21 -151 8 0 15 6 16 13 0 6 14 23 30 36 40 31 50 21 83 -82 20 -62 37 -91 76 -134 27 -30 50 -60 50 -67 0 -7 -7 -28 -16 -46 -16 -30 -15 -38 1 -114 32 -151 49 -180 80 -132 25 37 57 194 50 240 -5 33 -2 43 21 67 25 26 27 36 28 109 1 75 0 80 -20 80 -17 0 -23 -8 -28 -32 -9 -50 -42 -99 -61 -92 -9 4 -29 32 -45 63 -15 32 -36 64 -45 71 -10 8 -32 46 -50 85 -17 39 -40 78 -49 88 -23 23 -78 22 -100 -2z"></path><path id="pPiVJCaqy" d="M1360 1783 c0 -64 27 -226 44 -267 7 -18 33 -61 57 -96 35 -51 43 -73 47 -119 3 -39 11 -64 26 -81 12 -14 39 -51 60 -82 37 -56 167 -188 185 -188 5 0 11 15 14 33 6 39 -14 80 -100 206 -70 103 -103 162 -103 185 0 9 -22 58 -49 110 -57 108 -83 187 -83 254 0 65 -19 92 -63 92 l-35 0 0 -47z"></path><path id="pgHzuTy9g" d="M6046 1758 c-4 -10 -12 -18 -17 -18 -6 0 -39 -13 -74 -30 -35 -16 -68 -30 -74 -30 -20 0 -116 -99 -192 -198 -45 -58 -83 -111 -86 -118 -3 -7 5 -14 19 -16 21 -3 23 -7 21 -61 -1 -33 -7 -65 -14 -73 -9 -12 -6 -14 19 -14 24 0 38 10 70 50 22 27 64 69 94 94 57 47 87 87 187 256 50 85 61 111 59 140 -3 27 -6 31 -12 18z"></path></g></g><g id="l1zyiNzJAykRdoug3s729Nh" fill="rgb(118,104,140)" style="transform: none;"><g><path id="pOu7qUgI5" d="M3730 7890 c-161 -7 -204 -17 -285 -64 -22 -13 -71 -35 -110 -49 -110 -40 -183 -75 -259 -124 -68 -44 -246 -180 -246 -189 0 -12 22 1 89 52 74 55 144 95 191 108 21 6 19 2 -15 -28 l-40 -35 125 49 c129 50 344 120 370 120 8 0 55 16 104 35 49 19 98 35 108 35 10 0 18 5 18 10 0 6 -7 10 -15 10 -8 0 -15 5 -15 10 0 6 26 10 58 11 31 1 127 3 213 5 148 4 159 3 218 -21 34 -14 99 -31 144 -37 45 -6 116 -23 157 -39 71 -28 190 -41 190 -21 0 17 -70 51 -135 66 -95 22 -161 41 -215 61 -81 31 -390 48 -650 35z"></path><path id="pRQevxlD3" d="M2880 7455 c-34 -18 -40 -24 -23 -25 12 0 35 11 50 25 35 30 30 30 -27 0z"></path><path id="pVOG8YA1A" d="M5390 7100 c0 -160 31 -343 69 -418 5 -9 16 -43 25 -74 10 -32 22 -58 28 -58 5 0 19 12 30 26 15 19 27 24 44 20 22 -6 22 -5 17 51 -3 32 -9 74 -14 93 -15 63 -63 186 -89 226 -14 21 -34 59 -45 84 -10 25 -29 56 -42 70 l-23 25 0 -45z"></path></g></g><g id="l6mt3EgMWnQuIAmTle5Mijx" fill="rgb(134,115,132)" style="transform: none;"><g><path id="pvGd0D5Eh" d="M4495 7770 c3 -5 22 -14 43 -21 59 -19 85 -49 42 -49 -54 0 52 -72 125 -85 24 -4 62 -24 95 -50 43 -33 69 -45 118 -53 35 -6 78 -20 96 -32 19 -11 45 -20 60 -20 l26 0 -19 38 c-11 20 -34 51 -53 68 -78 74 -290 184 -355 184 -16 0 -44 4 -63 9 -54 14 -121 20 -115 11z"></path><path id="p12lQPQkGZ" d="M5101 7413 c-13 -44 -14 -94 -3 -108 4 -5 18 -11 32 -13 28 -3 70 -28 70 -42 0 -6 -15 -27 -34 -47 -18 -21 -36 -48 -40 -60 -6 -20 -4 -23 17 -23 14 0 30 7 37 15 12 14 15 14 31 0 9 -9 20 -27 23 -41 5 -19 13 -24 39 -24 26 0 42 -10 77 -45 24 -25 53 -45 63 -45 17 0 18 6 12 65 -7 57 -14 76 -67 154 -32 49 -80 107 -106 128 -26 21 -68 57 -94 81 l-47 43 -10 -38z"></path><path id="pyWk5BQMl" d="M5856 4440 c10 -49 42 -140 55 -156 6 -8 24 -14 39 -14 34 0 73 -42 90 -97 15 -47 34 -69 65 -77 33 -8 65 -67 111 -201 34 -98 38 -122 40 -221 3 -132 19 -173 80 -208 48 -27 60 -60 69 -182 10 -151 18 -172 26 -69 4 64 2 108 -9 155 -8 36 -18 88 -22 115 -4 28 -21 91 -39 140 -17 50 -42 133 -56 185 -18 66 -41 119 -75 175 -26 44 -58 107 -70 139 -24 64 -73 123 -222 266 -87 84 -88 85 -82 50z"></path><path id="pmXFdhBID" d="M1230 1935 c0 -3 13 -38 29 -78 36 -91 61 -205 61 -279 0 -33 8 -79 19 -108 20 -53 122 -187 177 -233 39 -33 38 -35 25 80 -7 61 -15 82 -51 134 -53 78 -66 108 -80 192 -8 46 -30 102 -70 179 -49 95 -63 113 -84 116 -14 2 -26 1 -26 -3z"></path><path id="psSAxBq3l" d="M5307 736 c-64 -27 -109 -55 -204 -128 -35 -26 -65 -48 -68 -48 -3 0 -5 9 -5 20 0 18 -2 18 -37 -5 -73 -47 -222 -159 -218 -163 2 -2 34 1 72 8 37 7 79 11 92 9 21 -4 18 -7 -28 -37 -28 -18 -51 -35 -51 -38 0 -10 61 12 140 51 47 24 107 50 134 59 26 9 67 29 90 45 61 42 196 187 196 211 0 11 5 20 10 20 6 0 10 5 10 10 0 18 -74 10 -133 -14z"></path></g></g><g id="l1KZMkeH3OVOd97CamJ1Nf7" fill="rgb(137,128,125)" style="transform: none;"><g><path id="p1BTXlclYN" d="M3620 7794 c-47 -19 -92 -34 -100 -34 -16 0 -204 -57 -304 -93 -39 -14 -87 -43 -140 -88 -45 -36 -117 -85 -161 -107 -90 -45 -110 -64 -151 -141 -16 -30 -50 -78 -76 -106 -26 -29 -52 -64 -57 -79 -10 -23 -8 -26 13 -26 28 0 100 37 184 96 35 24 65 44 68 44 3 0 18 8 32 19 15 10 38 22 52 26 13 4 54 31 90 60 121 97 225 163 270 174 154 34 188 35 258 14 119 -38 112 -37 112 -11 0 14 -20 43 -52 75 l-52 53 29 1 c17 1 58 0 92 -1 56 -2 63 0 79 25 9 14 30 33 45 41 20 10 29 22 29 39 0 20 -6 25 -37 30 -21 3 -54 10 -74 15 -50 14 -53 13 -149 -26z"></path><path id="pfucT9QlB" d="M4860 7497 c0 -83 8 -111 39 -144 l22 -23 -121 0 -120 0 0 -34 c0 -46 66 -106 116 -106 l33 0 -17 29 c-9 16 -13 33 -9 37 4 4 53 11 110 15 56 5 129 13 162 19 33 5 63 10 68 10 14 0 7 29 -9 38 -11 6 -14 14 -9 23 42 67 -48 158 -177 181 -35 6 -69 15 -75 20 -10 8 -13 -6 -13 -65z"></path><path id="ptXQvHl4o" d="M5240 7100 c0 -35 14 -97 46 -200 38 -125 48 -220 47 -447 0 -126 3 -213 9 -213 5 0 18 20 29 45 11 25 22 45 24 45 2 0 16 -21 31 -46 32 -54 35 -52 90 54 l37 74 -12 63 c-7 34 -11 71 -10 81 3 19 -26 124 -42 156 -25 49 -49 142 -54 213 -7 78 -8 81 -53 128 -36 37 -53 47 -78 47 -19 0 -34 6 -38 15 -9 26 -26 16 -26 -15z"></path><path id="pBbfxE6aG" d="M4600 6441 c-19 -4 -45 -13 -57 -19 -12 -7 -33 -12 -47 -12 -34 0 -34 -26 0 -34 45 -12 74 -38 101 -90 14 -28 43 -70 64 -93 22 -24 39 -49 39 -57 0 -7 18 -41 40 -74 22 -33 40 -71 40 -86 0 -22 -4 -26 -28 -26 -15 0 -33 5 -40 12 -9 9 -12 5 -12 -18 0 -27 8 -35 62 -67 42 -25 75 -37 100 -37 37 0 38 1 38 34 0 19 -16 68 -36 110 -43 90 -42 117 5 191 36 57 39 91 10 139 -18 31 -26 36 -59 36 -26 0 -48 -8 -68 -25 -39 -33 -54 -33 -42 1 6 14 10 48 10 75 l0 49 -42 -1 c-24 -1 -59 -4 -78 -8z"></path><path id="pySe50EYY" d="M1260 3461 c-16 -54 -30 -102 -30 -106 0 -4 -7 -31 -16 -61 -20 -70 -57 -114 -94 -114 -47 0 -55 -19 -41 -113 6 -45 11 -106 11 -136 0 -32 5 -58 13 -65 8 -6 23 -73 36 -152 30 -193 36 -214 65 -214 22 0 22 2 15 48 -13 78 -10 162 10 303 11 74 25 202 31 284 6 83 15 186 20 230 19 161 21 195 16 195 -3 0 -19 -44 -36 -99z"></path><path id="p1AozcQo08" d="M1350 2318 c-7 -43 -19 -86 -26 -95 -13 -17 -15 -17 -25 0 -22 37 -27 11 -22 -135 5 -149 6 -155 40 -230 20 -43 44 -85 54 -94 18 -16 19 -16 19 12 l0 29 25 -28 c14 -15 30 -27 34 -27 19 0 35 312 18 337 -4 6 -11 43 -15 81 -6 51 -15 81 -36 112 -15 23 -34 59 -41 79 l-12 36 -13 -77z"></path><path id="p18Fraf9Ry" d="M5783 1375 c-29 -24 -108 -110 -176 -192 -83 -100 -164 -183 -243 -252 -124 -108 -352 -339 -373 -380 -28 -52 53 -43 124 14 55 44 135 99 174 119 20 11 39 32 48 54 29 70 93 148 231 285 76 75 143 137 149 137 5 0 35 43 67 96 44 74 56 103 54 129 l-3 32 -52 -42z"></path></g></g><g id="l70hoL9KaZ6nZISaVcju1yG" fill="rgb(147,137,133)" style="transform: none;"><g><path id="pZc02kGZT" d="M3877 7803 c-21 -5 -42 -22 -92 -71 -30 -31 -36 -33 -76 -27 -48 7 -178 -10 -194 -26 -5 -6 -3 -9 8 -9 10 0 52 -33 95 -73 42 -40 92 -83 110 -96 34 -24 42 -48 17 -57 -25 -10 -17 -21 18 -27 71 -11 161 -38 187 -57 40 -28 100 -26 147 5 33 23 43 25 93 19 30 -4 87 -15 125 -25 237 -60 302 -88 438 -186 71 -50 95 -63 125 -63 l37 0 -61 58 c-34 31 -81 74 -105 94 l-44 37 120 1 c102 0 124 3 150 20 17 11 24 20 17 20 -23 0 -80 54 -93 88 -5 13 -9 45 -9 72 0 47 -2 50 -56 93 -38 30 -71 47 -98 51 -23 4 -59 17 -81 30 -26 14 -74 27 -135 35 -52 7 -136 24 -187 37 -52 13 -106 21 -122 18 -15 -3 -64 1 -107 9 -43 9 -101 18 -129 22 -27 3 -57 8 -65 9 -8 2 -23 1 -33 -1z"></path><path id="pilemPuXf" d="M2565 6378 c-13 -29 -28 -87 -35 -128 -6 -41 -19 -89 -30 -107 -54 -91 -78 -396 -45 -569 8 -44 19 -111 25 -150 5 -40 24 -108 42 -153 31 -81 31 -83 18 -149 -7 -37 -15 -73 -18 -79 -2 -8 5 -13 20 -13 20 0 29 9 44 43 23 52 126 235 171 302 26 40 33 60 33 100 0 39 7 60 30 95 33 50 37 90 20 193 -10 63 -38 110 -80 136 l-28 17 35 59 c19 33 52 78 74 100 54 56 53 86 -5 136 -27 24 -51 57 -62 84 -16 43 -19 45 -56 45 -21 0 -54 7 -73 14 -29 13 -35 20 -35 45 0 46 -18 37 -45 -21z"></path><path id="pNSXu7tfQ" d="M4013 6265 c-69 -14 -147 -39 -205 -65 -51 -23 -130 -57 -176 -76 -87 -36 -366 -198 -445 -258 -49 -37 -100 -66 -117 -66 -14 0 -13 33 2 48 9 9 5 12 -18 12 -38 0 -84 -50 -84 -91 0 -29 1 -29 58 -29 35 0 74 8 101 20 24 11 47 20 52 20 6 0 52 27 103 60 239 151 527 281 761 341 119 31 185 23 300 -35 58 -29 103 -46 125 -46 l35 1 -53 49 c-61 55 -143 101 -221 124 -69 20 -81 20 -218 -9z"></path><path id="pdtIhcYVW" d="M4859 6267 c8 -10 3 -25 -21 -63 -25 -38 -33 -63 -36 -111 -4 -56 0 -71 32 -139 20 -42 34 -79 32 -81 -2 -3 -14 0 -25 7 -49 26 8 -49 126 -163 67 -66 128 -132 135 -148 9 -20 20 -29 36 -29 13 0 21 4 17 9 -6 11 18 84 84 250 41 103 46 121 31 121 -10 0 -24 16 -36 42 -23 51 -235 264 -294 296 -48 25 -100 31 -81 9z"></path><path id="pawM02BE2" d="M5484 4574 c-7 -36 1 -262 13 -394 4 -54 3 -63 -8 -52 -7 6 -34 12 -60 12 -51 0 -59 -10 -75 -90 -9 -51 -33 -86 -68 -101 -25 -12 -33 -25 -47 -72 -26 -88 -42 -107 -89 -107 -44 0 -48 -5 -25 -30 9 -10 17 -44 20 -81 9 -112 20 -174 30 -174 16 0 58 115 65 180 8 65 60 165 86 165 21 0 52 58 60 110 8 55 29 110 43 110 11 0 51 -48 51 -62 0 -19 63 -158 72 -158 5 0 16 17 25 37 18 45 13 161 -18 401 -21 161 -22 213 -3 219 6 2 31 -15 55 -38 l44 -42 3 31 c2 23 -6 45 -29 79 -52 78 -69 93 -105 93 -30 0 -34 -3 -40 -36z"></path><path id="p1859ZQmWj" d="M1127 3063 c-3 -5 -8 -30 -12 -58 -4 -27 -14 -75 -23 -105 -13 -44 -16 -95 -14 -258 2 -176 5 -210 23 -260 11 -31 24 -93 28 -137 6 -59 21 -112 56 -200 26 -66 53 -127 60 -135 7 -8 36 -60 64 -116 28 -55 63 -111 77 -125 24 -22 26 -22 21 -4 -3 11 -9 47 -13 80 -4 37 -21 89 -45 139 -38 78 -39 82 -39 193 0 86 -4 123 -19 160 -10 26 -28 97 -40 157 -12 60 -29 122 -37 138 -8 16 -29 108 -45 206 -24 137 -29 193 -24 249 3 42 2 74 -4 77 -5 4 -12 3 -14 -1z"></path></g></g><g id="lGcZNMoLPf5RttTyitzVwI" fill="rgb(156,145,144)" style="transform: none;"><g><path id="p6wYoGWyc" d="M4721 6616 c-51 -52 -52 -53 -100 -48 l-49 4 -36 -50 c-20 -27 -43 -53 -52 -56 -27 -10 -70 -7 -156 13 -106 24 -253 44 -298 39 -27 -2 -36 -8 -38 -25 -4 -25 -9 -23 198 -54 80 -11 179 -29 222 -40 90 -23 129 -24 166 -5 15 7 47 16 71 20 l44 7 -8 -38 c-4 -21 -8 -56 -9 -78 -1 -37 1 -40 27 -43 22 -3 27 1 27 19 0 12 12 47 26 78 14 31 30 65 35 76 17 37 40 130 46 183 l5 52 -35 0 c-30 0 -44 -9 -86 -54z"></path><path id="p1CGl8XRD9" d="M3486 6340 c-33 -21 -102 -60 -153 -86 -85 -43 -103 -58 -201 -163 -59 -64 -120 -134 -135 -157 -27 -40 -121 -124 -138 -124 -5 0 -9 6 -9 13 0 6 -23 45 -50 86 -28 40 -50 78 -50 82 0 21 -17 6 -45 -39 -16 -26 -36 -52 -45 -59 -12 -10 -9 -12 22 -13 70 0 120 -65 133 -173 6 -54 4 -61 -26 -108 -25 -39 -32 -63 -35 -109 -2 -51 0 -60 14 -60 9 0 61 42 114 94 53 51 144 128 202 171 91 68 106 83 106 107 0 24 -3 27 -17 19 -79 -41 -202 -71 -161 -38 9 6 52 57 95 112 82 102 146 167 218 220 22 16 61 48 86 70 26 22 99 71 163 110 64 38 116 73 116 77 0 4 -33 8 -72 7 -67 0 -78 -3 -132 -39z"></path><path id="ptLpMJMWh" d="M5234 5324 c-6 -54 -4 -63 29 -128 36 -70 98 -232 117 -304 18 -71 70 -207 88 -232 13 -17 30 -26 55 -28 26 -2 50 -16 86 -48 27 -24 58 -44 70 -44 25 0 25 -3 6 51 -9 24 -13 49 -11 56 3 7 -11 25 -31 40 -116 90 -128 107 -148 221 -20 116 -90 289 -130 322 -10 8 -34 39 -55 70 -61 89 -67 91 -76 24z"></path><path id="p5xwrwsUO" d="M2493 5007 c-24 -32 -35 -60 -43 -112 -7 -46 -31 -114 -70 -200 -67 -147 -90 -230 -90 -328 0 -93 16 -98 85 -24 74 81 79 78 70 -44 -8 -123 -4 -124 76 -19 31 41 61 76 67 78 25 8 31 -42 30 -254 -1 -121 -1 -251 -1 -290 0 -81 17 -137 42 -132 21 4 87 125 116 214 38 115 141 306 175 324 17 9 22 4 38 -34 11 -24 25 -46 31 -50 6 -4 20 -37 31 -73 28 -90 41 -103 105 -103 39 0 56 5 70 20 18 19 17 20 -7 20 -39 0 -87 20 -98 41 -6 10 -14 50 -19 88 -5 40 -17 81 -28 97 -11 16 -28 42 -37 57 -16 26 -21 28 -68 25 l-51 -3 -66 -92 c-36 -50 -80 -108 -98 -130 l-31 -38 -15 35 c-9 22 -17 91 -22 190 -4 85 -11 163 -16 173 -11 19 -78 24 -110 7 -16 -9 -19 -7 -19 15 0 47 -17 65 -61 65 -22 0 -49 -5 -59 -10 -17 -9 -17 -4 6 62 34 99 106 373 112 426 2 23 0 42 -4 42 -5 0 -23 -20 -41 -43z"></path><path id="pWjmWdilH" d="M6147 1893 c-17 -25 -46 -65 -64 -87 -17 -23 -66 -97 -107 -166 -41 -69 -92 -149 -113 -179 -39 -55 -59 -88 -126 -204 -21 -37 -43 -67 -49 -67 -18 0 -287 -272 -327 -330 -39 -57 -94 -170 -87 -177 2 -3 17 2 33 10 15 8 52 22 81 31 49 17 60 28 190 182 75 91 142 176 148 190 6 14 16 33 22 42 67 98 126 186 189 280 42 62 88 123 104 134 36 27 102 121 135 192 33 72 46 196 20 196 -9 0 -31 -21 -49 -47z"></path></g></g><g id="l7cWVWzbZgPmMfXsuqAMnu6" fill="rgb(162,155,153)" style="transform: none;"><g><path id="pRKRRnu7f" d="M3395 7451 c-49 -31 -370 -370 -516 -546 -147 -177 -212 -269 -230 -325 -10 -30 -29 -81 -43 -113 -14 -32 -26 -73 -26 -93 0 -31 4 -37 37 -51 21 -8 55 -16 75 -17 21 0 38 -4 39 -8 3 -19 6 -25 22 -54 9 -18 34 -47 57 -66 l40 -35 -36 -34 c-36 -34 -94 -124 -94 -145 0 -6 22 -45 50 -85 27 -41 50 -79 50 -86 0 -7 9 -17 20 -23 15 -8 26 -7 47 7 59 37 116 90 148 138 19 28 86 104 149 170 64 66 116 121 116 122 0 2 -6 3 -14 3 -8 0 -17 4 -21 9 -10 18 42 118 99 187 50 62 56 74 56 116 0 70 -23 83 -143 75 -124 -8 -171 -24 -386 -129 -159 -78 -187 -88 -208 -79 l-23 11 32 52 c17 28 54 79 81 112 27 34 80 115 119 181 90 155 116 191 209 300 90 106 326 338 337 331 4 -2 32 -41 62 -85 52 -77 57 -81 93 -81 l37 0 0 45 c0 65 24 78 164 87 134 8 206 18 206 28 0 21 -89 55 -201 77 -24 4 -132 -21 -217 -50 -32 -11 -35 -10 -72 31 -44 47 -69 52 -115 23z"></path><path id="pOOr9zrKZ" d="M4300 7297 c-34 -17 -50 -53 -50 -115 0 -46 4 -58 29 -83 28 -27 34 -29 108 -29 87 0 116 15 129 66 10 39 -2 113 -21 134 -34 37 -145 53 -195 27z"></path><path id="p15xyKT5gb" d="M5156 7169 c-14 -11 -33 -34 -41 -50 -18 -35 -74 -99 -86 -99 -4 0 -21 12 -36 26 -38 36 -103 86 -130 102 -21 11 -23 10 -23 -16 0 -22 13 -39 55 -76 30 -26 55 -53 55 -60 0 -8 -11 -39 -26 -71 -17 -39 -24 -71 -22 -99 3 -40 4 -41 44 -44 40 -3 42 -1 69 45 37 64 151 227 168 242 21 17 46 -57 62 -182 8 -56 23 -163 34 -237 17 -111 19 -149 11 -213 -5 -43 -13 -139 -16 -215 -4 -75 -11 -147 -15 -160 -8 -20 -11 -21 -29 -10 -11 7 -57 55 -102 108 -46 52 -101 113 -124 135 -49 48 -64 74 -64 112 0 46 -12 56 -61 51 -24 -3 -52 -8 -61 -12 -15 -7 -18 -3 -18 23 0 43 -23 40 -40 -6 -8 -21 -29 -66 -47 -101 -27 -50 -31 -67 -23 -82 15 -28 41 -25 85 10 21 17 42 29 46 28 4 -2 18 -19 31 -38 13 -19 40 -43 61 -54 56 -30 269 -245 291 -294 15 -34 24 -42 46 -42 39 0 69 69 81 184 5 50 15 118 21 151 16 80 16 448 -1 550 -6 44 -22 114 -35 155 -13 41 -31 107 -40 145 -18 72 -47 115 -76 115 -10 0 -29 -9 -44 -21z"></path><path id="pMe4aqDBP" d="M3880 6725 l-24 -25 -22 21 c-16 15 -32 20 -60 17 l-39 -3 -3 -62 c-2 -34 3 -86 11 -116 11 -42 12 -57 2 -70 -18 -25 -29 -21 -47 16 -9 17 -30 51 -47 75 -26 35 -37 42 -66 42 l-35 0 0 -63 c0 -35 6 -85 14 -110 8 -27 10 -49 5 -53 -5 -3 -9 -15 -9 -27 0 -20 4 -22 48 -19 68 5 199 59 239 99 27 27 33 42 34 76 0 37 2 40 12 22 42 -68 86 -88 140 -62 28 12 38 47 14 47 -32 0 -47 35 -47 112 0 102 -3 108 -54 108 -32 0 -48 -6 -66 -25z"></path><path id="pPQAAd8r5" d="M1961 4725 c-101 -96 -183 -201 -245 -317 -57 -104 -68 -141 -60 -190 12 -77 59 -39 149 122 69 122 200 316 227 334 12 9 33 16 46 16 28 0 62 17 62 30 0 6 -20 10 -44 10 -44 0 -45 0 -48 37 l-3 36 -84 -78z"></path></g></g><g id="l6IL1B4Ys9Ez6MM8Jjywg1X" fill="rgb(172,162,158)" style="transform: none;"><g><path id="pIo4zsr4c" d="M3340 6581 c0 -5 11 -16 25 -25 14 -9 25 -24 25 -34 0 -9 -25 -48 -56 -85 -59 -73 -127 -208 -117 -232 13 -35 53 -29 152 23 118 61 240 138 247 156 3 7 -4 41 -15 74 -12 34 -21 75 -21 92 0 23 -4 30 -20 30 -17 0 -20 -7 -20 -49 0 -57 -7 -81 -25 -81 -23 0 -45 36 -45 76 0 22 -5 45 -12 52 -14 14 -118 17 -118 3z"></path><path id="pxEJTMQ76" d="M4170 6214 c0 -14 14 -23 58 -36 31 -9 86 -36 122 -59 82 -53 282 -203 301 -225 8 -10 66 -60 129 -113 185 -154 268 -242 360 -383 63 -97 88 -128 104 -128 17 0 21 7 24 39 2 32 -7 53 -51 123 -29 46 -59 104 -67 128 -11 34 -41 72 -126 160 -62 63 -131 126 -154 140 -89 54 -287 185 -332 221 -77 60 -244 139 -310 146 -52 5 -58 4 -58 -13z"></path><path id="pUyopAT2O" d="M2784 4636 c-104 -28 -131 -46 -155 -104 -11 -26 -27 -51 -35 -55 -8 -4 -14 -19 -14 -33 0 -21 3 -24 25 -18 22 5 28 2 38 -25 13 -34 37 -42 37 -11 0 24 21 35 81 43 60 8 111 -7 124 -35 12 -27 35 -33 195 -49 284 -28 383 -22 447 27 18 14 54 31 79 39 66 20 84 40 84 91 0 31 -6 49 -21 63 -25 23 -135 51 -231 58 -57 5 -68 3 -68 -10 0 -11 25 -21 93 -37 146 -34 186 -60 147 -95 -28 -26 -93 -29 -216 -11 -207 30 -345 38 -516 32 -110 -5 -169 -3 -173 4 -18 29 90 83 223 111 33 7 52 16 52 25 0 22 -100 17 -196 -10z"></path><path id="pSKYFjIbS" d="M4610 4516 c0 -8 -12 -21 -27 -28 -24 -11 -28 -20 -31 -61 -3 -44 -2 -47 22 -47 19 0 23 4 19 18 -9 36 42 45 225 40 154 -4 174 -7 259 -36 168 -57 283 -118 267 -143 -10 -17 -93 -9 -216 20 -68 17 -197 39 -287 51 -90 11 -168 23 -172 26 -5 3 -9 -6 -9 -19 0 -37 70 -67 154 -67 76 0 195 -22 251 -46 58 -25 200 -53 270 -54 85 0 105 16 105 84 0 50 -3 56 -39 89 -46 42 -175 105 -285 141 -89 29 -231 46 -392 46 -93 0 -114 -3 -114 -14z"></path><path id="pdd2sMFPQ" d="M3615 4315 c-94 -64 -105 -77 -133 -156 -15 -42 -31 -78 -37 -79 -5 -1 -19 25 -30 58 -28 82 -38 92 -95 92 -58 0 -81 -23 -100 -98 -6 -26 -18 -56 -25 -66 -14 -18 -16 -18 -33 -3 -20 19 -42 80 -42 118 0 13 -21 52 -46 87 -43 57 -50 62 -85 62 -58 0 -69 -8 -69 -48 0 -33 1 -34 18 -19 27 24 49 21 68 -10 9 -16 26 -41 37 -57 11 -16 23 -57 28 -97 11 -86 20 -104 60 -118 58 -20 87 -14 109 22 11 17 23 43 26 57 10 46 34 90 48 90 18 0 31 -22 57 -98 21 -61 31 -72 70 -72 34 0 61 31 97 112 22 50 38 71 59 80 15 7 45 23 65 36 20 13 41 21 47 18 5 -4 17 -30 25 -60 21 -73 39 -86 72 -55 41 39 46 19 64 -239 11 -175 18 -191 53 -131 29 49 74 164 86 222 8 34 7 37 -14 37 -17 0 -26 -10 -38 -42 -28 -69 -40 -37 -45 119 -5 156 -14 183 -62 183 -23 0 -35 9 -57 43 -27 39 -32 42 -78 44 -42 2 -58 -3 -100 -32z"></path><path id="pAinRCnqg" d="M4442 4208 c-13 -13 -17 -108 -4 -108 5 0 18 13 30 30 14 18 28 27 37 23 9 -3 33 -42 55 -88 21 -45 46 -88 55 -95 9 -8 29 -39 45 -70 20 -40 38 -61 59 -69 53 -23 80 6 116 121 24 78 38 88 73 55 16 -16 40 -27 55 -27 19 0 33 -10 52 -37 14 -21 25 -41 25 -46 0 -17 52 -117 61 -117 15 0 10 122 -7 176 -32 100 -43 114 -123 150 -40 19 -87 34 -103 34 -34 0 -77 -40 -98 -89 l-12 -31 -22 33 c-17 24 -31 33 -61 37 -33 4 -42 11 -59 46 -12 22 -36 51 -53 62 -36 24 -102 29 -121 10z"></path></g></g><g id="l1RgkEui2DCAr9Wx2PVKZDS" fill="rgb(184,176,170)" style="transform: none;"><g><path id="pzHCPyYMZ" d="M4650 7261 c0 -23 10 -37 43 -63 23 -18 79 -71 125 -117 l82 -84 -24 -41 c-189 -329 -189 -329 -205 -297 -9 15 -21 21 -47 21 -29 0 -38 -5 -52 -32 -9 -17 -32 -49 -51 -70 l-33 -38 -107 1 c-176 0 -319 14 -340 33 -14 13 -19 38 -25 117 -3 56 -9 105 -12 110 -3 5 -20 9 -38 9 -37 0 -56 -28 -56 -81 0 -27 2 -28 20 -17 32 20 42 -5 36 -89 -5 -65 -3 -75 17 -98 19 -23 37 -29 142 -45 66 -10 151 -25 188 -34 38 -9 98 -16 134 -16 70 0 66 -3 136 84 23 28 25 29 47 13 30 -21 58 -7 124 63 26 28 51 49 53 46 3 -3 -2 -26 -10 -53 -30 -95 -30 -103 -2 -103 14 0 25 4 25 9 0 11 96 181 133 236 18 27 27 53 27 79 0 37 -1 38 -14 20 -12 -15 -17 -16 -27 -7 -10 10 -5 28 20 89 23 53 30 85 26 104 -9 42 -192 198 -313 268 -21 11 -22 10 -22 -17z"></path><path id="p6jvgnVt7" d="M4248 6863 c-15 -2 -41 -20 -58 -39 -27 -31 -30 -41 -30 -100 0 -109 33 -144 140 -151 121 -8 171 48 155 173 -12 100 -77 137 -207 117z"></path><path id="px8jWs7dw" d="M3511 6702 c-31 -61 -37 -63 -203 -89 -27 -4 -38 -11 -38 -23 0 -14 13 -19 73 -25 39 -3 78 -11 85 -17 6 -6 12 -30 12 -53 0 -35 5 -48 26 -64 34 -27 80 -27 94 -2 5 11 10 41 11 68 1 26 4 59 8 73 7 25 8 24 40 -20 18 -25 41 -61 51 -81 22 -43 41 -53 74 -38 42 20 52 51 36 122 -8 34 -15 83 -15 110 0 40 -3 47 -20 47 -36 0 -65 -12 -65 -26 0 -22 -14 -16 -50 21 -25 26 -42 35 -67 35 -28 0 -35 -6 -52 -38z"></path><path id="p16OoOvBl" d="M2269 4962 c-157 -93 -231 -155 -255 -210 -7 -19 -35 -53 -61 -77 -41 -37 -133 -182 -133 -211 0 -15 99 100 145 169 l45 67 57 0 c60 0 88 14 232 117 93 66 144 156 109 191 -20 20 -39 14 -139 -46z"></path><path id="pFkfmsPEd" d="M4531 4516 c-32 -18 -50 -53 -51 -99 0 -44 11 -70 49 -112 15 -16 33 -43 39 -58 12 -28 12 -28 -10 -13 -13 9 -43 16 -71 16 -42 0 -53 -5 -78 -31 -16 -18 -31 -30 -33 -28 -2 2 -24 40 -48 84 -56 98 -80 117 -156 123 l-58 4 -35 -43 c-65 -80 -67 -86 -75 -218 -8 -149 3 -157 53 -37 38 92 42 98 100 131 43 26 45 26 65 8 30 -27 106 -193 129 -280 10 -43 23 -81 28 -86 11 -11 45 91 69 207 11 51 25 94 34 99 17 11 88 -30 88 -50 0 -7 5 -13 11 -13 7 0 10 17 8 44 l-4 44 27 -14 c42 -22 157 -34 332 -37 141 -1 167 1 209 18 54 23 59 46 12 56 -17 3 -48 14 -70 23 -56 24 -175 46 -251 46 -54 0 -77 6 -158 45 -114 54 -136 90 -70 115 13 5 24 16 24 25 0 8 7 15 15 15 8 0 15 7 15 15 0 20 -104 20 -139 1z"></path><path id="psPhGUABf" d="M5480 4318 l0 -113 -54 3 c-52 4 -55 2 -82 -33 -16 -21 -46 -58 -67 -82 -21 -25 -56 -82 -78 -127 -49 -98 -56 -107 -73 -84 -7 10 -22 18 -33 18 -17 0 -18 -5 -13 -52 8 -68 32 -106 75 -114 59 -11 85 15 115 116 13 44 22 58 46 69 35 15 59 50 68 101 20 100 45 113 99 50 19 -22 38 -40 42 -40 8 0 -2 338 -12 378 -3 12 -11 22 -19 22 -11 0 -14 -23 -14 -112z"></path></g></g><g id="l15XUdcP9Rty38StjXYVd0b" fill="rgb(192,187,183)" style="transform: none;"><g><path id="p1DwC6fWm6" d="M4066 7395 c-40 -27 -61 -31 -72 -14 -4 7 -26 9 -63 5 -31 -4 -106 -10 -167 -14 -140 -9 -164 -22 -164 -87 0 -25 -3 -45 -7 -45 -5 0 -26 27 -48 60 -22 33 -43 60 -47 60 -15 0 -7 -76 13 -130 12 -30 34 -100 50 -155 16 -55 42 -140 58 -190 16 -49 37 -125 47 -167 11 -46 24 -78 32 -78 6 0 12 7 12 15 0 8 7 15 15 15 8 0 23 10 35 22 l20 22 28 -27 c15 -15 37 -27 49 -27 23 0 87 65 98 99 8 26 25 18 25 -12 0 -18 2 -19 10 -7 5 8 10 40 10 70 1 62 20 150 43 195 38 76 47 106 57 185 18 132 25 148 71 160 28 8 56 8 96 0 81 -14 176 -13 171 3 -6 16 -62 34 -166 52 -122 22 -162 20 -206 -10z m-139 -208 c-9 -62 -21 -154 -28 -206 -6 -52 -17 -110 -24 -130 l-12 -36 -36 57 c-45 70 -84 182 -93 268 -7 77 -4 81 114 146 65 36 78 40 85 27 5 -8 3 -62 -6 -126z"></path><path id="p4Ij7CjQh" d="M3268 7283 c-124 -122 -251 -264 -305 -343 -17 -25 -63 -99 -101 -165 -39 -66 -93 -148 -120 -182 -59 -74 -122 -175 -122 -197 0 -8 11 -23 24 -31 48 -31 82 -22 279 74 103 51 187 97 187 102 0 12 -72 12 -106 -1 -41 -16 -168 -49 -172 -45 -4 4 107 159 186 260 31 39 92 107 138 152 101 100 154 186 154 249 0 39 -3 44 -22 44 -19 0 -11 11 45 67 56 56 67 72 67 100 0 18 -3 33 -6 33 -3 0 -60 -53 -126 -117z"></path></g></g><g id="l4nElN752uFjjWol0dw7wM4" fill="rgb(202,194,185)" style="transform: none;"><g><path id="p1Cvz1eWkT" d="M4450 7336 c0 -16 11 -27 35 -39 19 -9 35 -21 35 -25 0 -5 17 -14 38 -20 21 -7 49 -23 62 -37 22 -24 23 -31 21 -135 l-3 -110 36 0 c27 0 43 8 70 36 31 32 38 35 52 23 26 -21 54 -90 54 -132 0 -55 18 -44 59 36 33 64 33 67 17 92 -22 33 -146 157 -223 222 -60 49 -131 83 -214 102 -36 8 -39 7 -39 -13z"></path><path id="p1HkrZZooI" d="M3005 5689 c-92 -69 -219 -196 -264 -263 -54 -81 -148 -246 -203 -356 -23 -46 -53 -135 -77 -230 -22 -85 -43 -163 -46 -172 -6 -14 -2 -18 19 -18 20 0 32 9 47 35 12 19 24 35 29 35 4 0 10 22 14 48 13 100 38 167 108 290 39 70 99 179 132 242 51 98 73 127 143 195 46 45 83 85 83 91 0 6 16 25 35 44 24 23 35 43 35 62 0 35 -5 35 -55 -3z"></path><path id="p8Z6FxfDn" d="M5390 4849 c0 -28 6 -93 14 -143 19 -122 39 -337 31 -344 -3 -3 -26 4 -50 16 -46 22 -115 30 -115 13 0 -5 17 -19 38 -32 57 -34 102 -80 102 -106 0 -33 -41 -56 -90 -51 -36 3 -40 1 -40 -18 0 -15 8 -24 27 -29 15 -3 31 -12 35 -18 5 -8 16 -3 36 16 36 35 52 34 87 -3 16 -16 32 -30 37 -30 4 0 8 96 9 213 0 116 4 221 8 231 9 22 14 17 124 -138 35 -50 68 -91 74 -93 12 -4 23 42 23 96 0 56 -41 131 -100 184 -28 26 -60 48 -69 48 -9 1 -25 2 -36 3 -26 1 -60 55 -80 124 -20 68 -42 112 -55 112 -6 0 -10 -23 -10 -51z"></path></g></g><g id="lJWpCohrYUFq7r5PXiMBqg" fill="rgb(214,199,190)" style="transform: none;"><g><path id="pWuwP9jXb" d="M4020 6214 c-418 -111 -971 -427 -1067 -611 -11 -22 -10 -23 17 -23 18 0 43 11 62 28 49 42 129 97 168 117 19 10 76 45 125 78 50 34 128 77 175 97 47 19 135 63 195 96 125 70 216 105 361 139 97 23 104 24 160 9 67 -17 153 -63 240 -127 132 -97 185 -127 221 -127 l36 0 -24 26 c-30 32 -221 177 -308 233 -117 75 -238 97 -361 65z"></path><path id="ppVnUEVms" d="M2490 4775 c0 -8 -7 -23 -15 -32 -46 -53 -65 -86 -88 -158 -34 -103 -44 -165 -27 -165 7 0 32 18 56 40 24 22 50 40 58 40 19 0 36 -31 36 -64 0 -31 9 -56 21 -56 5 0 31 17 58 38 33 25 56 52 69 84 26 59 59 80 172 108 119 29 342 33 485 7 239 -43 272 -50 302 -64 66 -31 48 -82 -39 -108 -26 -7 -63 -25 -81 -39 -55 -42 -185 -59 -282 -36 -22 5 -88 12 -147 16 -111 7 -153 19 -153 44 0 26 -72 42 -154 35 -121 -10 -115 2 -107 -204 8 -194 21 -243 64 -249 29 -4 64 32 156 162 78 111 92 126 111 126 7 0 34 -29 60 -65 27 -36 52 -65 57 -65 12 0 10 114 -4 128 -24 24 24 25 100 2 55 -17 110 -25 189 -27 l111 -4 -21 -49 c-12 -27 -24 -49 -27 -49 -3 0 -17 20 -32 44 l-27 45 -59 0 c-32 0 -63 -5 -70 -12 -12 -12 -17 -98 -6 -98 3 0 15 11 26 25 38 49 75 25 101 -65 18 -62 42 -100 61 -100 20 0 40 35 66 115 16 47 34 80 55 100 47 44 134 97 153 93 9 -2 29 -22 45 -46 22 -33 34 -42 57 -42 48 0 57 -28 63 -180 3 -99 9 -147 22 -179 l18 -43 19 23 c10 13 32 53 49 89 26 54 33 86 43 188 l12 122 -22 0 c-17 0 -26 -11 -40 -50 l-18 -51 -16 50 c-22 66 -43 96 -88 125 -20 13 -48 35 -61 50 -17 18 -35 26 -58 26 -33 0 -34 1 -19 22 10 14 16 44 16 76 0 71 -32 105 -111 120 -103 20 -204 42 -259 56 -91 23 -295 37 -395 27 -117 -12 -246 -45 -312 -81 l-53 -28 -30 38 c-21 26 -30 49 -30 73 0 20 -5 48 -12 62 -12 27 -48 35 -48 10z"></path></g></g><g id="lpUZjRSv5Yt48Bv7FPawtt" fill="rgb(208,206,200)" style="transform: none;"><g><path id="pf4ukCw2F" d="M4148 7384 c-39 -12 -18 -31 40 -38 49 -6 107 -25 76 -26 -24 0 -44 -67 -44 -149 0 -79 1 -83 34 -119 l35 -37 100 1 c97 0 102 1 131 29 17 16 35 47 41 69 10 36 6 107 -8 142 -3 8 1 14 11 14 9 0 16 5 16 10 0 6 -7 10 -15 10 -8 0 -15 4 -15 10 0 20 -106 63 -175 71 -102 13 -207 19 -227 13z m300 -130 c28 -18 45 -60 37 -91 -10 -41 -44 -63 -98 -63 -40 0 -53 5 -78 29 -31 32 -36 61 -16 101 25 50 97 61 155 24z"></path><path id="p18QkVAtiZ" d="M3238 7231 c-83 -84 -112 -121 -94 -121 2 0 23 11 47 24 63 34 89 41 89 22 0 -20 -62 -121 -106 -173 l-37 -43 33 0 c22 0 55 15 102 46 38 25 71 45 72 43 2 -2 18 -44 37 -94 37 -102 57 -124 113 -125 l39 0 -7 88 c-3 48 -9 125 -12 172 -11 137 -58 210 -136 210 -32 0 -37 3 -40 25 -3 23 -11 17 -100 -74z"></path><path id="p2maCFrQT" d="M4047 7107 c-10 -23 -27 -58 -36 -77 -35 -69 -46 -161 -33 -279 7 -59 12 -125 12 -147 0 -64 19 -74 157 -86 65 -5 172 -11 238 -12 l120 -1 40 40 c22 22 48 56 59 75 18 34 19 34 32 15 43 -64 40 -63 69 -35 15 14 34 38 42 54 l15 28 -36 -4 c-32 -4 -36 -2 -36 20 0 12 -7 36 -15 52 -13 24 -22 30 -50 30 -30 0 -38 -7 -77 -62 -24 -35 -51 -64 -61 -66 -14 -3 -17 5 -17 51 0 71 -7 87 -37 87 -21 0 -23 -3 -17 -22 11 -34 8 -92 -5 -117 -18 -32 -75 -54 -122 -46 -65 11 -107 69 -97 135 4 25 1 30 -17 30 -16 0 -23 -10 -33 -46 -15 -55 -29 -54 -59 6 -28 53 -30 123 -8 255 18 112 19 165 3 165 -7 0 -21 -19 -31 -43z"></path><path id="piln8vI44" d="M5156 7106 c-14 -23 -15 -26 -1 -26 24 0 32 -34 44 -180 6 -74 18 -173 27 -220 13 -70 14 -93 4 -135 -15 -64 -9 -195 15 -357 16 -103 23 -128 36 -128 13 0 17 19 22 124 4 68 12 175 18 237 10 103 9 128 -11 254 -12 77 -28 188 -35 247 -23 171 -74 251 -119 184z"></path><path id="pi9LAYjOJ" d="M5019 6768 c-8 -7 -27 -32 -42 -55 -27 -43 -47 -60 -27 -24 5 11 10 34 10 51 0 70 -49 12 -153 -183 -37 -69 -47 -126 -28 -157 8 -12 17 -10 61 10 57 27 70 21 70 -33 0 -38 15 -64 64 -112 23 -22 78 -83 124 -135 45 -53 91 -101 102 -108 18 -11 20 -10 20 18 0 17 -8 43 -18 58 -10 15 -42 63 -72 107 -29 44 -71 99 -94 123 l-40 42 28 58 c15 31 43 83 62 114 l35 57 -8 88 -8 88 -35 3 c-19 2 -42 -3 -51 -10z"></path></g></g><g id="l7MnCnSWYH1cKoWXKRggpGk" fill="rgb(219,216,209)" style="transform: none;"><g><path id="pwypO27NU" d="M3811 7312 c-46 -26 -93 -59 -104 -73 -19 -26 -19 -30 -3 -127 8 -55 25 -126 37 -159 28 -74 89 -172 112 -179 43 -14 58 29 87 256 41 317 40 330 -13 330 -19 0 -65 -19 -116 -48z m84 -119 c-7 -38 -16 -94 -20 -126 -4 -39 -14 -66 -30 -85 -23 -27 -24 -27 -40 -7 -43 53 -60 160 -32 198 9 13 113 81 133 87 0 0 -5 -30 -11 -67z"></path><path id="pWHdKOGQB" d="M3476 7113 c22 -221 25 -265 21 -270 -7 -6 -57 27 -57 38 0 5 -7 9 -16 9 -17 0 -17 -25 2 -131 l6 -36 -48 -7 c-90 -13 -268 -76 -421 -149 -125 -59 -152 -76 -153 -93 0 -20 3 -21 42 -13 43 8 95 22 223 59 63 19 295 69 386 84 40 7 57 23 84 76 l18 34 63 -67 c35 -36 65 -63 68 -59 3 5 8 30 11 58 10 77 -66 344 -99 344 -8 0 -30 34 -52 80 -30 65 -41 80 -60 80 -20 0 -22 -4 -18 -37z"></path><path id="pTyOh8vRd" d="M5163 7105 c-45 -31 -238 -330 -240 -372 -2 -30 32 -31 64 -1 l23 21 0 -21 c0 -27 5 -27 31 -1 29 29 38 15 40 -65 l2 -68 28 4 c23 4 28 0 33 -25 3 -16 6 -39 6 -51 1 -11 9 -39 20 -61 11 -22 19 -47 20 -56 0 -20 20 -39 41 -39 14 0 18 13 23 73 3 39 9 96 12 125 4 32 0 90 -10 145 -20 112 -36 256 -36 318 0 30 -6 55 -17 68 -17 20 -20 20 -40 6z"></path><path id="p8A2lRI89" d="M4725 7048 c-49 -52 -50 -52 -53 -27 -2 21 -7 26 -23 22 -16 -5 -19 -14 -19 -64 l0 -59 31 0 c17 0 37 7 46 15 11 12 18 13 29 5 11 -10 9 -23 -11 -78 -12 -37 -26 -88 -30 -114 -4 -32 -11 -48 -21 -48 -8 0 -14 -10 -14 -24 0 -58 26 -71 68 -36 12 10 52 69 87 131 71 122 79 157 49 227 -14 34 -70 102 -84 102 -3 0 -28 -24 -55 -52z"></path><path id="pRuj9YcA1" d="M4119 5251 c-24 -24 -29 -38 -29 -76 0 -25 7 -62 16 -83 10 -21 20 -84 24 -145 11 -152 41 -194 131 -185 54 5 73 45 88 182 14 129 8 213 -20 268 -27 53 -54 68 -122 68 -51 0 -62 -4 -88 -29z"></path><path id="p11TxUSCBe" d="M4610 4210 c0 -25 7 -35 37 -52 20 -12 31 -24 24 -26 -7 -2 -26 5 -42 17 -15 11 -38 21 -49 21 -17 0 -20 -4 -15 -22 4 -13 16 -38 27 -55 16 -27 26 -33 53 -33 24 0 39 -7 54 -27 22 -26 24 -34 37 -108 6 -39 7 -39 17 -15 38 92 69 153 91 175 l25 24 72 -32 c61 -28 75 -39 93 -75 29 -57 46 -54 46 8 l0 50 54 0 c53 0 56 2 92 45 33 41 40 45 80 45 33 0 44 4 44 15 0 18 -33 33 -115 51 -55 12 -64 11 -105 -8 -38 -17 -65 -20 -182 -19 -155 1 -265 14 -309 36 l-29 16 0 -31z"></path></g></g><g id="l1aELgIk0qUAZLmoc5NlTJa" fill="rgb(231,225,216)" style="transform: none;"><g><path id="pcNWEPYxX" d="M2579 5047 c-50 -89 -62 -120 -79 -213 -10 -52 -10 -66 4 -92 9 -17 16 -47 16 -67 0 -25 10 -50 37 -85 21 -28 41 -50 46 -50 5 0 21 8 35 19 76 53 264 111 362 111 102 0 127 34 34 46 -73 9 -173 -2 -279 -30 -47 -13 -88 -20 -90 -16 -2 4 -4 49 -3 101 0 52 1 128 1 169 1 96 -13 190 -27 190 -6 0 -32 -37 -57 -83z"></path><path id="pCgVOe772" d="M4123 4510 c-28 -12 -48 -42 -73 -115 -19 -57 -28 -156 -12 -154 4 0 28 28 53 62 41 55 50 62 79 60 50 -2 78 -29 139 -137 31 -55 61 -101 68 -103 6 -2 25 16 43 41 47 69 101 72 135 7 21 -41 63 -71 99 -71 17 0 46 -9 65 -21 41 -25 54 -21 68 24 l10 35 -40 12 c-72 21 -136 73 -159 127 -13 29 -72 103 -83 103 -3 0 -5 -11 -5 -24 0 -34 -14 -40 -51 -21 -43 23 -129 85 -129 94 0 4 -16 26 -36 49 -34 40 -38 42 -92 41 -31 0 -67 -4 -79 -9z"></path><path id="pSXRVU7Sk" d="M3692 4451 c-12 -16 -34 -37 -50 -46 -15 -10 -32 -26 -38 -38 -20 -45 -57 -60 -164 -65 -86 -4 -110 -1 -173 19 -87 28 -194 32 -210 8 -7 -11 -5 -26 6 -50 8 -19 18 -61 22 -94 13 -120 45 -175 100 -175 29 0 46 27 75 120 29 93 36 102 74 98 26 -2 37 -13 67 -63 20 -33 42 -60 49 -60 8 0 30 32 49 71 53 104 76 131 142 164 67 34 95 37 121 13 17 -15 18 -14 18 17 0 22 -7 38 -25 52 -14 11 -25 28 -25 39 0 27 -13 24 -38 -10z"></path><path id="p6y1dTfaJ" d="M5278 4183 c-41 -4 -51 -9 -83 -49 -36 -44 -36 -44 -102 -44 -58 0 -64 -2 -58 -17 4 -10 10 -45 15 -78 12 -95 59 -185 96 -185 15 0 43 44 89 140 19 38 49 86 68 107 97 110 92 134 -25 126z"></path></g></g><g id="lZvtW4HDcOS2E8Y4PTkSJX" fill="rgb(234,232,224)" style="transform: none;"><g><path id="p8TEHvNc5" d="M3377 7378 c-21 -24 -54 -66 -73 -95 -19 -28 -41 -57 -49 -63 -31 -26 -13 -29 33 -6 71 37 94 40 124 17 16 -13 63 -95 118 -206 50 -102 94 -185 97 -185 16 0 -7 175 -35 265 -73 239 -110 315 -154 315 -12 0 -38 -18 -61 -42z"></path><path id="pHN4vZ7Qg" d="M4113 7372 c-19 -12 -30 -51 -43 -162 -7 -58 -18 -147 -26 -197 -36 -239 -1 -384 89 -371 17 2 27 17 44 67 30 88 66 123 126 123 85 0 129 -48 137 -152 5 -62 6 -65 32 -68 40 -5 63 12 108 78 22 33 43 60 46 60 3 0 14 -20 25 -45 11 -24 24 -47 30 -50 18 -12 38 16 44 63 4 26 20 83 36 126 24 69 27 83 16 105 -16 33 -75 41 -102 15 -17 -17 -17 -15 -11 42 20 204 20 207 -11 236 -43 41 -163 77 -163 49 0 -6 9 -25 19 -43 37 -64 31 -120 -19 -170 -22 -22 -40 -42 -40 -44 0 -12 79 -2 90 11 7 8 16 15 20 15 4 0 10 -44 14 -99 6 -83 4 -105 -10 -135 -22 -44 -30 -45 -40 -4 -18 83 -92 128 -213 128 -68 0 -77 -3 -121 -34 l-47 -34 4 41 c2 23 -2 94 -10 158 -17 134 -10 204 24 232 40 32 99 15 99 -30 l0 -27 20 22 c11 12 35 29 52 38 29 15 30 17 12 27 -50 28 -202 47 -231 29z"></path><path id="p6PfZINFG" d="M3234 7012 c-146 -97 -198 -153 -382 -411 -129 -180 -114 -188 123 -73 88 43 215 95 283 117 75 24 122 44 122 52 0 7 -4 13 -10 13 -5 0 -10 16 -10 35 0 19 -4 35 -10 35 -5 0 -12 15 -16 34 -4 22 -20 47 -46 70 l-40 36 32 40 c22 28 30 48 28 69 l-3 29 -71 -46z"></path><path id="pIf1MEd6K" d="M5149 6997 c-14 -18 -43 -57 -64 -87 -21 -30 -69 -86 -105 -125 -58 -60 -72 -83 -104 -167 -56 -144 -46 -150 52 -34 45 54 92 116 103 138 11 21 36 63 55 93 18 30 34 58 34 63 0 15 33 39 63 46 31 7 35 28 11 74 -8 18 -16 32 -17 31 -1 0 -14 -15 -28 -32z"></path><path id="p1WgKnaoX" d="M5095 6633 c-19 -27 -57 -92 -85 -146 -58 -114 -58 -129 4 -197 23 -25 64 -80 91 -123 70 -108 129 -182 146 -182 25 0 50 65 43 115 -20 155 -48 297 -60 311 -8 8 -14 22 -14 30 0 8 -7 28 -16 44 -9 17 -20 55 -25 85 -10 63 -27 110 -40 110 -5 0 -24 -21 -44 -47z"></path><path id="pYjCZxIXd" d="M3734 5771 c-33 -16 -77 -43 -97 -61 -35 -30 -37 -36 -37 -90 0 -53 3 -60 32 -86 l33 -27 145 7 c118 5 151 10 180 26 19 11 60 32 90 47 76 36 90 50 90 90 0 58 -38 77 -107 52 -27 -9 -40 -6 -112 30 -97 49 -134 51 -217 12z"></path><path id="pmbFOzLQI" d="M4208 5693 c-26 -4 -28 -8 -28 -48 0 -35 6 -52 32 -80 120 -137 364 -190 459 -99 75 72 -11 184 -140 184 -31 0 -68 9 -103 25 -52 24 -134 31 -220 18z"></path></g></g><g id="l1ibH6DyYKk54Q0x7M3TDnK" fill="rgb(245,241,230)" style="transform: none;"><g><path id="puiBFyrWy" d="M4005 6161 c-149 -39 -224 -69 -346 -138 -57 -32 -141 -74 -186 -92 -45 -18 -115 -56 -155 -83 -40 -28 -102 -67 -138 -87 -89 -51 -139 -88 -251 -187 -110 -97 -138 -133 -203 -259 -25 -49 -61 -116 -80 -148 -19 -32 -32 -66 -31 -75 24 -131 27 -160 16 -196 -11 -42 -4 -245 9 -267 6 -9 31 -5 102 15 144 41 211 49 303 37 44 -6 127 -15 185 -20 58 -6 125 -17 150 -26 25 -8 94 -24 153 -34 154 -28 190 -58 170 -139 l-10 -40 67 -64 c37 -34 79 -71 94 -81 31 -21 58 -75 81 -159 9 -32 19 -58 24 -58 10 0 101 209 101 232 0 28 47 148 65 168 22 24 82 37 106 22 19 -12 29 2 29 40 0 17 4 19 23 13 12 -4 48 -10 79 -12 47 -4 61 -1 87 18 25 19 31 30 31 61 l0 38 -127 -1 c-120 0 -130 -2 -186 -30 -66 -34 -132 -97 -162 -155 -10 -22 -20 -40 -21 -42 -1 -2 -19 1 -40 7 -25 7 -62 32 -101 70 -55 52 -63 64 -63 97 0 34 -9 46 -100 136 l-101 98 -72 0 c-55 0 -79 5 -102 20 -16 11 -37 20 -46 20 -9 0 -28 10 -43 21 -25 19 -26 23 -12 38 9 10 16 36 16 60 0 33 -8 52 -36 89 -31 41 -33 48 -19 58 9 7 42 15 73 19 31 4 71 15 88 26 21 13 50 19 87 19 47 0 57 3 71 25 9 13 16 40 16 59 0 46 -52 92 -114 101 -32 5 -50 14 -61 31 -11 18 -25 24 -50 24 -34 0 -35 1 -35 41 0 22 -5 72 -11 111 -13 81 -11 83 62 93 31 4 55 15 70 31 14 15 34 24 53 24 25 1 38 10 64 45 17 24 32 54 32 65 0 50 60 120 102 120 36 0 91 23 119 49 21 20 99 51 126 51 13 0 24 6 100 58 42 29 63 28 164 -9 98 -35 105 -40 224 -134 50 -40 100 -77 113 -84 36 -19 196 -170 247 -234 l47 -59 -35 -29 c-23 -19 -37 -41 -41 -64 -4 -19 -21 -51 -38 -71 -30 -34 -31 -37 -24 -107 3 -40 10 -101 15 -135 l8 -64 -39 -46 c-57 -69 -51 -126 20 -216 17 -22 22 -37 18 -58 -3 -15 -9 -43 -12 -60 -4 -18 -10 -37 -14 -43 -4 -5 -7 -54 -7 -108 l1 -97 55 0 c78 0 236 -18 285 -32 50 -14 239 -89 324 -129 77 -36 90 -36 98 -2 8 30 -10 258 -31 403 -8 52 -17 118 -20 145 -9 65 -75 251 -121 340 -74 141 -205 328 -288 410 -75 74 -320 285 -331 285 -2 0 -42 26 -87 57 -259 178 -304 201 -412 208 -46 4 -89 -2 -171 -24z"></path></g></g><g id="l6NddbeGInQYVKq8RZHCBP9" fill="rgb(249,247,238)" style="transform: none;"><g><path id="p1CV66eO4u" d="M4131 7343 c-37 -30 -45 -119 -27 -270 11 -95 13 -139 5 -166 -5 -21 -7 -47 -4 -57 8 -24 47 -27 66 -4 7 9 32 29 55 45 53 36 109 38 179 5 55 -25 75 -49 93 -113 7 -23 17 -45 22 -48 22 -13 48 8 70 56 24 50 24 50 12 213 -7 89 -10 170 -6 179 6 17 -11 47 -26 47 -4 0 -10 -23 -12 -51 -9 -93 -57 -130 -170 -133 -68 -1 -70 0 -104 36 -30 33 -34 44 -34 90 0 38 7 67 26 102 l27 50 -23 18 c-30 24 -120 25 -149 1z"></path><path id="p1gLDpq8x" d="M3889 7302 c-13 -11 -50 -34 -83 -52 -76 -43 -88 -70 -77 -174 16 -144 91 -201 152 -115 19 26 53 218 53 303 1 56 -10 65 -45 38z"></path><path id="ptzhP9DH4" d="M3323 7073 c-13 -5 -143 -167 -143 -177 0 -3 9 -6 19 -6 31 0 98 -67 105 -106 4 -19 11 -34 16 -34 6 0 10 -16 10 -36 l0 -37 62 7 c34 3 66 10 71 15 5 5 4 34 -2 67 -6 33 -13 74 -16 93 -7 38 -63 190 -78 209 -10 12 -23 14 -44 5z"></path><path id="p10l3SOxBE" d="M4035 6153 c-22 -14 -52 -35 -67 -45 -15 -10 -33 -18 -41 -18 -27 0 -105 -31 -126 -51 -28 -26 -83 -49 -119 -49 -42 0 -102 -70 -102 -120 0 -11 -15 -41 -32 -65 -26 -35 -39 -44 -64 -45 -19 0 -39 -9 -54 -25 -13 -14 -29 -25 -36 -25 -7 0 -35 -5 -61 -10 l-48 -11 0 -47 c0 -26 3 -52 7 -58 4 -7 11 -50 14 -98 l7 -86 33 0 c24 0 38 -7 49 -24 11 -17 29 -26 61 -31 32 -4 57 -17 81 -39 36 -32 36 -33 18 -59 -15 -24 -24 -27 -72 -27 -37 0 -66 -6 -87 -19 -17 -11 -57 -22 -89 -26 -32 -4 -68 -16 -82 -27 -24 -19 -24 -20 -9 -51 9 -18 30 -48 45 -68 35 -45 36 -53 4 -91 -19 -23 -23 -34 -15 -48 13 -24 59 -60 76 -60 7 0 34 -11 60 -25 41 -22 56 -25 104 -19 l57 6 102 -100 c96 -94 103 -102 96 -131 -6 -27 0 -36 61 -96 44 -42 81 -69 105 -75 20 -6 47 -19 61 -29 l24 -20 29 61 c35 74 97 138 166 174 46 23 68 27 156 29 57 2 103 0 103 -4 0 -12 -58 -51 -77 -51 -9 0 -37 7 -60 16 -95 36 -125 -32 -51 -115 21 -24 38 -47 38 -51 0 -12 94 -77 145 -102 79 -38 120 5 79 84 -13 25 -13 35 -3 59 17 42 56 59 137 59 57 0 71 3 75 17 4 10 13 28 22 39 13 18 14 24 2 35 -17 18 -29 76 -17 84 6 3 10 17 10 29 0 13 7 41 16 61 19 46 12 93 -19 132 -13 15 -31 44 -42 65 l-19 36 30 37 c58 74 67 93 55 123 -6 15 -11 41 -10 57 0 17 -5 58 -11 93 -11 62 -11 63 19 97 16 19 33 51 37 70 8 44 68 98 98 89 69 -22 -222 307 -316 357 -13 7 -63 44 -113 84 -49 39 -101 79 -115 87 -39 26 -180 74 -235 81 -44 6 -55 4 -90 -20z m-115 -423 c79 -40 129 -49 175 -31 12 5 25 3 33 -6 20 -20 2 -38 -72 -74 -34 -16 -77 -37 -96 -48 -26 -14 -64 -21 -151 -26 -115 -7 -116 -6 -147 20 -45 37 -43 73 5 115 32 29 145 90 166 90 4 0 43 -18 87 -40z m478 -85 c35 -16 72 -25 103 -25 58 0 117 -27 149 -67 l22 -28 -35 -31 c-67 -62 -190 -50 -308 28 -63 43 -119 100 -119 124 0 8 3 13 8 11 4 -3 16 -1 27 4 39 15 100 9 153 -16z m-140 -411 c55 -38 75 -126 61 -264 -11 -105 -22 -140 -49 -165 -25 -22 -50 -13 -78 29 -20 29 -25 54 -32 143 -4 61 -14 124 -24 145 -22 51 -20 65 13 99 33 33 74 38 109 13z"></path></g></g></svg>